<svg xmlns="http://www.w3.org/2000/svg" width="1100" height="470" viewBox="0 0 1100 470" font-family="Times New Roman, serif"><rect width="100%" height="100%" fill="#fff"/><line x1="60.0" y1="410.0" x2="1040.0" y2="410.0" stroke="#000" stroke-width="2.5" /><line x1="1040.0" y1="410.0" x2="936.4" y2="125.3" stroke="#000" stroke-width="2.5" /><line x1="936.4" y1="125.3" x2="60.0" y2="410.0" stroke="#000" stroke-width="2.5" /><line x1="859.2" y1="410.0" x2="978.2" y2="240.1" stroke="#000" stroke-width="2" /><line x1="978.2" y1="240.1" x2="820.1" y2="163.0" stroke="#000" stroke-width="2" /><line x1="820.1" y1="163.0" x2="859.2" y2="410.0" stroke="#000" stroke-width="2" /><line x1="459.6" y1="401.0" x2="459.6" y2="419.0" stroke="#000" stroke-width="2"/><line x1="437.3" y1="278.0" x2="442.8" y2="295.1" stroke="#000" stroke-width="2"/><line x1="953.1" y1="419.0" x2="953.1" y2="401.0" stroke="#000" stroke-width="2"/><line x1="946.1" y1="419.0" x2="946.1" y2="401.0" stroke="#000" stroke-width="2"/><line x1="1001.8" y1="331.4" x2="1018.7" y2="325.3" stroke="#000" stroke-width="2"/><line x1="999.4" y1="324.9" x2="1016.3" y2="318.7" stroke="#000" stroke-width="2"/><line x1="963.3" y1="173.0" x2="946.4" y2="179.2" stroke="#000" stroke-width="2"/><line x1="965.7" y1="179.6" x2="948.8" y2="185.8" stroke="#000" stroke-width="2"/><line x1="968.1" y1="186.2" x2="951.2" y2="192.3" stroke="#000" stroke-width="2"/><line x1="887.7" y1="150.5" x2="882.1" y2="133.4" stroke="#000" stroke-width="2"/><line x1="881.0" y1="152.7" x2="875.5" y2="135.6" stroke="#000" stroke-width="2"/><line x1="874.4" y1="154.9" x2="868.8" y2="137.7" stroke="#000" stroke-width="2"/><path d="M174.1,372.9 A120,120 0 0 1 180.0,410.0" fill="none" stroke="#000" stroke-width="1.5"/><text x="208.2" y="386.5" font-size="20" text-anchor="middle" dominant-baseline="middle">18°</text><path d="M995.0,410.0 A45,45 0 0 1 1024.6,367.7" fill="none" stroke="#000" stroke-width="1.5"/><text x="981.0" y="368.7" font-size="20" text-anchor="middle" dominant-baseline="middle">70°</text><path d="M829.2,410.0 A30,30 0 0 1 854.5,380.4" fill="none" stroke="#000" stroke-width="1.5"/><text x="815.1" y="372.3" font-size="19" text-anchor="middle" dominant-baseline="middle">81°</text><path d="M824.8,192.7 A30,30 0 0 1 791.6,172.3" fill="none" stroke="#000" stroke-width="1.5"/><text x="790.8" y="210.8" font-size="19" text-anchor="middle" dominant-baseline="middle">81°</text><path d="M851.4,360.6 A50,50 0 0 1 887.9,369.0" fill="none" stroke="#000" stroke-width="1.5"/><text x="876.3" y="335.9" font-size="19" text-anchor="middle" dominant-baseline="middle">44°</text><path d="M876.4,385.4 A30,30 0 0 1 889.2,410.0" fill="none" stroke="#000" stroke-width="1.5"/><text x="908.9" y="384.1" font-size="19" text-anchor="middle" dominant-baseline="middle">55°</text><path d="M988.4,268.3 A30,30 0 0 1 961.0,264.7" fill="none" stroke="#000" stroke-width="1.5"/><text x="970.9" y="295.6" font-size="19" text-anchor="middle" dominant-baseline="middle">55°</text><text x="28.0" y="420.0" font-size="26" font-style="italic">A</text><text x="1050.0" y="422.0" font-size="26" font-style="italic">B</text><text x="928.4" y="111.3" font-size="26" font-style="italic">C</text><text x="849.2" y="442.0" font-size="26" font-style="italic">M</text><text x="990.2" y="238.1" font-size="26" font-style="italic">N</text><text x="806.1" y="149.0" font-size="26" font-style="italic">K</text></svg>