<svg viewBox="72 0 616 166" role="img" aria-label="Схема 5: эпюра 2" xmlns="http://www.w3.org/2000/svg">
<line x1="96.0" y1="96.0" x2="96.0" y2="34.0" class="ep-hatch"/>
<line x1="102.3" y1="96.0" x2="102.3" y2="38.6" class="ep-hatch"/>
<line x1="108.6" y1="96.0" x2="108.6" y2="43.0" class="ep-hatch"/>
<line x1="114.9" y1="96.0" x2="114.9" y2="47.3" class="ep-hatch"/>
<line x1="121.2" y1="96.0" x2="121.2" y2="51.4" class="ep-hatch"/>
<line x1="127.6" y1="96.0" x2="127.6" y2="55.3" class="ep-hatch"/>
<line x1="133.9" y1="96.0" x2="133.9" y2="59.1" class="ep-hatch"/>
<line x1="140.2" y1="96.0" x2="140.2" y2="62.8" class="ep-hatch"/>
<line x1="146.5" y1="96.0" x2="146.5" y2="66.2" class="ep-hatch"/>
<line x1="152.8" y1="96.0" x2="152.8" y2="69.6" class="ep-hatch"/>
<line x1="159.1" y1="96.0" x2="159.1" y2="72.8" class="ep-hatch"/>
<line x1="165.4" y1="96.0" x2="165.4" y2="75.8" class="ep-hatch"/>
<line x1="171.7" y1="96.0" x2="171.7" y2="78.6" class="ep-hatch"/>
<line x1="178.0" y1="96.0" x2="178.0" y2="81.4" class="ep-hatch"/>
<line x1="184.4" y1="96.0" x2="184.4" y2="83.9" class="ep-hatch"/>
<line x1="190.7" y1="96.0" x2="190.7" y2="86.3" class="ep-hatch"/>
<line x1="197.0" y1="96.0" x2="197.0" y2="88.6" class="ep-hatch"/>
<line x1="203.3" y1="96.0" x2="203.3" y2="90.7" class="ep-hatch"/>
<line x1="209.6" y1="96.0" x2="209.6" y2="92.6" class="ep-hatch"/>
<line x1="215.9" y1="96.0" x2="215.9" y2="94.4" class="ep-hatch"/>
<polyline points="96.0,34.0 99.2,36.3 102.3,38.6 105.5,40.8 108.6,43.0 111.8,45.1 114.9,47.3 118.1,49.3 121.2,51.4 124.4,53.4 127.6,55.3 130.7,57.2 133.9,59.1 137.0,61.0 140.2,62.8 143.3,64.5 146.5,66.2 149.6,67.9 152.8,69.6 156.0,71.2 159.1,72.8 162.3,74.3 165.4,75.8 168.6,77.2 171.7,78.6 174.9,80.0 178.0,81.4 181.2,82.7 184.4,83.9 187.5,85.1 190.7,86.3 193.8,87.5 197.0,88.6 200.1,89.6 203.3,90.7 206.4,91.6 209.6,92.6 212.8,93.5 215.9,94.4 219.1,95.2 222.2,96.0" class="ep-line"/>
<line x1="96.0" y1="96.0" x2="96.0" y2="34.0" class="ep-line"/>
<line x1="222.2" y1="96.0" x2="222.2" y2="96.0" class="ep-line"/>
<line x1="228.5" y1="96.0" x2="228.5" y2="97.5" class="ep-hatch"/>
<line x1="234.8" y1="96.0" x2="234.8" y2="98.8" class="ep-hatch"/>
<line x1="241.2" y1="96.0" x2="241.2" y2="100.0" class="ep-hatch"/>
<line x1="247.5" y1="96.0" x2="247.5" y2="101.0" class="ep-hatch"/>
<line x1="253.8" y1="96.0" x2="253.8" y2="101.8" class="ep-hatch"/>
<line x1="260.1" y1="96.0" x2="260.1" y2="102.5" class="ep-hatch"/>
<line x1="266.4" y1="96.0" x2="266.4" y2="103.1" class="ep-hatch"/>
<line x1="272.7" y1="96.0" x2="272.7" y2="103.4" class="ep-hatch"/>
<line x1="279.0" y1="96.0" x2="279.0" y2="103.7" class="ep-hatch"/>
<line x1="285.3" y1="96.0" x2="285.3" y2="103.8" class="ep-hatch"/>
<line x1="291.6" y1="96.0" x2="291.6" y2="103.7" class="ep-hatch"/>
<line x1="298.0" y1="96.0" x2="298.0" y2="103.4" class="ep-hatch"/>
<line x1="304.3" y1="96.0" x2="304.3" y2="103.1" class="ep-hatch"/>
<line x1="310.6" y1="96.0" x2="310.6" y2="102.5" class="ep-hatch"/>
<line x1="316.9" y1="96.0" x2="316.9" y2="101.8" class="ep-hatch"/>
<line x1="323.2" y1="96.0" x2="323.2" y2="101.0" class="ep-hatch"/>
<line x1="329.5" y1="96.0" x2="329.5" y2="100.0" class="ep-hatch"/>
<line x1="335.8" y1="96.0" x2="335.8" y2="98.8" class="ep-hatch"/>
<line x1="342.1" y1="96.0" x2="342.1" y2="97.5" class="ep-hatch"/>
<polyline points="222.2,96.0 225.4,96.8 228.5,97.5 231.7,98.2 234.8,98.8 238.0,99.4 241.2,100.0 244.3,100.5 247.5,101.0 250.6,101.4 253.8,101.8 256.9,102.2 260.1,102.5 263.2,102.8 266.4,103.1 269.6,103.3 272.7,103.4 275.9,103.6 279.0,103.7 282.2,103.7 285.3,103.8 288.5,103.7 291.6,103.7 294.8,103.6 298.0,103.4 301.1,103.3 304.3,103.1 307.4,102.8 310.6,102.5 313.7,102.2 316.9,101.8 320.0,101.4 323.2,101.0 326.4,100.5 329.5,100.0 332.7,99.4 335.8,98.8 339.0,98.2 342.1,97.5 345.3,96.8 348.4,96.0" class="ep-line"/>
<line x1="222.2" y1="96.0" x2="222.2" y2="96.0" class="ep-line"/>
<line x1="348.4" y1="96.0" x2="348.4" y2="96.0" class="ep-line"/>
<line x1="351.6" y1="96.0" x2="351.6" y2="95.2" class="ep-hatch"/>
<line x1="354.8" y1="96.0" x2="354.8" y2="94.5" class="ep-hatch"/>
<line x1="357.9" y1="96.0" x2="357.9" y2="93.7" class="ep-hatch"/>
<line x1="361.1" y1="96.0" x2="361.1" y2="92.9" class="ep-hatch"/>
<line x1="364.2" y1="96.0" x2="364.2" y2="92.1" class="ep-hatch"/>
<line x1="367.4" y1="96.0" x2="367.4" y2="91.4" class="ep-hatch"/>
<line x1="370.5" y1="96.0" x2="370.5" y2="90.6" class="ep-hatch"/>
<line x1="373.7" y1="96.0" x2="373.7" y2="89.8" class="ep-hatch"/>
<line x1="376.8" y1="96.0" x2="376.8" y2="89.0" class="ep-hatch"/>
<line x1="380.0" y1="96.0" x2="380.0" y2="88.3" class="ep-hatch"/>
<line x1="383.2" y1="96.0" x2="383.2" y2="87.5" class="ep-hatch"/>
<line x1="386.3" y1="96.0" x2="386.3" y2="86.7" class="ep-hatch"/>
<line x1="389.5" y1="96.0" x2="389.5" y2="85.9" class="ep-hatch"/>
<line x1="392.6" y1="96.0" x2="392.6" y2="85.2" class="ep-hatch"/>
<line x1="395.8" y1="96.0" x2="395.8" y2="84.4" class="ep-hatch"/>
<line x1="398.9" y1="96.0" x2="398.9" y2="83.6" class="ep-hatch"/>
<line x1="402.1" y1="96.0" x2="402.1" y2="82.8" class="ep-hatch"/>
<line x1="405.2" y1="96.0" x2="405.2" y2="82.1" class="ep-hatch"/>
<line x1="408.4" y1="96.0" x2="408.4" y2="81.3" class="ep-hatch"/>
<line x1="411.6" y1="96.0" x2="411.6" y2="80.5" class="ep-hatch"/>
<polyline points="348.4,96.0 350.0,95.6 351.6,95.2 353.2,94.8 354.8,94.5 356.3,94.1 357.9,93.7 359.5,93.3 361.1,92.9 362.6,92.5 364.2,92.1 365.8,91.7 367.4,91.4 369.0,91.0 370.5,90.6 372.1,90.2 373.7,89.8 375.3,89.4 376.8,89.0 378.4,88.6 380.0,88.3 381.6,87.9 383.2,87.5 384.7,87.1 386.3,86.7 387.9,86.3 389.5,85.9 391.0,85.5 392.6,85.2 394.2,84.8 395.8,84.4 397.4,84.0 398.9,83.6 400.5,83.2 402.1,82.8 403.7,82.4 405.2,82.1 406.8,81.7 408.4,81.3 410.0,80.9 411.6,80.5" class="ep-line"/>
<line x1="348.4" y1="96.0" x2="348.4" y2="96.0" class="ep-line"/>
<line x1="411.6" y1="96.0" x2="411.6" y2="80.5" class="ep-line"/>
<line x1="411.6" y1="96.0" x2="411.6" y2="80.5" class="ep-hatch"/>
<line x1="414.7" y1="96.0" x2="414.7" y2="83.0" class="ep-hatch"/>
<line x1="417.9" y1="96.0" x2="417.9" y2="85.6" class="ep-hatch"/>
<line x1="421.0" y1="96.0" x2="421.0" y2="88.1" class="ep-hatch"/>
<line x1="424.2" y1="96.0" x2="424.2" y2="90.7" class="ep-hatch"/>
<line x1="427.3" y1="96.0" x2="427.3" y2="93.2" class="ep-hatch"/>
<line x1="430.5" y1="96.0" x2="430.5" y2="95.7" class="ep-hatch"/>
<line x1="433.6" y1="96.0" x2="433.6" y2="98.3" class="ep-hatch"/>
<line x1="436.8" y1="96.0" x2="436.8" y2="100.8" class="ep-hatch"/>
<line x1="440.0" y1="96.0" x2="440.0" y2="103.4" class="ep-hatch"/>
<line x1="443.1" y1="96.0" x2="443.1" y2="105.9" class="ep-hatch"/>
<line x1="446.3" y1="96.0" x2="446.3" y2="108.4" class="ep-hatch"/>
<line x1="449.4" y1="96.0" x2="449.4" y2="111.0" class="ep-hatch"/>
<line x1="452.6" y1="96.0" x2="452.6" y2="113.5" class="ep-hatch"/>
<line x1="455.7" y1="96.0" x2="455.7" y2="116.1" class="ep-hatch"/>
<line x1="458.9" y1="96.0" x2="458.9" y2="118.6" class="ep-hatch"/>
<line x1="462.0" y1="96.0" x2="462.0" y2="121.1" class="ep-hatch"/>
<line x1="465.2" y1="96.0" x2="465.2" y2="123.7" class="ep-hatch"/>
<line x1="468.4" y1="96.0" x2="468.4" y2="126.2" class="ep-hatch"/>
<line x1="471.5" y1="96.0" x2="471.5" y2="128.8" class="ep-hatch"/>
<line x1="474.7" y1="96.0" x2="474.7" y2="131.3" class="ep-hatch"/>
<polyline points="411.6,80.5 413.1,81.8 414.7,83.0 416.3,84.3 417.9,85.6 419.4,86.9 421.0,88.1 422.6,89.4 424.2,90.7 425.8,91.9 427.3,93.2 428.9,94.5 430.5,95.7 432.1,97.0 433.6,98.3 435.2,99.6 436.8,100.8 438.4,102.1 440.0,103.4 441.5,104.6 443.1,105.9 444.7,107.2 446.3,108.4 447.8,109.7 449.4,111.0 451.0,112.3 452.6,113.5 454.2,114.8 455.7,116.1 457.3,117.3 458.9,118.6 460.5,119.9 462.0,121.1 463.6,122.4 465.2,123.7 466.8,125.0 468.4,126.2 469.9,127.5 471.5,128.8 473.1,130.0 474.7,131.3" class="ep-line"/>
<line x1="411.6" y1="96.0" x2="411.6" y2="80.5" class="ep-line"/>
<line x1="474.7" y1="96.0" x2="474.7" y2="131.3" class="ep-line"/>
<line x1="474.7" y1="96.0" x2="474.7" y2="131.3" class="ep-hatch"/>
<line x1="477.8" y1="96.0" x2="477.8" y2="128.7" class="ep-hatch"/>
<line x1="481.0" y1="96.0" x2="481.0" y2="126.1" class="ep-hatch"/>
<line x1="484.1" y1="96.0" x2="484.1" y2="123.4" class="ep-hatch"/>
<line x1="487.3" y1="96.0" x2="487.3" y2="120.8" class="ep-hatch"/>
<line x1="490.4" y1="96.0" x2="490.4" y2="118.2" class="ep-hatch"/>
<line x1="493.6" y1="96.0" x2="493.6" y2="115.5" class="ep-hatch"/>
<line x1="496.8" y1="96.0" x2="496.8" y2="112.9" class="ep-hatch"/>
<line x1="499.9" y1="96.0" x2="499.9" y2="110.3" class="ep-hatch"/>
<line x1="503.1" y1="96.0" x2="503.1" y2="107.7" class="ep-hatch"/>
<line x1="506.2" y1="96.0" x2="506.2" y2="105.0" class="ep-hatch"/>
<line x1="509.4" y1="96.0" x2="509.4" y2="102.4" class="ep-hatch"/>
<line x1="512.5" y1="96.0" x2="512.5" y2="99.8" class="ep-hatch"/>
<line x1="515.7" y1="96.0" x2="515.7" y2="97.2" class="ep-hatch"/>
<line x1="518.8" y1="96.0" x2="518.8" y2="94.5" class="ep-hatch"/>
<line x1="522.0" y1="96.0" x2="522.0" y2="91.9" class="ep-hatch"/>
<line x1="525.2" y1="96.0" x2="525.2" y2="89.3" class="ep-hatch"/>
<line x1="528.3" y1="96.0" x2="528.3" y2="86.7" class="ep-hatch"/>
<line x1="531.5" y1="96.0" x2="531.5" y2="84.0" class="ep-hatch"/>
<line x1="534.6" y1="96.0" x2="534.6" y2="81.4" class="ep-hatch"/>
<line x1="537.8" y1="96.0" x2="537.8" y2="78.8" class="ep-hatch"/>
<polyline points="474.7,131.3 476.2,130.0 477.8,128.7 479.4,127.4 481.0,126.1 482.6,124.7 484.1,123.4 485.7,122.1 487.3,120.8 488.9,119.5 490.4,118.2 492.0,116.9 493.6,115.5 495.2,114.2 496.8,112.9 498.3,111.6 499.9,110.3 501.5,109.0 503.1,107.7 504.6,106.4 506.2,105.0 507.8,103.7 509.4,102.4 511.0,101.1 512.5,99.8 514.1,98.5 515.7,97.2 517.3,95.8 518.8,94.5 520.4,93.2 522.0,91.9 523.6,90.6 525.2,89.3 526.7,88.0 528.3,86.7 529.9,85.3 531.5,84.0 533.0,82.7 534.6,81.4 536.2,80.1 537.8,78.8" class="ep-line"/>
<line x1="474.7" y1="96.0" x2="474.7" y2="131.3" class="ep-line"/>
<line x1="537.8" y1="96.0" x2="537.8" y2="78.8" class="ep-line"/>
<line x1="537.8" y1="96.0" x2="537.8" y2="78.8" class="ep-hatch"/>
<line x1="544.1" y1="96.0" x2="544.1" y2="78.8" class="ep-hatch"/>
<line x1="550.4" y1="96.0" x2="550.4" y2="78.8" class="ep-hatch"/>
<line x1="556.7" y1="96.0" x2="556.7" y2="78.8" class="ep-hatch"/>
<line x1="563.0" y1="96.0" x2="563.0" y2="78.8" class="ep-hatch"/>
<line x1="569.3" y1="96.0" x2="569.3" y2="78.8" class="ep-hatch"/>
<line x1="575.6" y1="96.0" x2="575.6" y2="78.8" class="ep-hatch"/>
<line x1="582.0" y1="96.0" x2="582.0" y2="78.8" class="ep-hatch"/>
<line x1="588.3" y1="96.0" x2="588.3" y2="78.8" class="ep-hatch"/>
<line x1="594.6" y1="96.0" x2="594.6" y2="78.8" class="ep-hatch"/>
<line x1="600.9" y1="96.0" x2="600.9" y2="78.8" class="ep-hatch"/>
<line x1="607.2" y1="96.0" x2="607.2" y2="78.8" class="ep-hatch"/>
<line x1="613.5" y1="96.0" x2="613.5" y2="78.8" class="ep-hatch"/>
<line x1="619.8" y1="96.0" x2="619.8" y2="78.8" class="ep-hatch"/>
<line x1="626.1" y1="96.0" x2="626.1" y2="78.8" class="ep-hatch"/>
<line x1="632.4" y1="96.0" x2="632.4" y2="78.8" class="ep-hatch"/>
<line x1="638.8" y1="96.0" x2="638.8" y2="78.8" class="ep-hatch"/>
<line x1="645.1" y1="96.0" x2="645.1" y2="78.8" class="ep-hatch"/>
<line x1="651.4" y1="96.0" x2="651.4" y2="78.8" class="ep-hatch"/>
<line x1="657.7" y1="96.0" x2="657.7" y2="78.8" class="ep-hatch"/>
<line x1="664.0" y1="96.0" x2="664.0" y2="78.8" class="ep-hatch"/>
<polyline points="537.8,78.8 540.9,78.8 544.1,78.8 547.2,78.8 550.4,78.8 553.6,78.8 556.7,78.8 559.9,78.8 563.0,78.8 566.2,78.8 569.3,78.8 572.5,78.8 575.6,78.8 578.8,78.8 582.0,78.8 585.1,78.8 588.3,78.8 591.4,78.8 594.6,78.8 597.7,78.8 600.9,78.8 604.0,78.8 607.2,78.8 610.4,78.8 613.5,78.8 616.7,78.8 619.8,78.8 623.0,78.8 626.1,78.8 629.3,78.8 632.4,78.8 635.6,78.8 638.8,78.8 641.9,78.8 645.1,78.8 648.2,78.8 651.4,78.8 654.5,78.8 657.7,78.8 660.8,78.8 664.0,78.8" class="ep-line"/>
<line x1="537.8" y1="96.0" x2="537.8" y2="78.8" class="ep-line"/>
<line x1="664.0" y1="96.0" x2="664.0" y2="78.8" class="ep-line"/>
<line x1="96.0" y1="96.0" x2="222.2" y2="96.0" class="ep-axis"/>
<line x1="222.2" y1="96.0" x2="348.4" y2="96.0" class="ep-axis"/>
<line x1="348.4" y1="96.0" x2="411.6" y2="96.0" class="ep-axis"/>
<line x1="411.6" y1="96.0" x2="474.7" y2="96.0" class="ep-axis"/>
<line x1="474.7" y1="96.0" x2="537.8" y2="96.0" class="ep-axis"/>
<line x1="537.8" y1="96.0" x2="664.0" y2="96.0" class="ep-axis"/>
<rect x="85.9" y="15.0" width="20.2" height="15.0" class="ep-bg"/>
<text x="96.0" y="27.0" class="ep-lbl" text-anchor="middle">36</text>
<rect x="137.6" y="53.8" width="43.0" height="15.0" class="ep-bg"/>
<text x="159.1" y="65.8" class="ep-lbl" text-anchor="middle">13,50</text>
<rect x="267.6" y="108.8" width="35.4" height="15.0" class="ep-bg"/>
<text x="285.3" y="120.8" class="ep-lbl" text-anchor="middle">4,50</text>
<rect x="405.3" y="61.5" width="12.6" height="15.0" class="ep-bg"/>
<text x="411.6" y="73.5" class="ep-lbl" text-anchor="middle">9</text>
<rect x="453.2" y="136.3" width="43.0" height="15.0" class="ep-bg"/>
<text x="474.7" y="148.3" class="ep-lbl" text-anchor="middle">20,50</text>
<rect x="527.7" y="59.8" width="20.2" height="15.0" class="ep-bg"/>
<text x="537.8" y="71.8" class="ep-lbl" text-anchor="middle">10</text>
<rect x="653.9" y="59.8" width="20.2" height="15.0" class="ep-bg"/>
<text x="664.0" y="71.8" class="ep-lbl" text-anchor="middle">10</text>
</svg>
