  0
SECTION
  2
HEADER
  9
$ACADVER
  1
AC1024
  9
$ACADMAINTVER
 70
6
  9
$DWGCODEPAGE
  3
ANSI_1252
  9
$LASTSAVEDBY
  1
ezdxf
  9
$INSBASE
 10
0.0
 20
0.0
 30
0.0
  9
$EXTMIN
 10
1e+20
 20
1e+20
 30
1e+20
  9
$EXTMAX
 10
-1e+20
 20
-1e+20
 30
-1e+20
  9
$LIMMIN
 10
0.0
 20
0.0
  9
$LIMMAX
 10
420.0
 20
297.0
  9
$ORTHOMODE
 70
0
  9
$REGENMODE
 70
1
  9
$FILLMODE
 70
1
  9
$QTEXTMODE
 70
0
  9
$MIRRTEXT
 70
1
  9
$LTSCALE
 40
1.0
  9
$ATTMODE
 70
1
  9
$TEXTSIZE
 40
2.5
  9
$TRACEWID
 40
1.0
  9
$TEXTSTYLE
  7
Standard
  9
$CLAYER
  8
0
  9
$CELTYPE
  6
ByLayer
  9
$CECOLOR
 62
256
  9
$CELTSCALE
 40
1.0
  9
$DISPSILH
 70
0
  9
$DIMSCALE
 40
1.0
  9
$DIMASZ
 40
2.5
  9
$DIMEXO
 40
0.625
  9
$DIMDLI
 40
3.75
  9
$DIMRND
 40
0.0
  9
$DIMDLE
 40
0.0
  9
$DIMEXE
 40
1.25
  9
$DIMTP
 40
0.0
  9
$DIMTM
 40
0.0
  9
$DIMTXT
 40
2.5
  9
$DIMCEN
 40
2.5
  9
$DIMTSZ
 40
0.0
  9
$DIMTOL
 70
0
  9
$DIMLIM
 70
0
  9
$DIMTIH
 70
0
  9
$DIMTOH
 70
0
  9
$DIMSE1
 70
0
  9
$DIMSE2
 70
0
  9
$DIMTAD
 70
1
  9
$DIMZIN
 70
8
  9
$DIMBLK
  1

  9
$DIMASO
 70
1
  9
$DIMSHO
 70
1
  9
$DIMPOST
  1

  9
$DIMAPOST
  1

  9
$DIMALT
 70
0
  9
$DIMALTD
 70
3
  9
$DIMALTF
 40
0.03937007874
  9
$DIMLFAC
 40
1.0
  9
$DIMTOFL
 70
1
  9
$DIMTVP
 40
0.0
  9
$DIMTIX
 70
0
  9
$DIMSOXD
 70
0
  9
$DIMSAH
 70
0
  9
$DIMBLK1
  1

  9
$DIMBLK2
  1

  9
$DIMSTYLE
  2
ISO-25
  9
$DIMCLRD
 70
0
  9
$DIMCLRE
 70
0
  9
$DIMCLRT
 70
0
  9
$DIMTFAC
 40
1.0
  9
$DIMGAP
 40
0.625
  9
$DIMJUST
 70
0
  9
$DIMSD1
 70
0
  9
$DIMSD2
 70
0
  9
$DIMTOLJ
 70
0
  9
$DIMTZIN
 70
8
  9
$DIMALTZ
 70
0
  9
$DIMALTTZ
 70
0
  9
$DIMUPT
 70
0
  9
$DIMDEC
 70
2
  9
$DIMTDEC
 70
2
  9
$DIMALTU
 70
2
  9
$DIMALTTD
 70
3
  9
$DIMTXSTY
  7
Standard
  9
$DIMAUNIT
 70
0
  9
$DIMADEC
 70
0
  9
$DIMALTRND
 40
0.0
  9
$DIMAZIN
 70
0
  9
$DIMDSEP
 70
44
  9
$DIMATFIT
 70
3
  9
$DIMFRAC
 70
0
  9
$DIMLDRBLK
  1

  9
$DIMLUNIT
 70
2
  9
$DIMLWD
 70
-2
  9
$DIMLWE
 70
-2
  9
$DIMTMOVE
 70
0
  9
$DIMFXL
 40
1.0
  9
$DIMFXLON
 70
0
  9
$DIMJOGANG
 40
0.785398163397
  9
$DIMTFILL
 70
0
  9
$DIMTFILLCLR
 70
0
  9
$DIMARCSYM
 70
0
  9
$DIMLTYPE
  6

  9
$DIMLTEX1
  6

  9
$DIMLTEX2
  6

  9
$DIMTXTDIRECTION
 70
0
  9
$LUNITS
 70
2
  9
$LUPREC
 70
4
  9
$SKETCHINC
 40
1.0
  9
$FILLETRAD
 40
10.0
  9
$AUNITS
 70
0
  9
$AUPREC
 70
2
  9
$MENU
  1
.
  9
$ELEVATION
 40
0.0
  9
$PELEVATION
 40
0.0
  9
$THICKNESS
 40
0.0
  9
$LIMCHECK
 70
0
  9
$CHAMFERA
 40
0.0
  9
$CHAMFERB
 40
0.0
  9
$CHAMFERC
 40
0.0
  9
$CHAMFERD
 40
0.0
  9
$SKPOLY
 70
0
  9
$TDCREATE
 40
2461309.870775463
  9
$TDUCREATE
 40
2458532.153996898
  9
$TDUPDATE
 40
2461309.870775463
  9
$TDUUPDATE
 40
2458532.1544311
  9
$TDINDWG
 40
0.0
  9
$TDUSRTIMER
 40
0.0
  9
$USRTIMER
 70
1
  9
$ANGBASE
 50
0.0
  9
$ANGDIR
 70
0
  9
$PDMODE
 70
0
  9
$PDSIZE
 40
0.0
  9
$PLINEWID
 40
0.0
  9
$SPLFRAME
 70
0
  9
$SPLINETYPE
 70
6
  9
$SPLINESEGS
 70
8
  9
$HANDSEED
  5
29C
  9
$SURFTAB1
 70
6
  9
$SURFTAB2
 70
6
  9
$SURFTYPE
 70
6
  9
$SURFU
 70
6
  9
$SURFV
 70
6
  9
$UCSBASE
  2

  9
$UCSNAME
  2

  9
$UCSORG
 10
0.0
 20
0.0
 30
0.0
  9
$UCSXDIR
 10
1.0
 20
0.0
 30
0.0
  9
$UCSYDIR
 10
0.0
 20
1.0
 30
0.0
  9
$UCSORTHOREF
  2

  9
$UCSORTHOVIEW
 70
0
  9
$UCSORGTOP
 10
0.0
 20
0.0
 30
0.0
  9
$UCSORGBOTTOM
 10
0.0
 20
0.0
 30
0.0
  9
$UCSORGLEFT
 10
0.0
 20
0.0
 30
0.0
  9
$UCSORGRIGHT
 10
0.0
 20
0.0
 30
0.0
  9
$UCSORGFRONT
 10
0.0
 20
0.0
 30
0.0
  9
$UCSORGBACK
 10
0.0
 20
0.0
 30
0.0
  9
$PUCSBASE
  2

  9
$PUCSNAME
  2

  9
$PUCSORG
 10
0.0
 20
0.0
 30
0.0
  9
$PUCSXDIR
 10
1.0
 20
0.0
 30
0.0
  9
$PUCSYDIR
 10
0.0
 20
1.0
 30
0.0
  9
$PUCSORTHOREF
  2

  9
$PUCSORTHOVIEW
 70
0
  9
$PUCSORGTOP
 10
0.0
 20
0.0
 30
0.0
  9
$PUCSORGBOTTOM
 10
0.0
 20
0.0
 30
0.0
  9
$PUCSORGLEFT
 10
0.0
 20
0.0
 30
0.0
  9
$PUCSORGRIGHT
 10
0.0
 20
0.0
 30
0.0
  9
$PUCSORGFRONT
 10
0.0
 20
0.0
 30
0.0
  9
$PUCSORGBACK
 10
0.0
 20
0.0
 30
0.0
  9
$USERI1
 70
0
  9
$USERI2
 70
0
  9
$USERI3
 70
0
  9
$USERI4
 70
0
  9
$USERI5
 70
0
  9
$USERR1
 40
0.0
  9
$USERR2
 40
0.0
  9
$USERR3
 40
0.0
  9
$USERR4
 40
0.0
  9
$USERR5
 40
0.0
  9
$WORLDVIEW
 70
1
  9
$SHADEDGE
 70
3
  9
$SHADEDIF
 70
70
  9
$TILEMODE
 70
1
  9
$MAXACTVP
 70
64
  9
$PINSBASE
 10
0.0
 20
0.0
 30
0.0
  9
$PLIMCHECK
 70
0
  9
$PEXTMIN
 10
1e+20
 20
1e+20
 30
1e+20
  9
$PEXTMAX
 10
-1e+20
 20
-1e+20
 30
-1e+20
  9
$PLIMMIN
 10
-0.0
 20
-0.0
  9
$PLIMMAX
 10
420.0
 20
297.0
  9
$UNITMODE
 70
0
  9
$VISRETAIN
 70
1
  9
$PLINEGEN
 70
0
  9
$PSLTSCALE
 70
1
  9
$TREEDEPTH
 70
3020
  9
$CMLSTYLE
  2
Standard
  9
$CMLJUST
 70
0
  9
$CMLSCALE
 40
20.0
  9
$PROXYGRAPHICS
 70
1
  9
$MEASUREMENT
 70
1
  9
$CELWEIGHT
370
-1
  9
$ENDCAPS
280
0
  9
$JOINSTYLE
280
0
  9
$LWDISPLAY
290
1
  9
$INSUNITS
 70
6
  9
$HYPERLINKBASE
  1

  9
$STYLESHEET
  1

  9
$XEDIT
290
1
  9
$CEPSNTYPE
380
0
  9
$PSTYLEMODE
290
1
  9
$FINGERPRINTGUID
  2
{70CE7C81-567F-487A-A269-42ED54ECD1C6}
  9
$VERSIONGUID
  2
{D7801767-5FA9-4295-81F2-A1A898A073DC}
  9
$EXTNAMES
290
1
  9
$PSVPSCALE
 40
0.0
  9
$OLESTARTUP
290
0
  9
$SORTENTS
280
127
  9
$INDEXCTL
280
0
  9
$HIDETEXT
280
1
  9
$XCLIPFRAME
280
1
  9
$HALOGAP
280
0
  9
$OBSCOLOR
 70
257
  9
$OBSLTYPE
280
0
  9
$INTERSECTIONDISPLAY
280
0
  9
$INTERSECTIONCOLOR
 70
257
  9
$DIMASSOC
280
2
  9
$PROJECTNAME
  1

  9
$CAMERADISPLAY
290
0
  9
$LENSLENGTH
 40
50.0
  9
$CAMERAHEIGHT
 40
0.0
  9
$STEPSPERSEC
 40
24.0
  9
$STEPSIZE
 40
100.0
  9
$3DDWFPREC
 40
2.0
  9
$PSOLWIDTH
 40
0.005
  9
$PSOLHEIGHT
 40
0.08
  9
$LOFTANG1
 40
1.570796326795
  9
$LOFTANG2
 40
1.570796326795
  9
$LOFTMAG1
 40
0.0
  9
$LOFTMAG2
 40
0.0
  9
$LOFTPARAM
 70
7
  9
$LOFTNORMALS
280
1
  9
$LATITUDE
 40
37.795
  9
$LONGITUDE
 40
-122.394
  9
$NORTHDIRECTION
 40
0.0
  9
$TIMEZONE
 70
-8000
  9
$LIGHTGLYPHDISPLAY
280
1
  9
$TILEMODELIGHTSYNCH
280
1
  9
$CMATERIAL
347
20
  9
$SOLIDHIST
280
0
  9
$SHOWHIST
280
1
  9
$DWFFRAME
280
2
  9
$DGNFRAME
280
2
  9
$REALWORLDSCALE
290
1
  9
$INTERFERECOLOR
 62
256
  9
$CSHADOW
280
0
  9
$SHADOWPLANELOCATION
 40
0.0
  0
ENDSEC
  0
SECTION
  2
CLASSES
  0
CLASS
  1
ACDBDICTIONARYWDFLT
  2
AcDbDictionaryWithDefault
  3
ObjectDBX Classes
 90
0
 91
0
280
0
281
0
  0
CLASS
  1
SUN
  2
AcDbSun
  3
SCENEOE
 90
1153
 91
0
280
0
281
0
  0
CLASS
  1
VISUALSTYLE
  2
AcDbVisualStyle
  3
ObjectDBX Classes
 90
4095
 91
0
280
0
281
0
  0
CLASS
  1
MATERIAL
  2
AcDbMaterial
  3
ObjectDBX Classes
 90
1153
 91
0
280
0
281
0
  0
CLASS
  1
SCALE
  2
AcDbScale
  3
ObjectDBX Classes
 90
1153
 91
0
280
0
281
0
  0
CLASS
  1
TABLESTYLE
  2
AcDbTableStyle
  3
ObjectDBX Classes
 90
4095
 91
0
280
0
281
0
  0
CLASS
  1
MLEADERSTYLE
  2
AcDbMLeaderStyle
  3
ACDB_MLEADERSTYLE_CLASS
 90
4095
 91
0
280
0
281
0
  0
CLASS
  1
DICTIONARYVAR
  2
AcDbDictionaryVar
  3
ObjectDBX Classes
 90
0
 91
0
280
0
281
0
  0
CLASS
  1
CELLSTYLEMAP
  2
AcDbCellStyleMap
  3
ObjectDBX Classes
 90
1152
 91
0
280
0
281
0
  0
CLASS
  1
MENTALRAYRENDERSETTINGS
  2
AcDbMentalRayRenderSettings
  3
SCENEOE
 90
1024
 91
0
280
0
281
0
  0
CLASS
  1
ACDBDETAILVIEWSTYLE
  2
AcDbDetailViewStyle
  3
ObjectDBX Classes
 90
1025
 91
0
280
0
281
0
  0
CLASS
  1
ACDBSECTIONVIEWSTYLE
  2
AcDbSectionViewStyle
  3
ObjectDBX Classes
 90
1025
 91
0
280
0
281
0
  0
CLASS
  1
RASTERVARIABLES
  2
AcDbRasterVariables
  3
ISM
 90
0
 91
0
280
0
281
0
  0
CLASS
  1
ACDBPLACEHOLDER
  2
AcDbPlaceHolder
  3
ObjectDBX Classes
 90
0
 91
0
280
0
281
0
  0
CLASS
  1
LAYOUT
  2
AcDbLayout
  3
ObjectDBX Classes
 90
0
 91
0
280
0
281
0
  0
ENDSEC
  0
SECTION
  2
TABLES
  0
TABLE
  2
VPORT
  5
8
330
0
100
AcDbSymbolTable
 70
1
  0
VPORT
  5
23
330
8
100
AcDbSymbolTableRecord
100
AcDbViewportTableRecord
  2
*Active
 70
0
 10
0.0
 20
0.0
 11
1.0
 21
1.0
 12
0.0
 22
0.0
 13
0.0
 23
0.0
 14
0.5
 24
0.5
 15
0.5
 25
0.5
 16
0.0
 26
0.0
 36
1.0
 17
0.0
 27
0.0
 37
0.0
 40
1000.0
 41
1.34
 42
50.0
 43
0.0
 44
0.0
 50
0.0
 51
0.0
 71
0
 72
1000
 73
1
 74
3
 75
0
 76
0
 77
0
 78
0
281
0
 65
0
146
0.0
  0
ENDTAB
  0
TABLE
  2
LTYPE
  5
2
330
0
100
AcDbSymbolTable
 70
21
  0
LTYPE
  5
24
330
2
100
AcDbSymbolTableRecord
100
AcDbLinetypeTableRecord
  2
ByBlock
 70
0
  3

 72
65
 73
0
 40
0.0
  0
LTYPE
  5
25
330
2
100
AcDbSymbolTableRecord
100
AcDbLinetypeTableRecord
  2
ByLayer
 70
0
  3

 72
65
 73
0
 40
0.0
  0
LTYPE
  5
26
330
2
100
AcDbSymbolTableRecord
100
AcDbLinetypeTableRecord
  2
Continuous
 70
0
  3

 72
65
 73
0
 40
0.0
  0
LTYPE
  5
2F
330
2
100
AcDbSymbolTableRecord
100
AcDbLinetypeTableRecord
  2
CENTER
 70
0
  3
Center ____ _ ____ _ ____ _ ____ _ ____ _ ____
 72
65
 73
4
 40
5.08
 49
3.175
 74
0
 49
-0.635
 74
0
 49
0.635
 74
0
 49
-0.635
 74
0
  0
LTYPE
  5
30
330
2
100
AcDbSymbolTableRecord
100
AcDbLinetypeTableRecord
  2
CENTERX2
 70
0
  3
Center (2x) ________  __  ________  __  ________
 72
65
 73
4
 40
8.89
 49
6.35
 74
0
 49
-0.635
 74
0
 49
1.27
 74
0
 49
-0.635
 74
0
  0
LTYPE
  5
31
330
2
100
AcDbSymbolTableRecord
100
AcDbLinetypeTableRecord
  2
CENTER2
 70
0
  3
Center (.5x) ____ _ ____ _ ____ _ ____ _ ____
 72
65
 73
4
 40
2.54
 49
1.587
 74
0
 49
-0.318
 74
0
 49
0.318
 74
0
 49
-0.318
 74
0
  0
LTYPE
  5
32
330
2
100
AcDbSymbolTableRecord
100
AcDbLinetypeTableRecord
  2
DASHED
 70
0
  3
Dashed __ __ __ __ __ __ __ __ __ __ __ __ __ _
 72
65
 73
2
 40
1.524
 49
1.27
 74
0
 49
-0.254
 74
0
  0
LTYPE
  5
33
330
2
100
AcDbSymbolTableRecord
100
AcDbLinetypeTableRecord
  2
DASHEDX2
 70
0
  3
Dashed (2x) ____  ____  ____  ____  ____  ____
 72
65
 73
2
 40
3.048
 49
2.54
 74
0
 49
-0.508
 74
0
  0
LTYPE
  5
34
330
2
100
AcDbSymbolTableRecord
100
AcDbLinetypeTableRecord
  2
DASHED2
 70
0
  3
Dashed (.5x) _ _ _ _ _ _ _ _ _ _ _ _ _ _
 72
65
 73
2
 40
0.762
 49
0.635
 74
0
 49
-0.127
 74
0
  0
LTYPE
  5
35
330
2
100
AcDbSymbolTableRecord
100
AcDbLinetypeTableRecord
  2
PHANTOM
 70
0
  3
Phantom ______  __  __  ______  __  __  ______
 72
65
 73
6
 40
6.35
 49
3.175
 74
0
 49
-0.635
 74
0
 49
0.635
 74
0
 49
-0.635
 74
0
 49
0.635
 74
0
 49
-0.635
 74
0
  0
LTYPE
  5
36
330
2
100
AcDbSymbolTableRecord
100
AcDbLinetypeTableRecord
  2
PHANTOMX2
 70
0
  3
Phantom (2x)____________    ____    ____    ____________
 72
65
 73
6
 40
10.795
 49
6.35
 74
0
 49
-0.635
 74
0
 49
1.27
 74
0
 49
-0.635
 74
0
 49
1.27
 74
0
 49
-0.635
 74
0
  0
LTYPE
  5
37
330
2
100
AcDbSymbolTableRecord
100
AcDbLinetypeTableRecord
  2
PHANTOM2
 70
0
  3
Phantom (.5x) ___ _ _ ___ _ _ ___ _ _ ___ _ _ ___
 72
65
 73
6
 40
3.175
 49
1.587
 74
0
 49
-0.318
 74
0
 49
0.318
 74
0
 49
-0.318
 74
0
 49
0.318
 74
0
 49
-0.318
 74
0
  0
LTYPE
  5
38
330
2
100
AcDbSymbolTableRecord
100
AcDbLinetypeTableRecord
  2
DASHDOT
 70
0
  3
Dash dot __ . __ . __ . __ . __ . __ . __ . __
 72
65
 73
4
 40
3.556
 49
2.54
 74
0
 49
-0.508
 74
0
 49
0.0
 74
0
 49
-0.508
 74
0
  0
LTYPE
  5
39
330
2
100
AcDbSymbolTableRecord
100
AcDbLinetypeTableRecord
  2
DASHDOTX2
 70
0
  3
Dash dot (2x) ____  .  ____  .  ____  .  ____
 72
65
 73
4
 40
6.096
 49
5.08
 74
0
 49
-0.508
 74
0
 49
0.0
 74
0
 49
-0.508
 74
0
  0
LTYPE
  5
3A
330
2
100
AcDbSymbolTableRecord
100
AcDbLinetypeTableRecord
  2
DASHDOT2
 70
0
  3
Dash dot (.5x) _ . _ . _ . _ . _ . _ . _ . _
 72
65
 73
4
 40
1.778
 49
1.27
 74
0
 49
-0.254
 74
0
 49
0.0
 74
0
 49
-0.254
 74
0
  0
LTYPE
  5
3B
330
2
100
AcDbSymbolTableRecord
100
AcDbLinetypeTableRecord
  2
DOT
 70
0
  3
Dot .  .  .  .  .  .  .  .  .  .  .  .  .  .  .  .
 72
65
 73
2
 40
0.508
 49
0.0
 74
0
 49
-0.508
 74
0
  0
LTYPE
  5
3C
330
2
100
AcDbSymbolTableRecord
100
AcDbLinetypeTableRecord
  2
DOTX2
 70
0
  3
Dot (2x) .    .    .    .    .    .    .    . 
 72
65
 73
2
 40
1.016
 49
0.0
 74
0
 49
-1.016
 74
0
  0
LTYPE
  5
3D
330
2
100
AcDbSymbolTableRecord
100
AcDbLinetypeTableRecord
  2
DOT2
 70
0
  3
Dot (.5) . . . . . . . . . . . . . . . . . . . 
 72
65
 73
2
 40
0.254
 49
0.0
 74
0
 49
-0.254
 74
0
  0
LTYPE
  5
3E
330
2
100
AcDbSymbolTableRecord
100
AcDbLinetypeTableRecord
  2
DIVIDE
 70
0
  3
Divide __ . . __ . . __ . . __ . . __ . . __
 72
65
 73
6
 40
4.064
 49
2.54
 74
0
 49
-0.508
 74
0
 49
0.0
 74
0
 49
-0.508
 74
0
 49
0.0
 74
0
 49
-0.508
 74
0
  0
LTYPE
  5
3F
330
2
100
AcDbSymbolTableRecord
100
AcDbLinetypeTableRecord
  2
DIVIDEX2
 70
0
  3
Divide (2x) ____  . .  ____  . .  ____  . .  ____
 72
65
 73
6
 40
6.604
 49
5.08
 74
0
 49
-0.508
 74
0
 49
0.0
 74
0
 49
-0.508
 74
0
 49
0.0
 74
0
 49
-0.508
 74
0
  0
LTYPE
  5
40
330
2
100
AcDbSymbolTableRecord
100
AcDbLinetypeTableRecord
  2
DIVIDE2
 70
0
  3
Divide(.5x) _ . _ . _ . _ . _ . _ . _ . _
 72
65
 73
6
 40
2.032
 49
1.27
 74
0
 49
-0.254
 74
0
 49
0.0
 74
0
 49
-0.254
 74
0
 49
0.0
 74
0
 49
-0.254
 74
0
  0
ENDTAB
  0
TABLE
  2
LAYER
  5
1
330
0
100
AcDbSymbolTable
 70
13
  0
LAYER
  5
27
330
1
100
AcDbSymbolTableRecord
100
AcDbLayerTableRecord
  2
0
 70
0
 62
7
  6
Continuous
370
-3
390
13
347
21
  0
LAYER
  5
28
330
1
100
AcDbSymbolTableRecord
100
AcDbLayerTableRecord
  2
Defpoints
 70
0
 62
7
  6
Continuous
290
0
370
-3
390
13
347
21
  0
LAYER
  5
42
330
1
100
AcDbSymbolTableRecord
100
AcDbLayerTableRecord
  2
Сетка
 70
0
 62
7
  6
Continuous
370
25
390
13
347
21
  0
LAYER
  5
43
330
1
100
AcDbSymbolTableRecord
100
AcDbLayerTableRecord
  2
ЛНР
 70
0
 62
1
  6
Continuous
370
70
390
13
347
21
  0
LAYER
  5
44
330
1
100
AcDbSymbolTableRecord
100
AcDbLayerTableRecord
  2
Отметки
 70
0
 62
5
  6
Continuous
370
18
390
13
347
21
  0
LAYER
  5
45
330
1
100
AcDbSymbolTableRecord
100
AcDbLayerTableRecord
  2
Номера_фигур
 70
0
 62
7
  6
Continuous
370
25
390
13
347
21
  0
LAYER
  5
46
330
1
100
AcDbSymbolTableRecord
100
AcDbLayerTableRecord
  2
ПВ_ПН
 70
0
 62
7
  6
Continuous
370
35
390
13
347
21
  0
LAYER
  5
47
330
1
100
AcDbSymbolTableRecord
100
AcDbLayerTableRecord
  2
ПВ_штриховка
 70
0
 62
8
  6
Continuous
370
13
390
13
347
21
  0
LAYER
  5
48
330
1
100
AcDbSymbolTableRecord
100
AcDbLayerTableRecord
  2
Размеры
 70
0
 62
3
  6
Continuous
370
18
390
13
347
21
  0
LAYER
  5
49
330
1
100
AcDbSymbolTableRecord
100
AcDbLayerTableRecord
  2
Рамка
 70
0
 62
7
  6
Continuous
370
70
390
13
347
21
  0
LAYER
  5
4A
330
1
100
AcDbSymbolTableRecord
100
AcDbLayerTableRecord
  2
Штамп
 70
0
 62
7
  6
Continuous
370
25
390
13
347
21
  0
LAYER
  5
4B
330
1
100
AcDbSymbolTableRecord
100
AcDbLayerTableRecord
  2
Надписи
 70
0
 62
7
  6
Continuous
370
25
390
13
347
21
  0
LAYER
  5
4C
330
1
100
AcDbSymbolTableRecord
100
AcDbLayerTableRecord
  2
Видовой_экран
 70
0
 62
8
  6
Continuous
290
0
370
13
390
13
347
21
  0
ENDTAB
  0
TABLE
  2
STYLE
  5
5
330
0
100
AcDbSymbolTable
 70
2
  0
STYLE
  5
29
330
5
100
AcDbSymbolTableRecord
100
AcDbTextStyleTableRecord
  2
Standard
 70
0
 40
0.0
 41
1.0
 50
0.0
 71
0
 42
2.5
  3
GOST_B.TTF
  4

1001
ACAD
1000
GOST type B
1071
34
  0
STYLE
  5
41
330
5
100
AcDbSymbolTableRecord
100
AcDbTextStyleTableRecord
  2
ГОСТ тип Б
 70
0
 40
0.0
 41
1.0
 50
0.0
 71
0
 42
2.5
  3
GOST_B.TTF
  4

1001
ACAD
1000
GOST type B
1071
34
  0
ENDTAB
  0
TABLE
  2
VIEW
  5
7
330
0
100
AcDbSymbolTable
 70
0
  0
ENDTAB
  0
TABLE
  2
UCS
  5
6
330
0
100
AcDbSymbolTable
 70
0
  0
ENDTAB
  0
TABLE
  2
APPID
  5
3
330
0
100
AcDbSymbolTable
 70
3
  0
APPID
  5
2A
330
3
100
AcDbSymbolTableRecord
100
AcDbRegAppTableRecord
  2
ACAD
 70
0
  0
APPID
  5
299
330
3
100
AcDbSymbolTableRecord
100
AcDbRegAppTableRecord
  2
HATCHBACKGROUNDCOLOR
 70
0
  0
APPID
  5
29A
330
3
100
AcDbSymbolTableRecord
100
AcDbRegAppTableRecord
  2
EZDXF
 70
0
  0
ENDTAB
  0
TABLE
  2
DIMSTYLE
  5
4
330
0
100
AcDbSymbolTable
 70
2
100
AcDbDimStyleTable
  0
DIMSTYLE
105
2B
330
4
100
AcDbSymbolTableRecord
100
AcDbDimStyleTableRecord
  2
Standard
 70
0
 40
1.0
 41
2.5
 42
0.625
 43
3.75
 44
1.25
 45
0.0
 46
0.0
 47
0.0
 48
0.0
 49
2.5
140
2.5
141
2.5
142
0.0
143
0.03937007874
144
1.0
145
0.0
146
1.0
147
0.625
148
0.0
 69
0
 70
0
 71
0
 72
0
 73
0
 74
0
 75
0
 76
0
 77
1
 78
8
 79
3
170
0
171
3
172
1
173
0
174
0
175
0
176
0
177
0
178
0
179
2
271
2
272
2
273
2
274
3
275
0
276
0
277
2
278
44
279
0
280
0
281
0
282
0
283
0
284
8
285
0
286
0
288
0
289
3
290
0
371
-2
372
-2
  0
DIMSTYLE
105
4D
330
4
100
AcDbSymbolTableRecord
100
AcDbDimStyleTableRecord
  2
М1-2000
 70
0
 40
2.0
 41
2.5
 42
0.0
 43
3.75
 44
1.5
 45
0.0
 46
0.0
 47
0.0
 48
0.0
 49
2.5
140
2.5
141
2.5
142
1.3
143
0.03937007874
144
1.0
145
0.0
146
1.0
147
0.8
148
0.0
 69
1
 70
0
 71
0
 72
0
 73
0
 74
0
 75
0
 76
0
 77
1
 78
8
 79
3
170
0
171
3
172
1
173
0
174
1
175
0
176
3
177
3
178
3
179
2
271
2
272
2
273
2
274
3
275
0
276
0
277
2
278
44
279
0
280
0
281
0
282
0
283
0
284
8
285
0
286
0
288
0
289
3
290
0
340
41
371
-2
372
-2
  0
ENDTAB
  0
TABLE
  2
BLOCK_RECORD
  5
9
330
0
100
AcDbSymbolTable
 70
29
  0
BLOCK_RECORD
  5
17
330
9
100
AcDbSymbolTableRecord
100
AcDbBlockTableRecord
  2
*Model_Space
340
1A
 70
0
280
1
281
0
  0
BLOCK_RECORD
  5
1B
330
9
100
AcDbSymbolTableRecord
100
AcDbBlockTableRecord
  2
*Paper_Space
340
1E
 70
0
280
1
281
0
  0
BLOCK_RECORD
  5
AC
330
9
100
AcDbSymbolTableRecord
100
AcDbBlockTableRecord
  2
*D1
340
0
 70
0
280
1
281
0
  0
BLOCK_RECORD
  5
B1
330
9
100
AcDbSymbolTableRecord
100
AcDbBlockTableRecord
  2
_OBLIQUE
340
0
 70
0
280
1
281
0
  0
BLOCK_RECORD
  5
BF
330
9
100
AcDbSymbolTableRecord
100
AcDbBlockTableRecord
  2
*D2
340
0
 70
0
280
1
281
0
  0
BLOCK_RECORD
  5
CE
330
9
100
AcDbSymbolTableRecord
100
AcDbBlockTableRecord
  2
*D3
340
0
 70
0
280
1
281
0
  0
BLOCK_RECORD
  5
DD
330
9
100
AcDbSymbolTableRecord
100
AcDbBlockTableRecord
  2
*D4
340
0
 70
0
280
1
281
0
  0
BLOCK_RECORD
  5
EC
330
9
100
AcDbSymbolTableRecord
100
AcDbBlockTableRecord
  2
*D5
340
0
 70
0
280
1
281
0
  0
BLOCK_RECORD
  5
FB
330
9
100
AcDbSymbolTableRecord
100
AcDbBlockTableRecord
  2
*D6
340
0
 70
0
280
1
281
0
  0
BLOCK_RECORD
  5
10A
330
9
100
AcDbSymbolTableRecord
100
AcDbBlockTableRecord
  2
*D7
340
0
 70
0
280
1
281
0
  0
BLOCK_RECORD
  5
119
330
9
100
AcDbSymbolTableRecord
100
AcDbBlockTableRecord
  2
*D8
340
0
 70
0
280
1
281
0
  0
BLOCK_RECORD
  5
128
330
9
100
AcDbSymbolTableRecord
100
AcDbBlockTableRecord
  2
*D9
340
0
 70
0
280
1
281
0
  0
BLOCK_RECORD
  5
137
330
9
100
AcDbSymbolTableRecord
100
AcDbBlockTableRecord
  2
*D10
340
0
 70
0
280
1
281
0
  0
BLOCK_RECORD
  5
146
330
9
100
AcDbSymbolTableRecord
100
AcDbBlockTableRecord
  2
*D11
340
0
 70
0
280
1
281
0
  0
BLOCK_RECORD
  5
155
330
9
100
AcDbSymbolTableRecord
100
AcDbBlockTableRecord
  2
*D12
340
0
 70
0
280
1
281
0
  0
BLOCK_RECORD
  5
164
330
9
100
AcDbSymbolTableRecord
100
AcDbBlockTableRecord
  2
*D13
340
0
 70
0
280
1
281
0
  0
BLOCK_RECORD
  5
173
330
9
100
AcDbSymbolTableRecord
100
AcDbBlockTableRecord
  2
*D14
340
0
 70
0
280
1
281
0
  0
BLOCK_RECORD
  5
182
330
9
100
AcDbSymbolTableRecord
100
AcDbBlockTableRecord
  2
*D15
340
0
 70
0
280
1
281
0
  0
BLOCK_RECORD
  5
191
330
9
100
AcDbSymbolTableRecord
100
AcDbBlockTableRecord
  2
*D16
340
0
 70
0
280
1
281
0
  0
BLOCK_RECORD
  5
1A0
330
9
100
AcDbSymbolTableRecord
100
AcDbBlockTableRecord
  2
*D17
340
0
 70
0
280
1
281
0
  0
BLOCK_RECORD
  5
1AF
330
9
100
AcDbSymbolTableRecord
100
AcDbBlockTableRecord
  2
*D18
340
0
 70
0
280
1
281
0
  0
BLOCK_RECORD
  5
1BE
330
9
100
AcDbSymbolTableRecord
100
AcDbBlockTableRecord
  2
*D19
340
0
 70
0
280
1
281
0
  0
BLOCK_RECORD
  5
1CD
330
9
100
AcDbSymbolTableRecord
100
AcDbBlockTableRecord
  2
*D20
340
0
 70
0
280
1
281
0
  0
BLOCK_RECORD
  5
1DC
330
9
100
AcDbSymbolTableRecord
100
AcDbBlockTableRecord
  2
*D21
340
0
 70
0
280
1
281
0
  0
BLOCK_RECORD
  5
1EB
330
9
100
AcDbSymbolTableRecord
100
AcDbBlockTableRecord
  2
*D22
340
0
 70
0
280
1
281
0
  0
BLOCK_RECORD
  5
1FA
330
9
100
AcDbSymbolTableRecord
100
AcDbBlockTableRecord
  2
*D23
340
0
 70
0
280
1
281
0
  0
BLOCK_RECORD
  5
209
330
9
100
AcDbSymbolTableRecord
100
AcDbBlockTableRecord
  2
*D24
340
0
 70
0
280
1
281
0
  0
BLOCK_RECORD
  5
218
330
9
100
AcDbSymbolTableRecord
100
AcDbBlockTableRecord
  2
*D25
340
0
 70
0
280
1
281
0
  0
BLOCK_RECORD
  5
227
330
9
100
AcDbSymbolTableRecord
100
AcDbBlockTableRecord
  2
*D26
340
0
 70
0
280
1
281
0
  0
ENDTAB
  0
ENDSEC
  0
SECTION
  2
BLOCKS
  0
BLOCK
  5
18
330
17
100
AcDbEntity
  8
0
100
AcDbBlockBegin
  2
*Model_Space
 70
0
 10
0.0
 20
0.0
 30
0.0
  3
*Model_Space
  1

  0
ENDBLK
  5
19
330
17
100
AcDbEntity
  8
0
100
AcDbBlockEnd
  0
BLOCK
  5
1C
330
1B
100
AcDbEntity
  8
0
100
AcDbBlockBegin
  2
*Paper_Space
 70
0
 10
0.0
 20
0.0
 30
0.0
  3
*Paper_Space
  1

  0
ENDBLK
  5
1D
330
1B
100
AcDbEntity
  8
0
100
AcDbBlockEnd
  0
BLOCK
  5
AD
330
AC
100
AcDbEntity
  8
0
100
AcDbBlockBegin
  2
*D1
 70
1
 10
0.0
 20
0.0
 30
0.0
  3
*D1
  1

  0
LINE
  5
AF
330
AC
100
AcDbEntity
  8
0
 62
3
100
AcDbLine
 10
0.0
 20
300.0
 30
0.0
 11
0.0
 21
317.0
 31
0.0
  0
LINE
  5
B0
330
AC
100
AcDbEntity
  8
0
 62
3
100
AcDbLine
 10
62.5
 20
300.0
 30
0.0
 11
62.5
 21
317.0
 31
0.0
  0
INSERT
  5
B5
330
AC
100
AcDbEntity
  8
Размеры
 62
3
100
AcDbBlockReference
  2
_OBLIQUE
 10
0.0
 20
314.0
 30
0.0
 41
5.2
 42
5.2
  0
INSERT
  5
B7
330
AC
100
AcDbEntity
  8
Размеры
 62
3
100
AcDbBlockReference
  2
_OBLIQUE
 10
62.5
 20
314.0
 30
0.0
 41
5.2
 42
5.2
  0
LINE
  5
B9
330
AC
100
AcDbEntity
  8
0
 62
3
100
AcDbLine
 10
0.0
 20
314.0
 30
0.0
 11
62.5
 21
314.0
 31
0.0
  0
MTEXT
  5
BA
330
AC
100
AcDbEntity
  8
Размеры
 62
3
100
AcDbMText
 10
31.25
 20
318.1
 30
0.0
 40
5.0
 71
5
  1
62,5
  7
ГОСТ тип Б
 45
1.1
 90
3
 63
1
  0
POINT
  5
BB
330
AC
100
AcDbEntity
  8
Defpoints
100
AcDbPoint
 10
0.0
 20
314.0
 30
0.0
  0
POINT
  5
BC
330
AC
100
AcDbEntity
  8
Defpoints
100
AcDbPoint
 10
0.0
 20
300.0
 30
0.0
  0
POINT
  5
BD
330
AC
100
AcDbEntity
  8
Defpoints
100
AcDbPoint
 10
62.5
 20
300.0
 30
0.0
  0
ENDBLK
  5
AE
330
AC
100
AcDbEntity
  8
0
100
AcDbBlockEnd
  0
BLOCK
  5
B2
330
B1
100
AcDbEntity
  8
0
100
AcDbBlockBegin
  2
_OBLIQUE
 70
0
 10
0.0
 20
0.0
 30
0.0
  3
_OBLIQUE
  1

  0
LINE
  5
B4
330
B1
100
AcDbEntity
  8
0
  6
BYBLOCK
 62
0
100
AcDbLine
 10
-0.5
 20
-0.5
 30
0.0
 11
0.5
 21
0.5
 31
0.0
  0
ENDBLK
  5
B3
330
B1
100
AcDbEntity
  8
0
100
AcDbBlockEnd
  0
BLOCK
  5
C0
330
BF
100
AcDbEntity
  8
0
100
AcDbBlockBegin
  2
*D2
 70
1
 10
0.0
 20
0.0
 30
0.0
  3
*D2
  1

  0
LINE
  5
C2
330
BF
100
AcDbEntity
  8
0
 62
3
100
AcDbLine
 10
62.5
 20
300.0
 30
0.0
 11
62.5
 21
317.0
 31
0.0
  0
LINE
  5
C3
330
BF
100
AcDbEntity
  8
0
 62
3
100
AcDbLine
 10
100.0
 20
300.0
 30
0.0
 11
100.0
 21
317.0
 31
0.0
  0
INSERT
  5
C4
330
BF
100
AcDbEntity
  8
Размеры
 62
3
100
AcDbBlockReference
  2
_OBLIQUE
 10
62.5
 20
314.0
 30
0.0
 41
5.2
 42
5.2
  0
INSERT
  5
C6
330
BF
100
AcDbEntity
  8
Размеры
 62
3
100
AcDbBlockReference
  2
_OBLIQUE
 10
100.0
 20
314.0
 30
0.0
 41
5.2
 42
5.2
  0
LINE
  5
C8
330
BF
100
AcDbEntity
  8
0
 62
3
100
AcDbLine
 10
62.5
 20
314.0
 30
0.0
 11
100.0
 21
314.0
 31
0.0
  0
MTEXT
  5
C9
330
BF
100
AcDbEntity
  8
Размеры
 62
3
100
AcDbMText
 10
81.25
 20
318.1
 30
0.0
 40
5.0
 71
5
  1
37,5
  7
ГОСТ тип Б
 45
1.1
 90
3
 63
1
  0
POINT
  5
CA
330
BF
100
AcDbEntity
  8
Defpoints
100
AcDbPoint
 10
62.5
 20
314.0
 30
0.0
  0
POINT
  5
CB
330
BF
100
AcDbEntity
  8
Defpoints
100
AcDbPoint
 10
62.5
 20
300.0
 30
0.0
  0
POINT
  5
CC
330
BF
100
AcDbEntity
  8
Defpoints
100
AcDbPoint
 10
100.0
 20
300.0
 30
0.0
  0
ENDBLK
  5
C1
330
BF
100
AcDbEntity
  8
0
100
AcDbBlockEnd
  0
BLOCK
  5
CF
330
CE
100
AcDbEntity
  8
0
100
AcDbBlockBegin
  2
*D3
 70
1
 10
0.0
 20
0.0
 30
0.0
  3
*D3
  1

  0
LINE
  5
D1
330
CE
100
AcDbEntity
  8
0
 62
3
100
AcDbLine
 10
100.0
 20
200.0
 30
0.0
 11
100.0
 21
193.0
 31
0.0
  0
LINE
  5
D2
330
CE
100
AcDbEntity
  8
0
 62
3
100
AcDbLine
 10
152.54237288135593
 20
200.0
 30
0.0
 11
152.54237288135593
 21
193.0
 31
0.0
  0
INSERT
  5
D3
330
CE
100
AcDbEntity
  8
Размеры
 62
3
100
AcDbBlockReference
  2
_OBLIQUE
 10
100.0
 20
196.0
 30
0.0
 41
5.2
 42
5.2
  0
INSERT
  5
D5
330
CE
100
AcDbEntity
  8
Размеры
 62
3
100
AcDbBlockReference
  2
_OBLIQUE
 10
152.54237288135593
 20
196.0
 30
0.0
 41
5.2
 42
5.2
  0
LINE
  5
D7
330
CE
100
AcDbEntity
  8
0
 62
3
100
AcDbLine
 10
100.0
 20
196.0
 30
0.0
 11
152.54237288135593
 21
196.0
 31
0.0
  0
MTEXT
  5
D8
330
CE
100
AcDbEntity
  8
Размеры
 62
3
100
AcDbMText
 10
126.27118644067797
 20
191.9
 30
0.0
 40
5.0
 71
5
  1
52,54
  7
ГОСТ тип Б
 45
1.1
 90
3
 63
1
  0
POINT
  5
D9
330
CE
100
AcDbEntity
  8
Defpoints
100
AcDbPoint
 10
100.0
 20
196.0
 30
0.0
  0
POINT
  5
DA
330
CE
100
AcDbEntity
  8
Defpoints
100
AcDbPoint
 10
100.0
 20
200.0
 30
0.0
  0
POINT
  5
DB
330
CE
100
AcDbEntity
  8
Defpoints
100
AcDbPoint
 10
152.54237288135593
 20
200.0
 30
0.0
  0
ENDBLK
  5
D0
330
CE
100
AcDbEntity
  8
0
100
AcDbBlockEnd
  0
BLOCK
  5
DE
330
DD
100
AcDbEntity
  8
0
100
AcDbBlockBegin
  2
*D4
 70
1
 10
0.0
 20
0.0
 30
0.0
  3
*D4
  1

  0
LINE
  5
E0
330
DD
100
AcDbEntity
  8
0
 62
3
100
AcDbLine
 10
152.54237288135593
 20
200.0
 30
0.0
 11
152.54237288135593
 21
207.0
 31
0.0
  0
LINE
  5
E1
330
DD
100
AcDbEntity
  8
0
 62
3
100
AcDbLine
 10
200.0
 20
200.0
 30
0.0
 11
200.0
 21
207.0
 31
0.0
  0
INSERT
  5
E2
330
DD
100
AcDbEntity
  8
Размеры
 62
3
100
AcDbBlockReference
  2
_OBLIQUE
 10
152.54237288135593
 20
204.0
 30
0.0
 41
5.2
 42
5.2
  0
INSERT
  5
E4
330
DD
100
AcDbEntity
  8
Размеры
 62
3
100
AcDbBlockReference
  2
_OBLIQUE
 10
200.0
 20
204.0
 30
0.0
 41
5.2
 42
5.2
  0
LINE
  5
E6
330
DD
100
AcDbEntity
  8
0
 62
3
100
AcDbLine
 10
152.54237288135593
 20
204.0
 30
0.0
 11
200.0
 21
204.0
 31
0.0
  0
MTEXT
  5
E7
330
DD
100
AcDbEntity
  8
Размеры
 62
3
100
AcDbMText
 10
176.27118644067798
 20
208.1
 30
0.0
 40
5.0
 71
5
  1
47,46
  7
ГОСТ тип Б
 45
1.1
 90
3
 63
1
  0
POINT
  5
E8
330
DD
100
AcDbEntity
  8
Defpoints
100
AcDbPoint
 10
152.54237288135593
 20
204.0
 30
0.0
  0
POINT
  5
E9
330
DD
100
AcDbEntity
  8
Defpoints
100
AcDbPoint
 10
152.54237288135593
 20
200.0
 30
0.0
  0
POINT
  5
EA
330
DD
100
AcDbEntity
  8
Defpoints
100
AcDbPoint
 10
200.0
 20
200.0
 30
0.0
  0
ENDBLK
  5
DF
330
DD
100
AcDbEntity
  8
0
100
AcDbBlockEnd
  0
BLOCK
  5
ED
330
EC
100
AcDbEntity
  8
0
100
AcDbBlockBegin
  2
*D5
 70
1
 10
0.0
 20
0.0
 30
0.0
  3
*D5
  1

  0
LINE
  5
EF
330
EC
100
AcDbEntity
  8
0
 62
3
100
AcDbLine
 10
200.0
 20
100.0
 30
0.0
 11
200.0
 21
93.0
 31
0.0
  0
LINE
  5
F0
330
EC
100
AcDbEntity
  8
0
 62
3
100
AcDbLine
 10
266.6666666666667
 20
100.0
 30
0.0
 11
266.6666666666667
 21
93.0
 31
0.0
  0
INSERT
  5
F1
330
EC
100
AcDbEntity
  8
Размеры
 62
3
100
AcDbBlockReference
  2
_OBLIQUE
 10
200.0
 20
96.0
 30
0.0
 41
5.2
 42
5.2
  0
INSERT
  5
F3
330
EC
100
AcDbEntity
  8
Размеры
 62
3
100
AcDbBlockReference
  2
_OBLIQUE
 10
266.6666666666667
 20
96.0
 30
0.0
 41
5.2
 42
5.2
  0
LINE
  5
F5
330
EC
100
AcDbEntity
  8
0
 62
3
100
AcDbLine
 10
200.0
 20
96.0
 30
0.0
 11
266.6666666666667
 21
96.0
 31
0.0
  0
MTEXT
  5
F6
330
EC
100
AcDbEntity
  8
Размеры
 62
3
100
AcDbMText
 10
233.33333333333334
 20
91.9
 30
0.0
 40
5.0
 71
5
  1
66,67
  7
ГОСТ тип Б
 45
1.1
 90
3
 63
1
  0
POINT
  5
F7
330
EC
100
AcDbEntity
  8
Defpoints
100
AcDbPoint
 10
200.0
 20
96.0
 30
0.0
  0
POINT
  5
F8
330
EC
100
AcDbEntity
  8
Defpoints
100
AcDbPoint
 10
200.0
 20
100.0
 30
0.0
  0
POINT
  5
F9
330
EC
100
AcDbEntity
  8
Defpoints
100
AcDbPoint
 10
266.6666666666667
 20
100.0
 30
0.0
  0
ENDBLK
  5
EE
330
EC
100
AcDbEntity
  8
0
100
AcDbBlockEnd
  0
BLOCK
  5
FC
330
FB
100
AcDbEntity
  8
0
100
AcDbBlockBegin
  2
*D6
 70
1
 10
0.0
 20
0.0
 30
0.0
  3
*D6
  1

  0
LINE
  5
FE
330
FB
100
AcDbEntity
  8
0
 62
3
100
AcDbLine
 10
266.6666666666667
 20
100.0
 30
0.0
 11
266.6666666666667
 21
107.0
 31
0.0
  0
LINE
  5
FF
330
FB
100
AcDbEntity
  8
0
 62
3
100
AcDbLine
 10
300.0
 20
100.0
 30
0.0
 11
300.0
 21
107.0
 31
0.0
  0
INSERT
  5
100
330
FB
100
AcDbEntity
  8
Размеры
 62
3
100
AcDbBlockReference
  2
_OBLIQUE
 10
266.6666666666667
 20
104.0
 30
0.0
 41
5.2
 42
5.2
  0
INSERT
  5
102
330
FB
100
AcDbEntity
  8
Размеры
 62
3
100
AcDbBlockReference
  2
_OBLIQUE
 10
300.0
 20
104.0
 30
0.0
 41
5.2
 42
5.2
  0
LINE
  5
104
330
FB
100
AcDbEntity
  8
0
 62
3
100
AcDbLine
 10
266.6666666666667
 20
104.0
 30
0.0
 11
300.0
 21
104.0
 31
0.0
  0
MTEXT
  5
105
330
FB
100
AcDbEntity
  8
Размеры
 62
3
100
AcDbMText
 10
283.33333333333337
 20
108.1
 30
0.0
 40
5.0
 71
5
  1
33,33
  7
ГОСТ тип Б
 45
1.1
 90
3
 63
1
  0
POINT
  5
106
330
FB
100
AcDbEntity
  8
Defpoints
100
AcDbPoint
 10
266.6666666666667
 20
104.0
 30
0.0
  0
POINT
  5
107
330
FB
100
AcDbEntity
  8
Defpoints
100
AcDbPoint
 10
266.6666666666667
 20
100.0
 30
0.0
  0
POINT
  5
108
330
FB
100
AcDbEntity
  8
Defpoints
100
AcDbPoint
 10
300.0
 20
100.0
 30
0.0
  0
ENDBLK
  5
FD
330
FB
100
AcDbEntity
  8
0
100
AcDbBlockEnd
  0
BLOCK
  5
10B
330
10A
100
AcDbEntity
  8
0
100
AcDbBlockBegin
  2
*D7
 70
1
 10
0.0
 20
0.0
 30
0.0
  3
*D7
  1

  0
LINE
  5
10D
330
10A
100
AcDbEntity
  8
0
 62
3
100
AcDbLine
 10
400.0
 20
0.0
 30
0.0
 11
400.0
 21
-7.0
 31
0.0
  0
LINE
  5
10E
330
10A
100
AcDbEntity
  8
0
 62
3
100
AcDbLine
 10
475.43859649122805
 20
0.0
 30
0.0
 11
475.43859649122805
 21
-7.0
 31
0.0
  0
INSERT
  5
10F
330
10A
100
AcDbEntity
  8
Размеры
 62
3
100
AcDbBlockReference
  2
_OBLIQUE
 10
400.0
 20
-4.0
 30
0.0
 41
5.2
 42
5.2
  0
INSERT
  5
111
330
10A
100
AcDbEntity
  8
Размеры
 62
3
100
AcDbBlockReference
  2
_OBLIQUE
 10
475.43859649122805
 20
-4.0
 30
0.0
 41
5.2
 42
5.2
  0
LINE
  5
113
330
10A
100
AcDbEntity
  8
0
 62
3
100
AcDbLine
 10
400.0
 20
-4.0
 30
0.0
 11
475.43859649122805
 21
-4.0
 31
0.0
  0
MTEXT
  5
114
330
10A
100
AcDbEntity
  8
Размеры
 62
3
100
AcDbMText
 10
437.719298245614
 20
-8.1
 30
0.0
 40
5.0
 71
5
  1
75,44
  7
ГОСТ тип Б
 45
1.1
 90
3
 63
1
  0
POINT
  5
115
330
10A
100
AcDbEntity
  8
Defpoints
100
AcDbPoint
 10
400.0
 20
-4.0
 30
0.0
  0
POINT
  5
116
330
10A
100
AcDbEntity
  8
Defpoints
100
AcDbPoint
 10
400.0
 20
0.0
 30
0.0
  0
POINT
  5
117
330
10A
100
AcDbEntity
  8
Defpoints
100
AcDbPoint
 10
475.43859649122805
 20
0.0
 30
0.0
  0
ENDBLK
  5
10C
330
10A
100
AcDbEntity
  8
0
100
AcDbBlockEnd
  0
BLOCK
  5
11A
330
119
100
AcDbEntity
  8
0
100
AcDbBlockBegin
  2
*D8
 70
1
 10
0.0
 20
0.0
 30
0.0
  3
*D8
  1

  0
LINE
  5
11C
330
119
100
AcDbEntity
  8
0
 62
3
100
AcDbLine
 10
475.43859649122805
 20
0.0
 30
0.0
 11
475.43859649122805
 21
-7.0
 31
0.0
  0
LINE
  5
11D
330
119
100
AcDbEntity
  8
0
 62
3
100
AcDbLine
 10
500.0
 20
0.0
 30
0.0
 11
500.0
 21
-7.0
 31
0.0
  0
INSERT
  5
11E
330
119
100
AcDbEntity
  8
Размеры
 62
3
100
AcDbBlockReference
  2
_OBLIQUE
 10
475.43859649122805
 20
-4.0
 30
0.0
 41
5.2
 42
5.2
  0
INSERT
  5
120
330
119
100
AcDbEntity
  8
Размеры
 62
3
100
AcDbBlockReference
  2
_OBLIQUE
 10
500.0
 20
-4.0
 30
0.0
 41
5.2
 42
5.2
  0
LINE
  5
122
330
119
100
AcDbEntity
  8
0
 62
3
100
AcDbLine
 10
475.43859649122805
 20
-4.0
 30
0.0
 11
500.0
 21
-4.0
 31
0.0
  0
MTEXT
  5
123
330
119
100
AcDbEntity
  8
Размеры
 62
3
100
AcDbMText
 10
487.719298245614
 20
-8.1
 30
0.0
 40
5.0
 71
5
  1
24,56
  7
ГОСТ тип Б
 45
1.1
 90
3
 63
1
  0
POINT
  5
124
330
119
100
AcDbEntity
  8
Defpoints
100
AcDbPoint
 10
475.43859649122805
 20
-4.0
 30
0.0
  0
POINT
  5
125
330
119
100
AcDbEntity
  8
Defpoints
100
AcDbPoint
 10
475.43859649122805
 20
0.0
 30
0.0
  0
POINT
  5
126
330
119
100
AcDbEntity
  8
Defpoints
100
AcDbPoint
 10
500.0
 20
0.0
 30
0.0
  0
ENDBLK
  5
11B
330
119
100
AcDbEntity
  8
0
100
AcDbBlockEnd
  0
BLOCK
  5
129
330
128
100
AcDbEntity
  8
0
100
AcDbBlockBegin
  2
*D9
 70
1
 10
0.0
 20
0.0
 30
0.0
  3
*D9
  1

  0
LINE
  5
12B
330
128
100
AcDbEntity
  8
0
 62
3
100
AcDbLine
 10
100.0
 20
267.39130434782606
 30
0.0
 11
107.0
 21
267.39130434782606
 31
0.0
  0
LINE
  5
12C
330
128
100
AcDbEntity
  8
0
 62
3
100
AcDbLine
 10
100.0
 20
300.0
 30
0.0
 11
107.0
 21
300.0
 31
0.0
  0
INSERT
  5
12D
330
128
100
AcDbEntity
  8
Размеры
 62
3
100
AcDbBlockReference
  2
_OBLIQUE
 10
104.0
 20
267.39130434782606
 30
0.0
 41
5.2
 42
5.2
 50
90.0
  0
INSERT
  5
12F
330
128
100
AcDbEntity
  8
Размеры
 62
3
100
AcDbBlockReference
  2
_OBLIQUE
 10
104.0
 20
300.0
 30
0.0
 41
5.2
 42
5.2
 50
90.0
  0
LINE
  5
131
330
128
100
AcDbEntity
  8
0
 62
3
100
AcDbLine
 10
104.0
 20
267.39130434782606
 30
0.0
 11
104.0
 21
300.0
 31
0.0
  0
MTEXT
  5
132
330
128
100
AcDbEntity
  8
Размеры
 62
3
100
AcDbMText
 10
108.1
 20
283.695652173913
 30
0.0
 40
5.0
 71
5
  1
32,61
  7
ГОСТ тип Б
 50
90.0
 45
1.1
 90
3
 63
1
  0
POINT
  5
133
330
128
100
AcDbEntity
  8
Defpoints
100
AcDbPoint
 10
104.0
 20
267.39130434782606
 30
0.0
  0
POINT
  5
134
330
128
100
AcDbEntity
  8
Defpoints
100
AcDbPoint
 10
100.0
 20
267.39130434782606
 30
0.0
  0
POINT
  5
135
330
128
100
AcDbEntity
  8
Defpoints
100
AcDbPoint
 10
100.0
 20
300.0
 30
0.0
  0
ENDBLK
  5
12A
330
128
100
AcDbEntity
  8
0
100
AcDbBlockEnd
  0
BLOCK
  5
138
330
137
100
AcDbEntity
  8
0
100
AcDbBlockBegin
  2
*D10
 70
1
 10
0.0
 20
0.0
 30
0.0
  3
*D10
  1

  0
LINE
  5
13A
330
137
100
AcDbEntity
  8
0
 62
3
100
AcDbLine
 10
100.0
 20
200.0
 30
0.0
 11
93.0
 21
200.0
 31
0.0
  0
LINE
  5
13B
330
137
100
AcDbEntity
  8
0
 62
3
100
AcDbLine
 10
100.0
 20
267.39130434782606
 30
0.0
 11
93.0
 21
267.39130434782606
 31
0.0
  0
INSERT
  5
13C
330
137
100
AcDbEntity
  8
Размеры
 62
3
100
AcDbBlockReference
  2
_OBLIQUE
 10
96.0
 20
200.0
 30
0.0
 41
5.2
 42
5.2
 50
90.0
  0
INSERT
  5
13E
330
137
100
AcDbEntity
  8
Размеры
 62
3
100
AcDbBlockReference
  2
_OBLIQUE
 10
96.0
 20
267.39130434782606
 30
0.0
 41
5.2
 42
5.2
 50
90.0
  0
LINE
  5
140
330
137
100
AcDbEntity
  8
0
 62
3
100
AcDbLine
 10
96.0
 20
200.0
 30
0.0
 11
96.0
 21
267.39130434782606
 31
0.0
  0
MTEXT
  5
141
330
137
100
AcDbEntity
  8
Размеры
 62
3
100
AcDbMText
 10
91.9
 20
233.69565217391303
 30
0.0
 40
5.0
 71
5
  1
67,39
  7
ГОСТ тип Б
 50
90.0
 45
1.1
 90
3
 63
1
  0
POINT
  5
142
330
137
100
AcDbEntity
  8
Defpoints
100
AcDbPoint
 10
96.0
 20
200.0
 30
0.0
  0
POINT
  5
143
330
137
100
AcDbEntity
  8
Defpoints
100
AcDbPoint
 10
100.0
 20
200.0
 30
0.0
  0
POINT
  5
144
330
137
100
AcDbEntity
  8
Defpoints
100
AcDbPoint
 10
100.0
 20
267.39130434782606
 30
0.0
  0
ENDBLK
  5
139
330
137
100
AcDbEntity
  8
0
100
AcDbBlockEnd
  0
BLOCK
  5
147
330
146
100
AcDbEntity
  8
0
100
AcDbBlockBegin
  2
*D11
 70
1
 10
0.0
 20
0.0
 30
0.0
  3
*D11
  1

  0
LINE
  5
149
330
146
100
AcDbEntity
  8
0
 62
3
100
AcDbLine
 10
200.0
 20
150.0
 30
0.0
 11
207.0
 21
150.0
 31
0.0
  0
LINE
  5
14A
330
146
100
AcDbEntity
  8
0
 62
3
100
AcDbLine
 10
200.0
 20
200.0
 30
0.0
 11
207.0
 21
200.0
 31
0.0
  0
INSERT
  5
14B
330
146
100
AcDbEntity
  8
Размеры
 62
3
100
AcDbBlockReference
  2
_OBLIQUE
 10
204.0
 20
150.0
 30
0.0
 41
5.2
 42
5.2
 50
90.0
  0
INSERT
  5
14D
330
146
100
AcDbEntity
  8
Размеры
 62
3
100
AcDbBlockReference
  2
_OBLIQUE
 10
204.0
 20
200.0
 30
0.0
 41
5.2
 42
5.2
 50
90.0
  0
LINE
  5
14F
330
146
100
AcDbEntity
  8
0
 62
3
100
AcDbLine
 10
204.0
 20
150.0
 30
0.0
 11
204.0
 21
200.0
 31
0.0
  0
MTEXT
  5
150
330
146
100
AcDbEntity
  8
Размеры
 62
3
100
AcDbMText
 10
208.1
 20
175.0
 30
0.0
 40
5.0
 71
5
  1
50
  7
ГОСТ тип Б
 50
90.0
 45
1.1
 90
3
 63
1
  0
POINT
  5
151
330
146
100
AcDbEntity
  8
Defpoints
100
AcDbPoint
 10
204.0
 20
150.0
 30
0.0
  0
POINT
  5
152
330
146
100
AcDbEntity
  8
Defpoints
100
AcDbPoint
 10
200.0
 20
150.0
 30
0.0
  0
POINT
  5
153
330
146
100
AcDbEntity
  8
Defpoints
100
AcDbPoint
 10
200.0
 20
200.0
 30
0.0
  0
ENDBLK
  5
148
330
146
100
AcDbEntity
  8
0
100
AcDbBlockEnd
  0
BLOCK
  5
156
330
155
100
AcDbEntity
  8
0
100
AcDbBlockBegin
  2
*D12
 70
1
 10
0.0
 20
0.0
 30
0.0
  3
*D12
  1

  0
LINE
  5
158
330
155
100
AcDbEntity
  8
0
 62
3
100
AcDbLine
 10
200.0
 20
100.0
 30
0.0
 11
193.0
 21
100.0
 31
0.0
  0
LINE
  5
159
330
155
100
AcDbEntity
  8
0
 62
3
100
AcDbLine
 10
200.0
 20
150.0
 30
0.0
 11
193.0
 21
150.0
 31
0.0
  0
INSERT
  5
15A
330
155
100
AcDbEntity
  8
Размеры
 62
3
100
AcDbBlockReference
  2
_OBLIQUE
 10
196.0
 20
100.0
 30
0.0
 41
5.2
 42
5.2
 50
90.0
  0
INSERT
  5
15C
330
155
100
AcDbEntity
  8
Размеры
 62
3
100
AcDbBlockReference
  2
_OBLIQUE
 10
196.0
 20
150.0
 30
0.0
 41
5.2
 42
5.2
 50
90.0
  0
LINE
  5
15E
330
155
100
AcDbEntity
  8
0
 62
3
100
AcDbLine
 10
196.0
 20
100.0
 30
0.0
 11
196.0
 21
150.0
 31
0.0
  0
MTEXT
  5
15F
330
155
100
AcDbEntity
  8
Размеры
 62
3
100
AcDbMText
 10
191.9
 20
125.0
 30
0.0
 40
5.0
 71
5
  1
50
  7
ГОСТ тип Б
 50
90.0
 45
1.1
 90
3
 63
1
  0
POINT
  5
160
330
155
100
AcDbEntity
  8
Defpoints
100
AcDbPoint
 10
196.0
 20
100.0
 30
0.0
  0
POINT
  5
161
330
155
100
AcDbEntity
  8
Defpoints
100
AcDbPoint
 10
200.0
 20
100.0
 30
0.0
  0
POINT
  5
162
330
155
100
AcDbEntity
  8
Defpoints
100
AcDbPoint
 10
200.0
 20
150.0
 30
0.0
  0
ENDBLK
  5
157
330
155
100
AcDbEntity
  8
0
100
AcDbBlockEnd
  0
BLOCK
  5
165
330
164
100
AcDbEntity
  8
0
100
AcDbBlockBegin
  2
*D13
 70
1
 10
0.0
 20
0.0
 30
0.0
  3
*D13
  1

  0
LINE
  5
167
330
164
100
AcDbEntity
  8
0
 62
3
100
AcDbLine
 10
300.0
 20
66.66666666666667
 30
0.0
 11
307.0
 21
66.66666666666667
 31
0.0
  0
LINE
  5
168
330
164
100
AcDbEntity
  8
0
 62
3
100
AcDbLine
 10
300.0
 20
100.0
 30
0.0
 11
307.0
 21
100.0
 31
0.0
  0
INSERT
  5
169
330
164
100
AcDbEntity
  8
Размеры
 62
3
100
AcDbBlockReference
  2
_OBLIQUE
 10
304.0
 20
66.66666666666667
 30
0.0
 41
5.2
 42
5.2
 50
90.0
  0
INSERT
  5
16B
330
164
100
AcDbEntity
  8
Размеры
 62
3
100
AcDbBlockReference
  2
_OBLIQUE
 10
304.0
 20
100.0
 30
0.0
 41
5.2
 42
5.2
 50
90.0
  0
LINE
  5
16D
330
164
100
AcDbEntity
  8
0
 62
3
100
AcDbLine
 10
304.0
 20
66.66666666666667
 30
0.0
 11
304.0
 21
100.0
 31
0.0
  0
MTEXT
  5
16E
330
164
100
AcDbEntity
  8
Размеры
 62
3
100
AcDbMText
 10
308.1
 20
83.33333333333334
 30
0.0
 40
5.0
 71
5
  1
33,33
  7
ГОСТ тип Б
 50
90.0
 45
1.1
 90
3
 63
1
  0
POINT
  5
16F
330
164
100
AcDbEntity
  8
Defpoints
100
AcDbPoint
 10
304.0
 20
66.66666666666667
 30
0.0
  0
POINT
  5
170
330
164
100
AcDbEntity
  8
Defpoints
100
AcDbPoint
 10
300.0
 20
66.66666666666667
 30
0.0
  0
POINT
  5
171
330
164
100
AcDbEntity
  8
Defpoints
100
AcDbPoint
 10
300.0
 20
100.0
 30
0.0
  0
ENDBLK
  5
166
330
164
100
AcDbEntity
  8
0
100
AcDbBlockEnd
  0
BLOCK
  5
174
330
173
100
AcDbEntity
  8
0
100
AcDbBlockBegin
  2
*D14
 70
1
 10
0.0
 20
0.0
 30
0.0
  3
*D14
  1

  0
LINE
  5
176
330
173
100
AcDbEntity
  8
0
 62
3
100
AcDbLine
 10
300.0
 20
0.0
 30
0.0
 11
293.0
 21
0.0
 31
0.0
  0
LINE
  5
177
330
173
100
AcDbEntity
  8
0
 62
3
100
AcDbLine
 10
300.0
 20
66.66666666666667
 30
0.0
 11
293.0
 21
66.66666666666667
 31
0.0
  0
INSERT
  5
178
330
173
100
AcDbEntity
  8
Размеры
 62
3
100
AcDbBlockReference
  2
_OBLIQUE
 10
296.0
 20
0.0
 30
0.0
 41
5.2
 42
5.2
 50
90.0
  0
INSERT
  5
17A
330
173
100
AcDbEntity
  8
Размеры
 62
3
100
AcDbBlockReference
  2
_OBLIQUE
 10
296.0
 20
66.66666666666667
 30
0.0
 41
5.2
 42
5.2
 50
90.0
  0
LINE
  5
17C
330
173
100
AcDbEntity
  8
0
 62
3
100
AcDbLine
 10
296.0
 20
0.0
 30
0.0
 11
296.0
 21
66.66666666666667
 31
0.0
  0
MTEXT
  5
17D
330
173
100
AcDbEntity
  8
Размеры
 62
3
100
AcDbMText
 10
291.9
 20
33.333333333333336
 30
0.0
 40
5.0
 71
5
  1
66,67
  7
ГОСТ тип Б
 50
90.0
 45
1.1
 90
3
 63
1
  0
POINT
  5
17E
330
173
100
AcDbEntity
  8
Defpoints
100
AcDbPoint
 10
296.0
 20
0.0
 30
0.0
  0
POINT
  5
17F
330
173
100
AcDbEntity
  8
Defpoints
100
AcDbPoint
 10
300.0
 20
0.0
 30
0.0
  0
POINT
  5
180
330
173
100
AcDbEntity
  8
Defpoints
100
AcDbPoint
 10
300.0
 20
66.66666666666667
 30
0.0
  0
ENDBLK
  5
175
330
173
100
AcDbEntity
  8
0
100
AcDbBlockEnd
  0
BLOCK
  5
183
330
182
100
AcDbEntity
  8
0
100
AcDbBlockBegin
  2
*D15
 70
1
 10
0.0
 20
0.0
 30
0.0
  3
*D15
  1

  0
LINE
  5
185
330
182
100
AcDbEntity
  8
0
 62
3
100
AcDbLine
 10
400.0
 20
54.43037974683544
 30
0.0
 11
407.0
 21
54.43037974683544
 31
0.0
  0
LINE
  5
186
330
182
100
AcDbEntity
  8
0
 62
3
100
AcDbLine
 10
400.0
 20
100.0
 30
0.0
 11
407.0
 21
100.0
 31
0.0
  0
INSERT
  5
187
330
182
100
AcDbEntity
  8
Размеры
 62
3
100
AcDbBlockReference
  2
_OBLIQUE
 10
404.0
 20
54.43037974683544
 30
0.0
 41
5.2
 42
5.2
 50
90.0
  0
INSERT
  5
189
330
182
100
AcDbEntity
  8
Размеры
 62
3
100
AcDbBlockReference
  2
_OBLIQUE
 10
404.0
 20
100.0
 30
0.0
 41
5.2
 42
5.2
 50
90.0
  0
LINE
  5
18B
330
182
100
AcDbEntity
  8
0
 62
3
100
AcDbLine
 10
404.0
 20
54.43037974683544
 30
0.0
 11
404.0
 21
100.0
 31
0.0
  0
MTEXT
  5
18C
330
182
100
AcDbEntity
  8
Размеры
 62
3
100
AcDbMText
 10
408.1
 20
77.21518987341773
 30
0.0
 40
5.0
 71
5
  1
45,57
  7
ГОСТ тип Б
 50
90.0
 45
1.1
 90
3
 63
1
  0
POINT
  5
18D
330
182
100
AcDbEntity
  8
Defpoints
100
AcDbPoint
 10
404.0
 20
54.43037974683544
 30
0.0
  0
POINT
  5
18E
330
182
100
AcDbEntity
  8
Defpoints
100
AcDbPoint
 10
400.0
 20
54.43037974683544
 30
0.0
  0
POINT
  5
18F
330
182
100
AcDbEntity
  8
Defpoints
100
AcDbPoint
 10
400.0
 20
100.0
 30
0.0
  0
ENDBLK
  5
184
330
182
100
AcDbEntity
  8
0
100
AcDbBlockEnd
  0
BLOCK
  5
192
330
191
100
AcDbEntity
  8
0
100
AcDbBlockBegin
  2
*D16
 70
1
 10
0.0
 20
0.0
 30
0.0
  3
*D16
  1

  0
LINE
  5
194
330
191
100
AcDbEntity
  8
0
 62
3
100
AcDbLine
 10
400.0
 20
0.0
 30
0.0
 11
393.0
 21
0.0
 31
0.0
  0
LINE
  5
195
330
191
100
AcDbEntity
  8
0
 62
3
100
AcDbLine
 10
400.0
 20
54.43037974683544
 30
0.0
 11
393.0
 21
54.43037974683544
 31
0.0
  0
INSERT
  5
196
330
191
100
AcDbEntity
  8
Размеры
 62
3
100
AcDbBlockReference
  2
_OBLIQUE
 10
396.0
 20
0.0
 30
0.0
 41
5.2
 42
5.2
 50
90.0
  0
INSERT
  5
198
330
191
100
AcDbEntity
  8
Размеры
 62
3
100
AcDbBlockReference
  2
_OBLIQUE
 10
396.0
 20
54.43037974683544
 30
0.0
 41
5.2
 42
5.2
 50
90.0
  0
LINE
  5
19A
330
191
100
AcDbEntity
  8
0
 62
3
100
AcDbLine
 10
396.0
 20
0.0
 30
0.0
 11
396.0
 21
54.43037974683544
 31
0.0
  0
MTEXT
  5
19B
330
191
100
AcDbEntity
  8
Размеры
 62
3
100
AcDbMText
 10
391.9
 20
27.21518987341772
 30
0.0
 40
5.0
 71
5
  1
54,43
  7
ГОСТ тип Б
 50
90.0
 45
1.1
 90
3
 63
1
  0
POINT
  5
19C
330
191
100
AcDbEntity
  8
Defpoints
100
AcDbPoint
 10
396.0
 20
0.0
 30
0.0
  0
POINT
  5
19D
330
191
100
AcDbEntity
  8
Defpoints
100
AcDbPoint
 10
400.0
 20
0.0
 30
0.0
  0
POINT
  5
19E
330
191
100
AcDbEntity
  8
Defpoints
100
AcDbPoint
 10
400.0
 20
54.43037974683544
 30
0.0
  0
ENDBLK
  5
193
330
191
100
AcDbEntity
  8
0
100
AcDbBlockEnd
  0
BLOCK
  5
1A1
330
1A0
100
AcDbEntity
  8
0
100
AcDbBlockBegin
  2
*D17
 70
1
 10
0.0
 20
0.0
 30
0.0
  3
*D17
  1

  0
LINE
  5
1A3
330
1A0
100
AcDbEntity
  8
0
 62
3
100
AcDbLine
 10
0.0
 20
0.0
 30
0.0
 11
0.0
 21
-25.0
 31
0.0
  0
LINE
  5
1A4
330
1A0
100
AcDbEntity
  8
0
 62
3
100
AcDbLine
 10
100.0
 20
0.0
 30
0.0
 11
100.0
 21
-25.0
 31
0.0
  0
INSERT
  5
1A5
330
1A0
100
AcDbEntity
  8
Размеры
 62
3
100
AcDbBlockReference
  2
_OBLIQUE
 10
0.0
 20
-22.0
 30
0.0
 41
5.2
 42
5.2
  0
INSERT
  5
1A7
330
1A0
100
AcDbEntity
  8
Размеры
 62
3
100
AcDbBlockReference
  2
_OBLIQUE
 10
100.0
 20
-22.0
 30
0.0
 41
5.2
 42
5.2
  0
LINE
  5
1A9
330
1A0
100
AcDbEntity
  8
0
 62
3
100
AcDbLine
 10
0.0
 20
-22.0
 30
0.0
 11
100.0
 21
-22.0
 31
0.0
  0
MTEXT
  5
1AA
330
1A0
100
AcDbEntity
  8
Размеры
 62
3
100
AcDbMText
 10
50.0
 20
-17.9
 30
0.0
 40
5.0
 71
5
  1
100
  7
ГОСТ тип Б
 45
1.1
 90
3
 63
1
  0
POINT
  5
1AB
330
1A0
100
AcDbEntity
  8
Defpoints
100
AcDbPoint
 10
0.0
 20
-22.0
 30
0.0
  0
POINT
  5
1AC
330
1A0
100
AcDbEntity
  8
Defpoints
100
AcDbPoint
 10
0.0
 20
0.0
 30
0.0
  0
POINT
  5
1AD
330
1A0
100
AcDbEntity
  8
Defpoints
100
AcDbPoint
 10
100.0
 20
0.0
 30
0.0
  0
ENDBLK
  5
1A2
330
1A0
100
AcDbEntity
  8
0
100
AcDbBlockEnd
  0
BLOCK
  5
1B0
330
1AF
100
AcDbEntity
  8
0
100
AcDbBlockBegin
  2
*D18
 70
1
 10
0.0
 20
0.0
 30
0.0
  3
*D18
  1

  0
LINE
  5
1B2
330
1AF
100
AcDbEntity
  8
0
 62
3
100
AcDbLine
 10
100.0
 20
0.0
 30
0.0
 11
100.0
 21
-25.0
 31
0.0
  0
LINE
  5
1B3
330
1AF
100
AcDbEntity
  8
0
 62
3
100
AcDbLine
 10
200.0
 20
0.0
 30
0.0
 11
200.0
 21
-25.0
 31
0.0
  0
INSERT
  5
1B4
330
1AF
100
AcDbEntity
  8
Размеры
 62
3
100
AcDbBlockReference
  2
_OBLIQUE
 10
100.0
 20
-22.0
 30
0.0
 41
5.2
 42
5.2
  0
INSERT
  5
1B6
330
1AF
100
AcDbEntity
  8
Размеры
 62
3
100
AcDbBlockReference
  2
_OBLIQUE
 10
200.0
 20
-22.0
 30
0.0
 41
5.2
 42
5.2
  0
LINE
  5
1B8
330
1AF
100
AcDbEntity
  8
0
 62
3
100
AcDbLine
 10
100.0
 20
-22.0
 30
0.0
 11
200.0
 21
-22.0
 31
0.0
  0
MTEXT
  5
1B9
330
1AF
100
AcDbEntity
  8
Размеры
 62
3
100
AcDbMText
 10
150.0
 20
-17.9
 30
0.0
 40
5.0
 71
5
  1
100
  7
ГОСТ тип Б
 45
1.1
 90
3
 63
1
  0
POINT
  5
1BA
330
1AF
100
AcDbEntity
  8
Defpoints
100
AcDbPoint
 10
100.0
 20
-22.0
 30
0.0
  0
POINT
  5
1BB
330
1AF
100
AcDbEntity
  8
Defpoints
100
AcDbPoint
 10
100.0
 20
0.0
 30
0.0
  0
POINT
  5
1BC
330
1AF
100
AcDbEntity
  8
Defpoints
100
AcDbPoint
 10
200.0
 20
0.0
 30
0.0
  0
ENDBLK
  5
1B1
330
1AF
100
AcDbEntity
  8
0
100
AcDbBlockEnd
  0
BLOCK
  5
1BF
330
1BE
100
AcDbEntity
  8
0
100
AcDbBlockBegin
  2
*D19
 70
1
 10
0.0
 20
0.0
 30
0.0
  3
*D19
  1

  0
LINE
  5
1C1
330
1BE
100
AcDbEntity
  8
0
 62
3
100
AcDbLine
 10
200.0
 20
0.0
 30
0.0
 11
200.0
 21
-25.0
 31
0.0
  0
LINE
  5
1C2
330
1BE
100
AcDbEntity
  8
0
 62
3
100
AcDbLine
 10
300.0
 20
0.0
 30
0.0
 11
300.0
 21
-25.0
 31
0.0
  0
INSERT
  5
1C3
330
1BE
100
AcDbEntity
  8
Размеры
 62
3
100
AcDbBlockReference
  2
_OBLIQUE
 10
200.0
 20
-22.0
 30
0.0
 41
5.2
 42
5.2
  0
INSERT
  5
1C5
330
1BE
100
AcDbEntity
  8
Размеры
 62
3
100
AcDbBlockReference
  2
_OBLIQUE
 10
300.0
 20
-22.0
 30
0.0
 41
5.2
 42
5.2
  0
LINE
  5
1C7
330
1BE
100
AcDbEntity
  8
0
 62
3
100
AcDbLine
 10
200.0
 20
-22.0
 30
0.0
 11
300.0
 21
-22.0
 31
0.0
  0
MTEXT
  5
1C8
330
1BE
100
AcDbEntity
  8
Размеры
 62
3
100
AcDbMText
 10
250.0
 20
-17.9
 30
0.0
 40
5.0
 71
5
  1
100
  7
ГОСТ тип Б
 45
1.1
 90
3
 63
1
  0
POINT
  5
1C9
330
1BE
100
AcDbEntity
  8
Defpoints
100
AcDbPoint
 10
200.0
 20
-22.0
 30
0.0
  0
POINT
  5
1CA
330
1BE
100
AcDbEntity
  8
Defpoints
100
AcDbPoint
 10
200.0
 20
0.0
 30
0.0
  0
POINT
  5
1CB
330
1BE
100
AcDbEntity
  8
Defpoints
100
AcDbPoint
 10
300.0
 20
0.0
 30
0.0
  0
ENDBLK
  5
1C0
330
1BE
100
AcDbEntity
  8
0
100
AcDbBlockEnd
  0
BLOCK
  5
1CE
330
1CD
100
AcDbEntity
  8
0
100
AcDbBlockBegin
  2
*D20
 70
1
 10
0.0
 20
0.0
 30
0.0
  3
*D20
  1

  0
LINE
  5
1D0
330
1CD
100
AcDbEntity
  8
0
 62
3
100
AcDbLine
 10
300.0
 20
0.0
 30
0.0
 11
300.0
 21
-25.0
 31
0.0
  0
LINE
  5
1D1
330
1CD
100
AcDbEntity
  8
0
 62
3
100
AcDbLine
 10
400.0
 20
0.0
 30
0.0
 11
400.0
 21
-25.0
 31
0.0
  0
INSERT
  5
1D2
330
1CD
100
AcDbEntity
  8
Размеры
 62
3
100
AcDbBlockReference
  2
_OBLIQUE
 10
300.0
 20
-22.0
 30
0.0
 41
5.2
 42
5.2
  0
INSERT
  5
1D4
330
1CD
100
AcDbEntity
  8
Размеры
 62
3
100
AcDbBlockReference
  2
_OBLIQUE
 10
400.0
 20
-22.0
 30
0.0
 41
5.2
 42
5.2
  0
LINE
  5
1D6
330
1CD
100
AcDbEntity
  8
0
 62
3
100
AcDbLine
 10
300.0
 20
-22.0
 30
0.0
 11
400.0
 21
-22.0
 31
0.0
  0
MTEXT
  5
1D7
330
1CD
100
AcDbEntity
  8
Размеры
 62
3
100
AcDbMText
 10
350.0
 20
-17.9
 30
0.0
 40
5.0
 71
5
  1
100
  7
ГОСТ тип Б
 45
1.1
 90
3
 63
1
  0
POINT
  5
1D8
330
1CD
100
AcDbEntity
  8
Defpoints
100
AcDbPoint
 10
300.0
 20
-22.0
 30
0.0
  0
POINT
  5
1D9
330
1CD
100
AcDbEntity
  8
Defpoints
100
AcDbPoint
 10
300.0
 20
0.0
 30
0.0
  0
POINT
  5
1DA
330
1CD
100
AcDbEntity
  8
Defpoints
100
AcDbPoint
 10
400.0
 20
0.0
 30
0.0
  0
ENDBLK
  5
1CF
330
1CD
100
AcDbEntity
  8
0
100
AcDbBlockEnd
  0
BLOCK
  5
1DD
330
1DC
100
AcDbEntity
  8
0
100
AcDbBlockBegin
  2
*D21
 70
1
 10
0.0
 20
0.0
 30
0.0
  3
*D21
  1

  0
LINE
  5
1DF
330
1DC
100
AcDbEntity
  8
0
 62
3
100
AcDbLine
 10
400.0
 20
0.0
 30
0.0
 11
400.0
 21
-25.0
 31
0.0
  0
LINE
  5
1E0
330
1DC
100
AcDbEntity
  8
0
 62
3
100
AcDbLine
 10
500.0
 20
0.0
 30
0.0
 11
500.0
 21
-25.0
 31
0.0
  0
INSERT
  5
1E1
330
1DC
100
AcDbEntity
  8
Размеры
 62
3
100
AcDbBlockReference
  2
_OBLIQUE
 10
400.0
 20
-22.0
 30
0.0
 41
5.2
 42
5.2
  0
INSERT
  5
1E3
330
1DC
100
AcDbEntity
  8
Размеры
 62
3
100
AcDbBlockReference
  2
_OBLIQUE
 10
500.0
 20
-22.0
 30
0.0
 41
5.2
 42
5.2
  0
LINE
  5
1E5
330
1DC
100
AcDbEntity
  8
0
 62
3
100
AcDbLine
 10
400.0
 20
-22.0
 30
0.0
 11
500.0
 21
-22.0
 31
0.0
  0
MTEXT
  5
1E6
330
1DC
100
AcDbEntity
  8
Размеры
 62
3
100
AcDbMText
 10
450.0
 20
-17.9
 30
0.0
 40
5.0
 71
5
  1
100
  7
ГОСТ тип Б
 45
1.1
 90
3
 63
1
  0
POINT
  5
1E7
330
1DC
100
AcDbEntity
  8
Defpoints
100
AcDbPoint
 10
400.0
 20
-22.0
 30
0.0
  0
POINT
  5
1E8
330
1DC
100
AcDbEntity
  8
Defpoints
100
AcDbPoint
 10
400.0
 20
0.0
 30
0.0
  0
POINT
  5
1E9
330
1DC
100
AcDbEntity
  8
Defpoints
100
AcDbPoint
 10
500.0
 20
0.0
 30
0.0
  0
ENDBLK
  5
1DE
330
1DC
100
AcDbEntity
  8
0
100
AcDbBlockEnd
  0
BLOCK
  5
1EC
330
1EB
100
AcDbEntity
  8
0
100
AcDbBlockBegin
  2
*D22
 70
1
 10
0.0
 20
0.0
 30
0.0
  3
*D22
  1

  0
LINE
  5
1EE
330
1EB
100
AcDbEntity
  8
0
 62
3
100
AcDbLine
 10
0.0
 20
0.0
 30
0.0
 11
0.0
 21
-39.0
 31
0.0
  0
LINE
  5
1EF
330
1EB
100
AcDbEntity
  8
0
 62
3
100
AcDbLine
 10
500.0
 20
0.0
 30
0.0
 11
500.0
 21
-39.0
 31
0.0
  0
INSERT
  5
1F0
330
1EB
100
AcDbEntity
  8
Размеры
 62
3
100
AcDbBlockReference
  2
_OBLIQUE
 10
0.0
 20
-36.0
 30
0.0
 41
5.2
 42
5.2
  0
INSERT
  5
1F2
330
1EB
100
AcDbEntity
  8
Размеры
 62
3
100
AcDbBlockReference
  2
_OBLIQUE
 10
500.0
 20
-36.0
 30
0.0
 41
5.2
 42
5.2
  0
LINE
  5
1F4
330
1EB
100
AcDbEntity
  8
0
 62
3
100
AcDbLine
 10
0.0
 20
-36.0
 30
0.0
 11
500.0
 21
-36.0
 31
0.0
  0
MTEXT
  5
1F5
330
1EB
100
AcDbEntity
  8
Размеры
 62
3
100
AcDbMText
 10
250.0
 20
-31.9
 30
0.0
 40
5.0
 71
5
  1
500
  7
ГОСТ тип Б
 45
1.1
 90
3
 63
1
  0
POINT
  5
1F6
330
1EB
100
AcDbEntity
  8
Defpoints
100
AcDbPoint
 10
0.0
 20
-36.0
 30
0.0
  0
POINT
  5
1F7
330
1EB
100
AcDbEntity
  8
Defpoints
100
AcDbPoint
 10
0.0
 20
0.0
 30
0.0
  0
POINT
  5
1F8
330
1EB
100
AcDbEntity
  8
Defpoints
100
AcDbPoint
 10
500.0
 20
0.0
 30
0.0
  0
ENDBLK
  5
1ED
330
1EB
100
AcDbEntity
  8
0
100
AcDbBlockEnd
  0
BLOCK
  5
1FB
330
1FA
100
AcDbEntity
  8
0
100
AcDbBlockBegin
  2
*D23
 70
1
 10
0.0
 20
0.0
 30
0.0
  3
*D23
  1

  0
LINE
  5
1FD
330
1FA
100
AcDbEntity
  8
0
 62
3
100
AcDbLine
 10
0.0
 20
0.0
 30
0.0
 11
-15.0
 21
0.0
 31
0.0
  0
LINE
  5
1FE
330
1FA
100
AcDbEntity
  8
0
 62
3
100
AcDbLine
 10
0.0
 20
100.0
 30
0.0
 11
-15.0
 21
100.0
 31
0.0
  0
INSERT
  5
1FF
330
1FA
100
AcDbEntity
  8
Размеры
 62
3
100
AcDbBlockReference
  2
_OBLIQUE
 10
-12.0
 20
0.0
 30
0.0
 41
5.2
 42
5.2
 50
90.0
  0
INSERT
  5
201
330
1FA
100
AcDbEntity
  8
Размеры
 62
3
100
AcDbBlockReference
  2
_OBLIQUE
 10
-12.0
 20
100.0
 30
0.0
 41
5.2
 42
5.2
 50
90.0
  0
LINE
  5
203
330
1FA
100
AcDbEntity
  8
0
 62
3
100
AcDbLine
 10
-12.0
 20
0.0
 30
0.0
 11
-12.0
 21
100.0
 31
0.0
  0
MTEXT
  5
204
330
1FA
100
AcDbEntity
  8
Размеры
 62
3
100
AcDbMText
 10
-16.1
 20
50.0
 30
0.0
 40
5.0
 71
5
  1
100
  7
ГОСТ тип Б
 50
90.0
 45
1.1
 90
3
 63
1
  0
POINT
  5
205
330
1FA
100
AcDbEntity
  8
Defpoints
100
AcDbPoint
 10
-12.0
 20
0.0
 30
0.0
  0
POINT
  5
206
330
1FA
100
AcDbEntity
  8
Defpoints
100
AcDbPoint
 10
0.0
 20
0.0
 30
0.0
  0
POINT
  5
207
330
1FA
100
AcDbEntity
  8
Defpoints
100
AcDbPoint
 10
0.0
 20
100.0
 30
0.0
  0
ENDBLK
  5
1FC
330
1FA
100
AcDbEntity
  8
0
100
AcDbBlockEnd
  0
BLOCK
  5
20A
330
209
100
AcDbEntity
  8
0
100
AcDbBlockBegin
  2
*D24
 70
1
 10
0.0
 20
0.0
 30
0.0
  3
*D24
  1

  0
LINE
  5
20C
330
209
100
AcDbEntity
  8
0
 62
3
100
AcDbLine
 10
0.0
 20
100.0
 30
0.0
 11
-15.0
 21
100.0
 31
0.0
  0
LINE
  5
20D
330
209
100
AcDbEntity
  8
0
 62
3
100
AcDbLine
 10
0.0
 20
200.0
 30
0.0
 11
-15.0
 21
200.0
 31
0.0
  0
INSERT
  5
20E
330
209
100
AcDbEntity
  8
Размеры
 62
3
100
AcDbBlockReference
  2
_OBLIQUE
 10
-12.0
 20
100.0
 30
0.0
 41
5.2
 42
5.2
 50
90.0
  0
INSERT
  5
210
330
209
100
AcDbEntity
  8
Размеры
 62
3
100
AcDbBlockReference
  2
_OBLIQUE
 10
-12.0
 20
200.0
 30
0.0
 41
5.2
 42
5.2
 50
90.0
  0
LINE
  5
212
330
209
100
AcDbEntity
  8
0
 62
3
100
AcDbLine
 10
-12.0
 20
100.0
 30
0.0
 11
-12.0
 21
200.0
 31
0.0
  0
MTEXT
  5
213
330
209
100
AcDbEntity
  8
Размеры
 62
3
100
AcDbMText
 10
-16.1
 20
150.0
 30
0.0
 40
5.0
 71
5
  1
100
  7
ГОСТ тип Б
 50
90.0
 45
1.1
 90
3
 63
1
  0
POINT
  5
214
330
209
100
AcDbEntity
  8
Defpoints
100
AcDbPoint
 10
-12.0
 20
100.0
 30
0.0
  0
POINT
  5
215
330
209
100
AcDbEntity
  8
Defpoints
100
AcDbPoint
 10
0.0
 20
100.0
 30
0.0
  0
POINT
  5
216
330
209
100
AcDbEntity
  8
Defpoints
100
AcDbPoint
 10
0.0
 20
200.0
 30
0.0
  0
ENDBLK
  5
20B
330
209
100
AcDbEntity
  8
0
100
AcDbBlockEnd
  0
BLOCK
  5
219
330
218
100
AcDbEntity
  8
0
100
AcDbBlockBegin
  2
*D25
 70
1
 10
0.0
 20
0.0
 30
0.0
  3
*D25
  1

  0
LINE
  5
21B
330
218
100
AcDbEntity
  8
0
 62
3
100
AcDbLine
 10
0.0
 20
200.0
 30
0.0
 11
-15.0
 21
200.0
 31
0.0
  0
LINE
  5
21C
330
218
100
AcDbEntity
  8
0
 62
3
100
AcDbLine
 10
0.0
 20
300.0
 30
0.0
 11
-15.0
 21
300.0
 31
0.0
  0
INSERT
  5
21D
330
218
100
AcDbEntity
  8
Размеры
 62
3
100
AcDbBlockReference
  2
_OBLIQUE
 10
-12.0
 20
200.0
 30
0.0
 41
5.2
 42
5.2
 50
90.0
  0
INSERT
  5
21F
330
218
100
AcDbEntity
  8
Размеры
 62
3
100
AcDbBlockReference
  2
_OBLIQUE
 10
-12.0
 20
300.0
 30
0.0
 41
5.2
 42
5.2
 50
90.0
  0
LINE
  5
221
330
218
100
AcDbEntity
  8
0
 62
3
100
AcDbLine
 10
-12.0
 20
200.0
 30
0.0
 11
-12.0
 21
300.0
 31
0.0
  0
MTEXT
  5
222
330
218
100
AcDbEntity
  8
Размеры
 62
3
100
AcDbMText
 10
-16.1
 20
250.0
 30
0.0
 40
5.0
 71
5
  1
100
  7
ГОСТ тип Б
 50
90.0
 45
1.1
 90
3
 63
1
  0
POINT
  5
223
330
218
100
AcDbEntity
  8
Defpoints
100
AcDbPoint
 10
-12.0
 20
200.0
 30
0.0
  0
POINT
  5
224
330
218
100
AcDbEntity
  8
Defpoints
100
AcDbPoint
 10
0.0
 20
200.0
 30
0.0
  0
POINT
  5
225
330
218
100
AcDbEntity
  8
Defpoints
100
AcDbPoint
 10
0.0
 20
300.0
 30
0.0
  0
ENDBLK
  5
21A
330
218
100
AcDbEntity
  8
0
100
AcDbBlockEnd
  0
BLOCK
  5
228
330
227
100
AcDbEntity
  8
0
100
AcDbBlockBegin
  2
*D26
 70
1
 10
0.0
 20
0.0
 30
0.0
  3
*D26
  1

  0
LINE
  5
22A
330
227
100
AcDbEntity
  8
0
 62
3
100
AcDbLine
 10
0.0
 20
0.0
 30
0.0
 11
-29.0
 21
0.0
 31
0.0
  0
LINE
  5
22B
330
227
100
AcDbEntity
  8
0
 62
3
100
AcDbLine
 10
0.0
 20
300.0
 30
0.0
 11
-29.0
 21
300.0
 31
0.0
  0
INSERT
  5
22C
330
227
100
AcDbEntity
  8
Размеры
 62
3
100
AcDbBlockReference
  2
_OBLIQUE
 10
-26.0
 20
0.0
 30
0.0
 41
5.2
 42
5.2
 50
90.0
  0
INSERT
  5
22E
330
227
100
AcDbEntity
  8
Размеры
 62
3
100
AcDbBlockReference
  2
_OBLIQUE
 10
-26.0
 20
300.0
 30
0.0
 41
5.2
 42
5.2
 50
90.0
  0
LINE
  5
230
330
227
100
AcDbEntity
  8
0
 62
3
100
AcDbLine
 10
-26.0
 20
0.0
 30
0.0
 11
-26.0
 21
300.0
 31
0.0
  0
MTEXT
  5
231
330
227
100
AcDbEntity
  8
Размеры
 62
3
100
AcDbMText
 10
-30.1
 20
150.0
 30
0.0
 40
5.0
 71
5
  1
300
  7
ГОСТ тип Б
 50
90.0
 45
1.1
 90
3
 63
1
  0
POINT
  5
232
330
227
100
AcDbEntity
  8
Defpoints
100
AcDbPoint
 10
-26.0
 20
0.0
 30
0.0
  0
POINT
  5
233
330
227
100
AcDbEntity
  8
Defpoints
100
AcDbPoint
 10
0.0
 20
0.0
 30
0.0
  0
POINT
  5
234
330
227
100
AcDbEntity
  8
Defpoints
100
AcDbPoint
 10
0.0
 20
300.0
 30
0.0
  0
ENDBLK
  5
229
330
227
100
AcDbEntity
  8
0
100
AcDbBlockEnd
  0
ENDSEC
  0
SECTION
  2
ENTITIES
  0
LINE
  5
4E
330
17
100
AcDbEntity
  8
Сетка
100
AcDbLine
 10
0.0
 20
0.0
 30
0.0
 11
500.0
 21
0.0
 31
0.0
  0
LINE
  5
4F
330
17
100
AcDbEntity
  8
Сетка
100
AcDbLine
 10
0.0
 20
100.0
 30
0.0
 11
500.0
 21
100.0
 31
0.0
  0
LINE
  5
50
330
17
100
AcDbEntity
  8
Сетка
100
AcDbLine
 10
0.0
 20
200.0
 30
0.0
 11
500.0
 21
200.0
 31
0.0
  0
LINE
  5
51
330
17
100
AcDbEntity
  8
Сетка
100
AcDbLine
 10
0.0
 20
300.0
 30
0.0
 11
500.0
 21
300.0
 31
0.0
  0
LINE
  5
52
330
17
100
AcDbEntity
  8
Сетка
100
AcDbLine
 10
0.0
 20
0.0
 30
0.0
 11
0.0
 21
300.0
 31
0.0
  0
LINE
  5
53
330
17
100
AcDbEntity
  8
Сетка
100
AcDbLine
 10
100.0
 20
0.0
 30
0.0
 11
100.0
 21
300.0
 31
0.0
  0
LINE
  5
54
330
17
100
AcDbEntity
  8
Сетка
100
AcDbLine
 10
200.0
 20
0.0
 30
0.0
 11
200.0
 21
300.0
 31
0.0
  0
LINE
  5
55
330
17
100
AcDbEntity
  8
Сетка
100
AcDbLine
 10
300.0
 20
0.0
 30
0.0
 11
300.0
 21
300.0
 31
0.0
  0
LINE
  5
56
330
17
100
AcDbEntity
  8
Сетка
100
AcDbLine
 10
400.0
 20
0.0
 30
0.0
 11
400.0
 21
300.0
 31
0.0
  0
LINE
  5
57
330
17
100
AcDbEntity
  8
Сетка
100
AcDbLine
 10
500.0
 20
0.0
 30
0.0
 11
500.0
 21
300.0
 31
0.0
  0
HATCH
  5
58
330
17
100
AcDbEntity
  8
ПВ_штриховка
 62
8
100
AcDbHatch
 10
0.0
 20
0.0
 30
0.0
210
0.0
220
0.0
230
1.0
  2
ANSI31
 70
0
 71
0
 91
1
 92
3
 72
0
 73
1
 93
5
 10
62.5
 20
300.0
 10
0.0
 20
300.0
 10
0.0
 20
200.0
 10
100.0
 20
200.0
 10
100.0
 20
267.39130434782606
 97
0
 75
1
 76
1
 52
0.0
 41
2.4
 77
0
 78
1
 53
45.0
 43
0.0
 44
0.0
 45
-5.3881536727
 46
5.3881536727
 79
0
 98
0
  0
HATCH
  5
59
330
17
100
AcDbEntity
  8
ПВ_штриховка
 62
8
100
AcDbHatch
 10
0.0
 20
0.0
 30
0.0
210
0.0
220
0.0
230
1.0
  2
ANSI31
 70
0
 71
0
 91
1
 92
3
 72
0
 73
1
 93
3
 10
100.0
 20
267.39130434782606
 10
100.0
 20
200.0
 10
152.54237288135593
 20
200.0
 97
0
 75
1
 76
1
 52
0.0
 41
2.4
 77
0
 78
1
 53
45.0
 43
0.0
 44
0.0
 45
-5.3881536727
 46
5.3881536727
 79
0
 98
0
  0
HATCH
  5
5A
330
17
100
AcDbEntity
  8
ПВ_штриховка
 62
8
100
AcDbHatch
 10
0.0
 20
0.0
 30
0.0
210
0.0
220
0.0
230
1.0
  2
ANSI31
 70
0
 71
0
 91
1
 92
3
 72
0
 73
1
 93
4
 10
0.0
 20
100.0
 10
100.0
 20
100.0
 10
100.0
 20
200.0
 10
0.0
 20
200.0
 97
0
 75
1
 76
1
 52
0.0
 41
2.4
 77
0
 78
1
 53
45.0
 43
0.0
 44
0.0
 45
-5.3881536727
 46
5.3881536727
 79
0
 98
0
  0
HATCH
  5
5B
330
17
100
AcDbEntity
  8
ПВ_штриховка
 62
8
100
AcDbHatch
 10
0.0
 20
0.0
 30
0.0
210
0.0
220
0.0
230
1.0
  2
ANSI31
 70
0
 71
0
 91
1
 92
3
 72
0
 73
1
 93
5
 10
152.54237288135593
 20
200.0
 10
100.0
 20
200.0
 10
100.0
 20
100.0
 10
200.0
 20
100.0
 10
200.0
 20
150.0
 97
0
 75
1
 76
1
 52
0.0
 41
2.4
 77
0
 78
1
 53
45.0
 43
0.0
 44
0.0
 45
-5.3881536727
 46
5.3881536727
 79
0
 98
0
  0
HATCH
  5
5C
330
17
100
AcDbEntity
  8
ПВ_штриховка
 62
8
100
AcDbHatch
 10
0.0
 20
0.0
 30
0.0
210
0.0
220
0.0
230
1.0
  2
ANSI31
 70
0
 71
0
 91
1
 92
3
 72
0
 73
1
 93
3
 10
200.0
 20
150.0
 10
200.0
 20
100.0
 10
266.6666666666667
 20
100.0
 97
0
 75
1
 76
1
 52
0.0
 41
2.4
 77
0
 78
1
 53
45.0
 43
0.0
 44
0.0
 45
-5.3881536727
 46
5.3881536727
 79
0
 98
0
  0
HATCH
  5
5D
330
17
100
AcDbEntity
  8
ПВ_штриховка
 62
8
100
AcDbHatch
 10
0.0
 20
0.0
 30
0.0
210
0.0
220
0.0
230
1.0
  2
ANSI31
 70
0
 71
0
 91
1
 92
3
 72
0
 73
1
 93
4
 10
0.0
 20
0.0
 10
100.0
 20
0.0
 10
100.0
 20
100.0
 10
0.0
 20
100.0
 97
0
 75
1
 76
1
 52
0.0
 41
2.4
 77
0
 78
1
 53
45.0
 43
0.0
 44
0.0
 45
-5.3881536727
 46
5.3881536727
 79
0
 98
0
  0
HATCH
  5
5E
330
17
100
AcDbEntity
  8
ПВ_штриховка
 62
8
100
AcDbHatch
 10
0.0
 20
0.0
 30
0.0
210
0.0
220
0.0
230
1.0
  2
ANSI31
 70
0
 71
0
 91
1
 92
3
 72
0
 73
1
 93
4
 10
100.0
 20
0.0
 10
200.0
 20
0.0
 10
200.0
 20
100.0
 10
100.0
 20
100.0
 97
0
 75
1
 76
1
 52
0.0
 41
2.4
 77
0
 78
1
 53
45.0
 43
0.0
 44
0.0
 45
-5.3881536727
 46
5.3881536727
 79
0
 98
0
  0
HATCH
  5
5F
330
17
100
AcDbEntity
  8
ПВ_штриховка
 62
8
100
AcDbHatch
 10
0.0
 20
0.0
 30
0.0
210
0.0
220
0.0
230
1.0
  2
ANSI31
 70
0
 71
0
 91
1
 92
3
 72
0
 73
1
 93
5
 10
266.6666666666667
 20
100.0
 10
200.0
 20
100.0
 10
200.0
 20
0.0
 10
300.0
 20
0.0
 10
300.0
 20
66.66666666666667
 97
0
 75
1
 76
1
 52
0.0
 41
2.4
 77
0
 78
1
 53
45.0
 43
0.0
 44
0.0
 45
-5.3881536727
 46
5.3881536727
 79
0
 98
0
  0
HATCH
  5
60
330
17
100
AcDbEntity
  8
ПВ_штриховка
 62
8
100
AcDbHatch
 10
0.0
 20
0.0
 30
0.0
210
0.0
220
0.0
230
1.0
  2
ANSI31
 70
0
 71
0
 91
1
 92
3
 72
0
 73
1
 93
4
 10
300.0
 20
66.66666666666667
 10
300.0
 20
0.0
 10
400.0
 20
0.0
 10
400.0
 20
54.43037974683544
 97
0
 75
1
 76
1
 52
0.0
 41
2.4
 77
0
 78
1
 53
45.0
 43
0.0
 44
0.0
 45
-5.3881536727
 46
5.3881536727
 79
0
 98
0
  0
HATCH
  5
61
330
17
100
AcDbEntity
  8
ПВ_штриховка
 62
8
100
AcDbHatch
 10
0.0
 20
0.0
 30
0.0
210
0.0
220
0.0
230
1.0
  2
ANSI31
 70
0
 71
0
 91
1
 92
3
 72
0
 73
1
 93
3
 10
400.0
 20
54.43037974683544
 10
400.0
 20
0.0
 10
475.43859649122805
 20
0.0
 97
0
 75
1
 76
1
 52
0.0
 41
2.4
 77
0
 78
1
 53
45.0
 43
0.0
 44
0.0
 45
-5.3881536727
 46
5.3881536727
 79
0
 98
0
  0
LWPOLYLINE
  5
62
330
17
100
AcDbEntity
  8
ЛНР
100
AcDbPolyline
 90
8
 70
0
 43
1.2
 10
475.43859649122805
 20
0.0
 10
400.0
 20
54.43037974683544
 10
300.0
 20
66.66666666666667
 10
266.6666666666667
 20
100.0
 10
200.0
 20
150.0
 10
152.54237288135593
 20
200.0
 10
100.0
 20
267.39130434782606
 10
62.5
 20
300.0
  0
MTEXT
  5
63
330
17
100
AcDbEntity
  8
Отметки
100
AcDbMText
 10
2.0
 20
301.6
 30
0.0
 40
5.0
 71
7
  1
−0,25
  7
ГОСТ тип Б
 45
1.2
 90
3
 63
0
  0
CIRCLE
  5
64
330
17
100
AcDbEntity
  8
Отметки
100
AcDbCircle
 10
0.0
 20
300.0
 30
0.0
 40
1.0
  0
MTEXT
  5
65
330
17
100
AcDbEntity
  8
Отметки
100
AcDbMText
 10
102.0
 20
301.6
 30
0.0
 40
5.0
 71
7
  1
+0,15
  7
ГОСТ тип Б
 45
1.2
 90
3
 63
0
  0
CIRCLE
  5
66
330
17
100
AcDbEntity
  8
Отметки
100
AcDbCircle
 10
100.0
 20
300.0
 30
0.0
 40
1.0
  0
MTEXT
  5
67
330
17
100
AcDbEntity
  8
Отметки
100
AcDbMText
 10
202.0
 20
301.6
 30
0.0
 40
5.0
 71
7
  1
+0,34
  7
ГОСТ тип Б
 45
1.2
 90
3
 63
0
  0
CIRCLE
  5
68
330
17
100
AcDbEntity
  8
Отметки
100
AcDbCircle
 10
200.0
 20
300.0
 30
0.0
 40
1.0
  0
MTEXT
  5
69
330
17
100
AcDbEntity
  8
Отметки
100
AcDbMText
 10
302.0
 20
301.6
 30
0.0
 40
5.0
 71
7
  1
+0,47
  7
ГОСТ тип Б
 45
1.2
 90
3
 63
0
  0
CIRCLE
  5
6A
330
17
100
AcDbEntity
  8
Отметки
100
AcDbCircle
 10
300.0
 20
300.0
 30
0.0
 40
1.0
  0
MTEXT
  5
6B
330
17
100
AcDbEntity
  8
Отметки
100
AcDbMText
 10
402.0
 20
301.6
 30
0.0
 40
5.0
 71
7
  1
+0,66
  7
ГОСТ тип Б
 45
1.2
 90
3
 63
0
  0
CIRCLE
  5
6C
330
17
100
AcDbEntity
  8
Отметки
100
AcDbCircle
 10
400.0
 20
300.0
 30
0.0
 40
1.0
  0
MTEXT
  5
6D
330
17
100
AcDbEntity
  8
Отметки
100
AcDbMText
 10
502.0
 20
301.6
 30
0.0
 40
5.0
 71
7
  1
+0,85
  7
ГОСТ тип Б
 45
1.2
 90
3
 63
0
  0
CIRCLE
  5
6E
330
17
100
AcDbEntity
  8
Отметки
100
AcDbCircle
 10
500.0
 20
300.0
 30
0.0
 40
1.0
  0
MTEXT
  5
6F
330
17
100
AcDbEntity
  8
Отметки
100
AcDbMText
 10
2.0
 20
201.6
 30
0.0
 40
5.0
 71
7
  1
−0,49
  7
ГОСТ тип Б
 45
1.2
 90
3
 63
0
  0
CIRCLE
  5
70
330
17
100
AcDbEntity
  8
Отметки
100
AcDbCircle
 10
0.0
 20
200.0
 30
0.0
 40
1.0
  0
MTEXT
  5
71
330
17
100
AcDbEntity
  8
Отметки
100
AcDbMText
 10
102.0
 20
201.6
 30
0.0
 40
5.0
 71
7
  1
−0,31
  7
ГОСТ тип Б
 45
1.2
 90
3
 63
0
  0
CIRCLE
  5
72
330
17
100
AcDbEntity
  8
Отметки
100
AcDbCircle
 10
100.0
 20
200.0
 30
0.0
 40
1.0
  0
MTEXT
  5
73
330
17
100
AcDbEntity
  8
Отметки
100
AcDbMText
 10
202.0
 20
201.6
 30
0.0
 40
5.0
 71
7
  1
+0,28
  7
ГОСТ тип Б
 45
1.2
 90
3
 63
0
  0
CIRCLE
  5
74
330
17
100
AcDbEntity
  8
Отметки
100
AcDbCircle
 10
200.0
 20
200.0
 30
0.0
 40
1.0
  0
MTEXT
  5
75
330
17
100
AcDbEntity
  8
Отметки
100
AcDbMText
 10
302.0
 20
201.6
 30
0.0
 40
5.0
 71
7
  1
+0,52
  7
ГОСТ тип Б
 45
1.2
 90
3
 63
0
  0
CIRCLE
  5
76
330
17
100
AcDbEntity
  8
Отметки
100
AcDbCircle
 10
300.0
 20
200.0
 30
0.0
 40
1.0
  0
MTEXT
  5
77
330
17
100
AcDbEntity
  8
Отметки
100
AcDbMText
 10
402.0
 20
201.6
 30
0.0
 40
5.0
 71
7
  1
+0,84
  7
ГОСТ тип Б
 45
1.2
 90
3
 63
0
  0
CIRCLE
  5
78
330
17
100
AcDbEntity
  8
Отметки
100
AcDbCircle
 10
400.0
 20
200.0
 30
0.0
 40
1.0
  0
MTEXT
  5
79
330
17
100
AcDbEntity
  8
Отметки
100
AcDbMText
 10
502.0
 20
201.6
 30
0.0
 40
5.0
 71
7
  1
+0,47
  7
ГОСТ тип Б
 45
1.2
 90
3
 63
0
  0
CIRCLE
  5
7A
330
17
100
AcDbEntity
  8
Отметки
100
AcDbCircle
 10
500.0
 20
200.0
 30
0.0
 40
1.0
  0
MTEXT
  5
7B
330
17
100
AcDbEntity
  8
Отметки
100
AcDbMText
 10
2.0
 20
101.6
 30
0.0
 40
5.0
 71
7
  1
−0,24
  7
ГОСТ тип Б
 45
1.2
 90
3
 63
0
  0
CIRCLE
  5
7C
330
17
100
AcDbEntity
  8
Отметки
100
AcDbCircle
 10
0.0
 20
100.0
 30
0.0
 40
1.0
  0
MTEXT
  5
7D
330
17
100
AcDbEntity
  8
Отметки
100
AcDbMText
 10
102.0
 20
101.6
 30
0.0
 40
5.0
 71
7
  1
−0,43
  7
ГОСТ тип Б
 45
1.2
 90
3
 63
0
  0
CIRCLE
  5
7E
330
17
100
AcDbEntity
  8
Отметки
100
AcDbCircle
 10
100.0
 20
100.0
 30
0.0
 40
1.0
  0
MTEXT
  5
7F
330
17
100
AcDbEntity
  8
Отметки
100
AcDbMText
 10
202.0
 20
101.6
 30
0.0
 40
5.0
 71
7
  1
−0,28
  7
ГОСТ тип Б
 45
1.2
 90
3
 63
0
  0
CIRCLE
  5
80
330
17
100
AcDbEntity
  8
Отметки
100
AcDbCircle
 10
200.0
 20
100.0
 30
0.0
 40
1.0
  0
MTEXT
  5
81
330
17
100
AcDbEntity
  8
Отметки
100
AcDbMText
 10
302.0
 20
101.6
 30
0.0
 40
5.0
 71
7
  1
+0,14
  7
ГОСТ тип Б
 45
1.2
 90
3
 63
0
  0
CIRCLE
  5
82
330
17
100
AcDbEntity
  8
Отметки
100
AcDbCircle
 10
300.0
 20
100.0
 30
0.0
 40
1.0
  0
MTEXT
  5
83
330
17
100
AcDbEntity
  8
Отметки
100
AcDbMText
 10
402.0
 20
101.6
 30
0.0
 40
5.0
 71
7
  1
+0,36
  7
ГОСТ тип Б
 45
1.2
 90
3
 63
0
  0
CIRCLE
  5
84
330
17
100
AcDbEntity
  8
Отметки
100
AcDbCircle
 10
400.0
 20
100.0
 30
0.0
 40
1.0
  0
MTEXT
  5
85
330
17
100
AcDbEntity
  8
Отметки
100
AcDbMText
 10
502.0
 20
101.6
 30
0.0
 40
5.0
 71
7
  1
+0,76
  7
ГОСТ тип Б
 45
1.2
 90
3
 63
0
  0
CIRCLE
  5
86
330
17
100
AcDbEntity
  8
Отметки
100
AcDbCircle
 10
500.0
 20
100.0
 30
0.0
 40
1.0
  0
MTEXT
  5
87
330
17
100
AcDbEntity
  8
Отметки
100
AcDbMText
 10
2.0
 20
1.6
 30
0.0
 40
5.0
 71
7
  1
−0,40
  7
ГОСТ тип Б
 45
1.2
 90
3
 63
0
  0
CIRCLE
  5
88
330
17
100
AcDbEntity
  8
Отметки
100
AcDbCircle
 10
0.0
 20
0.0
 30
0.0
 40
1.0
  0
MTEXT
  5
89
330
17
100
AcDbEntity
  8
Отметки
100
AcDbMText
 10
102.0
 20
1.6
 30
0.0
 40
5.0
 71
7
  1
−0,65
  7
ГОСТ тип Б
 45
1.2
 90
3
 63
0
  0
CIRCLE
  5
8A
330
17
100
AcDbEntity
  8
Отметки
100
AcDbCircle
 10
100.0
 20
0.0
 30
0.0
 40
1.0
  0
MTEXT
  5
8B
330
17
100
AcDbEntity
  8
Отметки
100
AcDbMText
 10
202.0
 20
1.6
 30
0.0
 40
5.0
 71
7
  1
−0,52
  7
ГОСТ тип Б
 45
1.2
 90
3
 63
0
  0
CIRCLE
  5
8C
330
17
100
AcDbEntity
  8
Отметки
100
AcDbCircle
 10
200.0
 20
0.0
 30
0.0
 40
1.0
  0
MTEXT
  5
8D
330
17
100
AcDbEntity
  8
Отметки
100
AcDbMText
 10
302.0
 20
1.6
 30
0.0
 40
5.0
 71
7
  1
−0,28
  7
ГОСТ тип Б
 45
1.2
 90
3
 63
0
  0
CIRCLE
  5
8E
330
17
100
AcDbEntity
  8
Отметки
100
AcDbCircle
 10
300.0
 20
0.0
 30
0.0
 40
1.0
  0
MTEXT
  5
8F
330
17
100
AcDbEntity
  8
Отметки
100
AcDbMText
 10
402.0
 20
1.6
 30
0.0
 40
5.0
 71
7
  1
−0,43
  7
ГОСТ тип Б
 45
1.2
 90
3
 63
0
  0
CIRCLE
  5
90
330
17
100
AcDbEntity
  8
Отметки
100
AcDbCircle
 10
400.0
 20
0.0
 30
0.0
 40
1.0
  0
MTEXT
  5
91
330
17
100
AcDbEntity
  8
Отметки
100
AcDbMText
 10
502.0
 20
1.6
 30
0.0
 40
5.0
 71
7
  1
+0,14
  7
ГОСТ тип Б
 45
1.2
 90
3
 63
0
  0
CIRCLE
  5
92
330
17
100
AcDbEntity
  8
Отметки
100
AcDbCircle
 10
500.0
 20
0.0
 30
0.0
 40
1.0
  0
MTEXT
  5
93
330
17
100
AcDbEntity
  8
Номера_фигур
100
AcDbMText
 10
87.5
 20
289.1304347826087
 30
0.0
 40
5.0
 71
5
  1
1'
  7
ГОСТ тип Б
 45
1.2
 90
3
 63
0
  0
MTEXT
  5
94
330
17
100
AcDbEntity
  8
Номера_фигур
100
AcDbMText
 10
47.55788712011577
 20
247.45170829925124
 30
0.0
 40
7.0
 71
5
  1
1
  7
ГОСТ тип Б
 45
1.2
 90
3
 63
0
  0
MTEXT
  5
95
330
17
100
AcDbEntity
  8
Номера_фигур
100
AcDbMText
 10
156.9887903634816
 20
255.9239576540362
 30
0.0
 40
7.0
 71
5
  1
2'
  7
ГОСТ тип Б
 45
1.2
 90
3
 63
0
  0
MTEXT
  5
96
330
17
100
AcDbEntity
  8
Номера_фигур
100
AcDbMText
 10
117.51412429378531
 20
222.46376811594203
 30
0.0
 40
5.0
 71
5
  1
2
  7
ГОСТ тип Б
 45
1.2
 90
3
 63
0
  0
MTEXT
  5
97
330
17
100
AcDbEntity
  8
Номера_фигур
100
AcDbMText
 10
250.0
 20
250.0
 30
0.0
 40
7.0
 71
5
  1
3
  7
ГОСТ тип Б
 45
1.2
 90
3
 63
0
  0
MTEXT
  5
98
330
17
100
AcDbEntity
  8
Номера_фигур
100
AcDbMText
 10
350.0
 20
250.0
 30
0.0
 40
7.0
 71
5
  1
4
  7
ГОСТ тип Б
 45
1.2
 90
3
 63
0
  0
MTEXT
  5
99
330
17
100
AcDbEntity
  8
Номера_фигур
100
AcDbMText
 10
450.0
 20
250.0
 30
0.0
 40
7.0
 71
5
  1
5
  7
ГОСТ тип Б
 45
1.2
 90
3
 63
0
  0
MTEXT
  5
9A
330
17
100
AcDbEntity
  8
Номера_фигур
100
AcDbMText
 10
50.0
 20
150.0
 30
0.0
 40
7.0
 71
5
  1
6
  7
ГОСТ тип Б
 45
1.2
 90
3
 63
0
  0
MTEXT
  5
9B
330
17
100
AcDbEntity
  8
Номера_фигур
100
AcDbMText
 10
184.180790960452
 20
183.33333333333334
 30
0.0
 40
5.0
 71
5
  1
7'
  7
ГОСТ тип Б
 45
1.2
 90
3
 63
0
  0
MTEXT
  5
9C
330
17
100
AcDbEntity
  8
Номера_фигур
100
AcDbMText
 10
145.3987396784007
 20
145.51282051282053
 30
0.0
 40
7.0
 71
5
  1
7
  7
ГОСТ тип Б
 45
1.2
 90
3
 63
0
  0
MTEXT
  5
9D
330
17
100
AcDbEntity
  8
Номера_фигур
100
AcDbMText
 10
255.55555555555554
 20
156.66666666666666
 30
0.0
 40
7.0
 71
5
  1
8'
  7
ГОСТ тип Б
 45
1.2
 90
3
 63
0
  0
MTEXT
  5
9E
330
17
100
AcDbEntity
  8
Номера_фигур
100
AcDbMText
 10
222.22222222222223
 20
116.66666666666667
 30
0.0
 40
5.0
 71
5
  1
8
  7
ГОСТ тип Б
 45
1.2
 90
3
 63
0
  0
MTEXT
  5
9F
330
17
100
AcDbEntity
  8
Номера_фигур
100
AcDbMText
 10
350.0
 20
150.0
 30
0.0
 40
7.0
 71
5
  1
9
  7
ГОСТ тип Б
 45
1.2
 90
3
 63
0
  0
MTEXT
  5
A0
330
17
100
AcDbEntity
  8
Номера_фигур
100
AcDbMText
 10
450.0
 20
150.0
 30
0.0
 40
7.0
 71
5
  1
10
  7
ГОСТ тип Б
 45
1.2
 90
3
 63
0
  0
MTEXT
  5
A1
330
17
100
AcDbEntity
  8
Номера_фигур
100
AcDbMText
 10
50.0
 20
50.0
 30
0.0
 40
7.0
 71
5
  1
11
  7
ГОСТ тип Б
 45
1.2
 90
3
 63
0
  0
MTEXT
  5
A2
330
17
100
AcDbEntity
  8
Номера_фигур
100
AcDbMText
 10
150.0
 20
50.0
 30
0.0
 40
7.0
 71
5
  1
12
  7
ГОСТ тип Б
 45
1.2
 90
3
 63
0
  0
MTEXT
  5
A3
330
17
100
AcDbEntity
  8
Номера_фигур
100
AcDbMText
 10
288.8888888888889
 20
88.88888888888889
 30
0.0
 40
5.0
 71
5
  1
13'
  7
ГОСТ тип Б
 45
1.2
 90
3
 63
0
  0
MTEXT
  5
A4
330
17
100
AcDbEntity
  8
Номера_фигур
100
AcDbMText
 10
247.71241830065358
 20
47.712418300653596
 30
0.0
 40
7.0
 71
5
  1
13
  7
ГОСТ тип Б
 45
1.2
 90
3
 63
0
  0
MTEXT
  5
A5
330
17
100
AcDbEntity
  8
Номера_фигур
100
AcDbMText
 10
352.58467023172904
 20
80.11612777063262
 30
0.0
 40
7.0
 71
5
  1
14'
  7
ГОСТ тип Б
 45
1.2
 90
3
 63
0
  0
MTEXT
  5
A6
330
17
100
AcDbEntity
  8
Номера_фигур
100
AcDbMText
 10
348.31591173054585
 20
30.377296539692342
 30
0.0
 40
7.0
 71
5
  1
14
  7
ГОСТ тип Б
 45
1.2
 90
3
 63
0
  0
MTEXT
  5
A7
330
17
100
AcDbEntity
  8
Номера_фигур
100
AcDbMText
 10
456.4209415065772
 20
58.23008839123009
 30
0.0
 40
7.0
 71
5
  1
15'
  7
ГОСТ тип Б
 45
1.2
 90
3
 63
0
  0
MTEXT
  5
A8
330
17
100
AcDbEntity
  8
Номера_фигур
100
AcDbMText
 10
425.14619883040933
 20
18.143459915611814
 30
0.0
 40
5.0
 71
5
  1
15
  7
ГОСТ тип Б
 45
1.2
 90
3
 63
0
  0
MTEXT
  5
A9
330
17
100
AcDbEntity
  8
ПВ_ПН
100
AcDbMText
 10
50.0
 20
28.0
 30
0.0
 40
10.0
 71
5
  1
ПВ
  7
ГОСТ тип Б
 45
1.2
 90
3
 63
0
  0
MTEXT
  5
AA
330
17
100
AcDbEntity
  8
ПВ_ПН
100
AcDbMText
 10
450.0
 20
228.0
 30
0.0
 40
10.0
 71
5
  1
ПН
  7
ГОСТ тип Б
 45
1.2
 90
3
 63
0
  0
DIMENSION
  5
AB
330
17
100
AcDbEntity
  8
Размеры
100
AcDbDimension
280
0
  2
*D1
  3
М1-2000
 10
0.0
 20
314.0
 30
0.0
 11
31.25
 21
318.1
 31
0.0
 70
32
 71
5
  1
<>
100
AcDbAlignedDimension
 13
0.0
 23
300.0
 33
0.0
 14
62.5
 24
300.0
 34
0.0
 50
0.0
100
AcDbRotatedDimension
1001
ACAD
1000
DSTYLE
1002
{
1070
77
1070
1
1002
}
  0
DIMENSION
  5
BE
330
17
100
AcDbEntity
  8
Размеры
100
AcDbDimension
280
0
  2
*D2
  3
М1-2000
 10
62.5
 20
314.0
 30
0.0
 11
81.25
 21
318.1
 31
0.0
 70
32
 71
5
  1
<>
100
AcDbAlignedDimension
 13
62.5
 23
300.0
 33
0.0
 14
100.0
 24
300.0
 34
0.0
 50
0.0
100
AcDbRotatedDimension
1001
ACAD
1000
DSTYLE
1002
{
1070
77
1070
1
1002
}
  0
DIMENSION
  5
CD
330
17
100
AcDbEntity
  8
Размеры
100
AcDbDimension
280
0
  2
*D3
  3
М1-2000
 10
100.0
 20
196.0
 30
0.0
 11
126.27118644067797
 21
191.9
 31
0.0
 70
32
 71
5
  1
<>
100
AcDbAlignedDimension
 13
100.0
 23
200.0
 33
0.0
 14
152.54237288135593
 24
200.0
 34
0.0
 50
0.0
100
AcDbRotatedDimension
1001
ACAD
1000
DSTYLE
1002
{
1070
77
1070
4
1002
}
  0
DIMENSION
  5
DC
330
17
100
AcDbEntity
  8
Размеры
100
AcDbDimension
280
0
  2
*D4
  3
М1-2000
 10
152.54237288135593
 20
204.0
 30
0.0
 11
176.27118644067798
 21
208.1
 31
0.0
 70
32
 71
5
  1
<>
100
AcDbAlignedDimension
 13
152.54237288135593
 23
200.0
 33
0.0
 14
200.0
 24
200.0
 34
0.0
 50
0.0
100
AcDbRotatedDimension
1001
ACAD
1000
DSTYLE
1002
{
1070
77
1070
1
1002
}
  0
DIMENSION
  5
EB
330
17
100
AcDbEntity
  8
Размеры
100
AcDbDimension
280
0
  2
*D5
  3
М1-2000
 10
200.0
 20
96.0
 30
0.0
 11
233.33333333333334
 21
91.9
 31
0.0
 70
32
 71
5
  1
<>
100
AcDbAlignedDimension
 13
200.0
 23
100.0
 33
0.0
 14
266.6666666666667
 24
100.0
 34
0.0
 50
0.0
100
AcDbRotatedDimension
1001
ACAD
1000
DSTYLE
1002
{
1070
77
1070
4
1002
}
  0
DIMENSION
  5
FA
330
17
100
AcDbEntity
  8
Размеры
100
AcDbDimension
280
0
  2
*D6
  3
М1-2000
 10
266.6666666666667
 20
104.0
 30
0.0
 11
283.33333333333337
 21
108.1
 31
0.0
 70
32
 71
5
  1
<>
100
AcDbAlignedDimension
 13
266.6666666666667
 23
100.0
 33
0.0
 14
300.0
 24
100.0
 34
0.0
 50
0.0
100
AcDbRotatedDimension
1001
ACAD
1000
DSTYLE
1002
{
1070
77
1070
1
1002
}
  0
DIMENSION
  5
109
330
17
100
AcDbEntity
  8
Размеры
100
AcDbDimension
280
0
  2
*D7
  3
М1-2000
 10
400.0
 20
-4.0
 30
0.0
 11
437.719298245614
 21
-8.1
 31
0.0
 70
32
 71
5
  1
<>
100
AcDbAlignedDimension
 13
400.0
 23
0.0
 33
0.0
 14
475.43859649122805
 24
0.0
 34
0.0
 50
0.0
100
AcDbRotatedDimension
1001
ACAD
1000
DSTYLE
1002
{
1070
77
1070
4
1002
}
  0
DIMENSION
  5
118
330
17
100
AcDbEntity
  8
Размеры
100
AcDbDimension
280
0
  2
*D8
  3
М1-2000
 10
475.43859649122805
 20
-4.0
 30
0.0
 11
487.719298245614
 21
-8.1
 31
0.0
 70
32
 71
5
  1
<>
100
AcDbAlignedDimension
 13
475.43859649122805
 23
0.0
 33
0.0
 14
500.0
 24
0.0
 34
0.0
 50
0.0
100
AcDbRotatedDimension
1001
ACAD
1000
DSTYLE
1002
{
1070
77
1070
4
1002
}
  0
DIMENSION
  5
127
330
17
100
AcDbEntity
  8
Размеры
100
AcDbDimension
280
0
  2
*D9
  3
М1-2000
 10
104.0
 20
267.39130434782606
 30
0.0
 11
108.1
 21
283.695652173913
 31
0.0
 70
32
 71
5
  1
<>
100
AcDbAlignedDimension
 13
100.0
 23
267.39130434782606
 33
0.0
 14
100.0
 24
300.0
 34
0.0
 50
90.0
100
AcDbRotatedDimension
1001
ACAD
1000
DSTYLE
1002
{
1070
77
1070
4
1002
}
  0
DIMENSION
  5
136
330
17
100
AcDbEntity
  8
Размеры
100
AcDbDimension
280
0
  2
*D10
  3
М1-2000
 10
96.0
 20
200.0
 30
0.0
 11
91.9
 21
233.69565217391303
 31
0.0
 70
32
 71
5
  1
<>
100
AcDbAlignedDimension
 13
100.0
 23
200.0
 33
0.0
 14
100.0
 24
267.39130434782606
 34
0.0
 50
90.0
100
AcDbRotatedDimension
1001
ACAD
1000
DSTYLE
1002
{
1070
77
1070
1
1002
}
  0
DIMENSION
  5
145
330
17
100
AcDbEntity
  8
Размеры
100
AcDbDimension
280
0
  2
*D11
  3
М1-2000
 10
204.0
 20
150.0
 30
0.0
 11
208.1
 21
175.0
 31
0.0
 70
32
 71
5
  1
<>
100
AcDbAlignedDimension
 13
200.0
 23
150.0
 33
0.0
 14
200.0
 24
200.0
 34
0.0
 50
90.0
100
AcDbRotatedDimension
1001
ACAD
1000
DSTYLE
1002
{
1070
77
1070
4
1002
}
  0
DIMENSION
  5
154
330
17
100
AcDbEntity
  8
Размеры
100
AcDbDimension
280
0
  2
*D12
  3
М1-2000
 10
196.0
 20
100.0
 30
0.0
 11
191.9
 21
125.0
 31
0.0
 70
32
 71
5
  1
<>
100
AcDbAlignedDimension
 13
200.0
 23
100.0
 33
0.0
 14
200.0
 24
150.0
 34
0.0
 50
90.0
100
AcDbRotatedDimension
1001
ACAD
1000
DSTYLE
1002
{
1070
77
1070
1
1002
}
  0
DIMENSION
  5
163
330
17
100
AcDbEntity
  8
Размеры
100
AcDbDimension
280
0
  2
*D13
  3
М1-2000
 10
304.0
 20
66.66666666666667
 30
0.0
 11
308.1
 21
83.33333333333334
 31
0.0
 70
32
 71
5
  1
<>
100
AcDbAlignedDimension
 13
300.0
 23
66.66666666666667
 33
0.0
 14
300.0
 24
100.0
 34
0.0
 50
90.0
100
AcDbRotatedDimension
1001
ACAD
1000
DSTYLE
1002
{
1070
77
1070
4
1002
}
  0
DIMENSION
  5
172
330
17
100
AcDbEntity
  8
Размеры
100
AcDbDimension
280
0
  2
*D14
  3
М1-2000
 10
296.0
 20
0.0
 30
0.0
 11
291.9
 21
33.333333333333336
 31
0.0
 70
32
 71
5
  1
<>
100
AcDbAlignedDimension
 13
300.0
 23
0.0
 33
0.0
 14
300.0
 24
66.66666666666667
 34
0.0
 50
90.0
100
AcDbRotatedDimension
1001
ACAD
1000
DSTYLE
1002
{
1070
77
1070
1
1002
}
  0
DIMENSION
  5
181
330
17
100
AcDbEntity
  8
Размеры
100
AcDbDimension
280
0
  2
*D15
  3
М1-2000
 10
404.0
 20
54.43037974683544
 30
0.0
 11
408.1
 21
77.21518987341773
 31
0.0
 70
32
 71
5
  1
<>
100
AcDbAlignedDimension
 13
400.0
 23
54.43037974683544
 33
0.0
 14
400.0
 24
100.0
 34
0.0
 50
90.0
100
AcDbRotatedDimension
1001
ACAD
1000
DSTYLE
1002
{
1070
77
1070
4
1002
}
  0
DIMENSION
  5
190
330
17
100
AcDbEntity
  8
Размеры
100
AcDbDimension
280
0
  2
*D16
  3
М1-2000
 10
396.0
 20
0.0
 30
0.0
 11
391.9
 21
27.21518987341772
 31
0.0
 70
32
 71
5
  1
<>
100
AcDbAlignedDimension
 13
400.0
 23
0.0
 33
0.0
 14
400.0
 24
54.43037974683544
 34
0.0
 50
90.0
100
AcDbRotatedDimension
1001
ACAD
1000
DSTYLE
1002
{
1070
77
1070
1
1002
}
  0
DIMENSION
  5
19F
330
17
100
AcDbEntity
  8
Размеры
100
AcDbDimension
280
0
  2
*D17
  3
М1-2000
 10
0.0
 20
-22.0
 30
0.0
 11
50.0
 21
-17.9
 31
0.0
 70
32
 71
5
  1
<>
100
AcDbAlignedDimension
 13
0.0
 23
0.0
 33
0.0
 14
100.0
 24
0.0
 34
0.0
 50
0.0
100
AcDbRotatedDimension
  0
DIMENSION
  5
1AE
330
17
100
AcDbEntity
  8
Размеры
100
AcDbDimension
280
0
  2
*D18
  3
М1-2000
 10
100.0
 20
-22.0
 30
0.0
 11
150.0
 21
-17.9
 31
0.0
 70
32
 71
5
  1
<>
100
AcDbAlignedDimension
 13
100.0
 23
0.0
 33
0.0
 14
200.0
 24
0.0
 34
0.0
 50
0.0
100
AcDbRotatedDimension
  0
DIMENSION
  5
1BD
330
17
100
AcDbEntity
  8
Размеры
100
AcDbDimension
280
0
  2
*D19
  3
М1-2000
 10
200.0
 20
-22.0
 30
0.0
 11
250.0
 21
-17.9
 31
0.0
 70
32
 71
5
  1
<>
100
AcDbAlignedDimension
 13
200.0
 23
0.0
 33
0.0
 14
300.0
 24
0.0
 34
0.0
 50
0.0
100
AcDbRotatedDimension
  0
DIMENSION
  5
1CC
330
17
100
AcDbEntity
  8
Размеры
100
AcDbDimension
280
0
  2
*D20
  3
М1-2000
 10
300.0
 20
-22.0
 30
0.0
 11
350.0
 21
-17.9
 31
0.0
 70
32
 71
5
  1
<>
100
AcDbAlignedDimension
 13
300.0
 23
0.0
 33
0.0
 14
400.0
 24
0.0
 34
0.0
 50
0.0
100
AcDbRotatedDimension
  0
DIMENSION
  5
1DB
330
17
100
AcDbEntity
  8
Размеры
100
AcDbDimension
280
0
  2
*D21
  3
М1-2000
 10
400.0
 20
-22.0
 30
0.0
 11
450.0
 21
-17.9
 31
0.0
 70
32
 71
5
  1
<>
100
AcDbAlignedDimension
 13
400.0
 23
0.0
 33
0.0
 14
500.0
 24
0.0
 34
0.0
 50
0.0
100
AcDbRotatedDimension
  0
DIMENSION
  5
1EA
330
17
100
AcDbEntity
  8
Размеры
100
AcDbDimension
280
0
  2
*D22
  3
М1-2000
 10
0.0
 20
-36.0
 30
0.0
 11
250.0
 21
-31.9
 31
0.0
 70
32
 71
5
  1
<>
100
AcDbAlignedDimension
 13
0.0
 23
0.0
 33
0.0
 14
500.0
 24
0.0
 34
0.0
 50
0.0
100
AcDbRotatedDimension
  0
DIMENSION
  5
1F9
330
17
100
AcDbEntity
  8
Размеры
100
AcDbDimension
280
0
  2
*D23
  3
М1-2000
 10
-12.0
 20
0.0
 30
0.0
 11
-16.1
 21
50.0
 31
0.0
 70
32
 71
5
  1
<>
100
AcDbAlignedDimension
 13
0.0
 23
0.0
 33
0.0
 14
0.0
 24
100.0
 34
0.0
 50
90.0
100
AcDbRotatedDimension
  0
DIMENSION
  5
208
330
17
100
AcDbEntity
  8
Размеры
100
AcDbDimension
280
0
  2
*D24
  3
М1-2000
 10
-12.0
 20
100.0
 30
0.0
 11
-16.1
 21
150.0
 31
0.0
 70
32
 71
5
  1
<>
100
AcDbAlignedDimension
 13
0.0
 23
100.0
 33
0.0
 14
0.0
 24
200.0
 34
0.0
 50
90.0
100
AcDbRotatedDimension
  0
DIMENSION
  5
217
330
17
100
AcDbEntity
  8
Размеры
100
AcDbDimension
280
0
  2
*D25
  3
М1-2000
 10
-12.0
 20
200.0
 30
0.0
 11
-16.1
 21
250.0
 31
0.0
 70
32
 71
5
  1
<>
100
AcDbAlignedDimension
 13
0.0
 23
200.0
 33
0.0
 14
0.0
 24
300.0
 34
0.0
 50
90.0
100
AcDbRotatedDimension
  0
DIMENSION
  5
226
330
17
100
AcDbEntity
  8
Размеры
100
AcDbDimension
280
0
  2
*D26
  3
М1-2000
 10
-26.0
 20
0.0
 30
0.0
 11
-30.1
 21
150.0
 31
0.0
 70
32
 71
5
  1
<>
100
AcDbAlignedDimension
 13
0.0
 23
0.0
 33
0.0
 14
0.0
 24
300.0
 34
0.0
 50
90.0
100
AcDbRotatedDimension
  0
LWPOLYLINE
  5
236
330
1B
100
AcDbEntity
 67
1
  8
Видовой_экран
100
AcDbPolyline
 90
4
 70
1
 10
0.0
 20
0.0
 10
420.0
 20
0.0
 10
420.0
 20
297.0
 10
0.0
 20
297.0
  0
LWPOLYLINE
  5
237
330
1B
100
AcDbEntity
 67
1
  8
Рамка
100
AcDbPolyline
 90
4
 70
1
 10
20.0
 20
5.0
 10
415.0
 20
5.0
 10
415.0
 20
292.0
 10
20.0
 20
292.0
  0
LWPOLYLINE
  5
238
330
1B
100
AcDbEntity
 67
1
  8
Штамп
370
70
100
AcDbPolyline
 90
4
 70
1
 10
230.0
 20
5.0
 10
415.0
 20
5.0
 10
415.0
 20
60.0
 10
230.0
 20
60.0
  0
LINE
  5
239
330
1B
100
AcDbEntity
 67
1
  8
Штамп
370
25
100
AcDbLine
 10
240.0
 20
35.0
 30
0.0
 11
240.0
 21
60.0
 31
0.0
  0
LINE
  5
23A
330
1B
100
AcDbEntity
 67
1
  8
Штамп
370
25
100
AcDbLine
 10
250.0
 20
5.0
 30
0.0
 11
250.0
 21
60.0
 31
0.0
  0
LINE
  5
23B
330
1B
100
AcDbEntity
 67
1
  8
Штамп
370
25
100
AcDbLine
 10
260.0
 20
35.0
 30
0.0
 11
260.0
 21
60.0
 31
0.0
  0
LINE
  5
23C
330
1B
100
AcDbEntity
 67
1
  8
Штамп
370
25
100
AcDbLine
 10
270.0
 20
5.0
 30
0.0
 11
270.0
 21
60.0
 31
0.0
  0
LINE
  5
23D
330
1B
100
AcDbEntity
 67
1
  8
Штамп
370
25
100
AcDbLine
 10
285.0
 20
5.0
 30
0.0
 11
285.0
 21
60.0
 31
0.0
  0
LINE
  5
23E
330
1B
100
AcDbEntity
 67
1
  8
Штамп
370
70
100
AcDbLine
 10
295.0
 20
5.0
 30
0.0
 11
295.0
 21
60.0
 31
0.0
  0
LINE
  5
23F
330
1B
100
AcDbEntity
 67
1
  8
Штамп
370
25
100
AcDbLine
 10
230.0
 20
10.0
 30
0.0
 11
295.0
 21
10.0
 31
0.0
  0
LINE
  5
240
330
1B
100
AcDbEntity
 67
1
  8
Штамп
370
25
100
AcDbLine
 10
230.0
 20
15.0
 30
0.0
 11
295.0
 21
15.0
 31
0.0
  0
LINE
  5
241
330
1B
100
AcDbEntity
 67
1
  8
Штамп
370
25
100
AcDbLine
 10
230.0
 20
20.0
 30
0.0
 11
295.0
 21
20.0
 31
0.0
  0
LINE
  5
242
330
1B
100
AcDbEntity
 67
1
  8
Штамп
370
25
100
AcDbLine
 10
230.0
 20
25.0
 30
0.0
 11
295.0
 21
25.0
 31
0.0
  0
LINE
  5
243
330
1B
100
AcDbEntity
 67
1
  8
Штамп
370
25
100
AcDbLine
 10
230.0
 20
30.0
 30
0.0
 11
295.0
 21
30.0
 31
0.0
  0
LINE
  5
244
330
1B
100
AcDbEntity
 67
1
  8
Штамп
370
70
100
AcDbLine
 10
230.0
 20
35.0
 30
0.0
 11
295.0
 21
35.0
 31
0.0
  0
LINE
  5
245
330
1B
100
AcDbEntity
 67
1
  8
Штамп
370
70
100
AcDbLine
 10
230.0
 20
40.0
 30
0.0
 11
295.0
 21
40.0
 31
0.0
  0
LINE
  5
246
330
1B
100
AcDbEntity
 67
1
  8
Штамп
370
25
100
AcDbLine
 10
230.0
 20
45.0
 30
0.0
 11
295.0
 21
45.0
 31
0.0
  0
LINE
  5
247
330
1B
100
AcDbEntity
 67
1
  8
Штамп
370
25
100
AcDbLine
 10
230.0
 20
50.0
 30
0.0
 11
295.0
 21
50.0
 31
0.0
  0
LINE
  5
248
330
1B
100
AcDbEntity
 67
1
  8
Штамп
370
25
100
AcDbLine
 10
230.0
 20
55.0
 30
0.0
 11
295.0
 21
55.0
 31
0.0
  0
LINE
  5
249
330
1B
100
AcDbEntity
 67
1
  8
Штамп
370
70
100
AcDbLine
 10
295.0
 20
50.0
 30
0.0
 11
415.0
 21
50.0
 31
0.0
  0
LINE
  5
24A
330
1B
100
AcDbEntity
 67
1
  8
Штамп
370
70
100
AcDbLine
 10
295.0
 20
35.0
 30
0.0
 11
415.0
 21
35.0
 31
0.0
  0
LINE
  5
24B
330
1B
100
AcDbEntity
 67
1
  8
Штамп
370
70
100
AcDbLine
 10
295.0
 20
20.0
 30
0.0
 11
415.0
 21
20.0
 31
0.0
  0
LINE
  5
24C
330
1B
100
AcDbEntity
 67
1
  8
Штамп
370
70
100
AcDbLine
 10
365.0
 20
5.0
 30
0.0
 11
365.0
 21
35.0
 31
0.0
  0
LINE
  5
24D
330
1B
100
AcDbEntity
 67
1
  8
Штамп
370
25
100
AcDbLine
 10
365.0
 20
30.0
 30
0.0
 11
415.0
 21
30.0
 31
0.0
  0
LINE
  5
24E
330
1B
100
AcDbEntity
 67
1
  8
Штамп
370
25
100
AcDbLine
 10
380.0
 20
20.0
 30
0.0
 11
380.0
 21
35.0
 31
0.0
  0
LINE
  5
24F
330
1B
100
AcDbEntity
 67
1
  8
Штамп
370
25
100
AcDbLine
 10
395.0
 20
20.0
 30
0.0
 11
395.0
 21
35.0
 31
0.0
  0
TEXT
  5
250
330
1B
100
AcDbEntity
 67
1
  8
Штамп
100
AcDbText
 10
235.0
 20
37.5
 30
0.0
 40
2.0
  1
Изм.
  7
ГОСТ тип Б
 41
0.8
 72
1
 11
235.0
 21
37.5
 31
0.0
100
AcDbText
 73
2
  0
TEXT
  5
251
330
1B
100
AcDbEntity
 67
1
  8
Штамп
100
AcDbText
 10
245.0
 20
37.5
 30
0.0
 40
2.0
  1
Кол.уч.
  7
ГОСТ тип Б
 41
0.8
 72
1
 11
245.0
 21
37.5
 31
0.0
100
AcDbText
 73
2
  0
TEXT
  5
252
330
1B
100
AcDbEntity
 67
1
  8
Штамп
100
AcDbText
 10
255.0
 20
37.5
 30
0.0
 40
2.0
  1
Лист
  7
ГОСТ тип Б
 41
0.8
 72
1
 11
255.0
 21
37.5
 31
0.0
100
AcDbText
 73
2
  0
TEXT
  5
253
330
1B
100
AcDbEntity
 67
1
  8
Штамп
100
AcDbText
 10
265.0
 20
37.5
 30
0.0
 40
2.0
  1
№док.
  7
ГОСТ тип Б
 41
0.8
 72
1
 11
265.0
 21
37.5
 31
0.0
100
AcDbText
 73
2
  0
TEXT
  5
254
330
1B
100
AcDbEntity
 67
1
  8
Штамп
100
AcDbText
 10
277.5
 20
37.5
 30
0.0
 40
2.0
  1
Подп.
  7
ГОСТ тип Б
 41
0.8
 72
1
 11
277.5
 21
37.5
 31
0.0
100
AcDbText
 73
2
  0
TEXT
  5
255
330
1B
100
AcDbEntity
 67
1
  8
Штамп
100
AcDbText
 10
290.0
 20
37.5
 30
0.0
 40
2.0
  1
Дата
  7
ГОСТ тип Б
 41
0.8
 72
1
 11
290.0
 21
37.5
 31
0.0
100
AcDbText
 73
2
  0
TEXT
  5
256
330
1B
100
AcDbEntity
 67
1
  8
Штамп
100
AcDbText
 10
231.0
 20
32.5
 30
0.0
 40
2.0
  1
Разработал
  7
ГОСТ тип Б
 41
0.8
 11
231.0
 21
32.5
 31
0.0
100
AcDbText
 73
2
  0
TEXT
  5
257
330
1B
100
AcDbEntity
 67
1
  8
Штамп
100
AcDbText
 10
251.0
 20
32.5
 30
0.0
 40
2.0
  1
Буев Д.Р.
  7
ГОСТ тип Б
 41
0.8
 11
251.0
 21
32.5
 31
0.0
100
AcDbText
 73
2
  0
TEXT
  5
258
330
1B
100
AcDbEntity
 67
1
  8
Штамп
100
AcDbText
 10
231.0
 20
27.5
 30
0.0
 40
2.0
  1
Проверил
  7
ГОСТ тип Б
 41
0.8
 11
231.0
 21
27.5
 31
0.0
100
AcDbText
 73
2
  0
TEXT
  5
259
330
1B
100
AcDbEntity
 67
1
  8
Штамп
100
AcDbText
 10
251.0
 20
27.5
 30
0.0
 40
2.0
  1
Забелина О.Б.
  7
ГОСТ тип Б
 41
0.8
 11
251.0
 21
27.5
 31
0.0
100
AcDbText
 73
2
  0
TEXT
  5
25A
330
1B
100
AcDbEntity
 67
1
  8
Штамп
100
AcDbText
 10
231.0
 20
22.5
 30
0.0
 40
2.0
  1
Т. контр.
  7
ГОСТ тип Б
 41
0.8
 11
231.0
 21
22.5
 31
0.0
100
AcDbText
 73
2
  0
TEXT
  5
25B
330
1B
100
AcDbEntity
 67
1
  8
Штамп
100
AcDbText
 10
251.0
 20
22.5
 30
0.0
 40
2.0
  1

  7
ГОСТ тип Б
 41
0.8
 11
251.0
 21
22.5
 31
0.0
100
AcDbText
 73
2
  0
TEXT
  5
25C
330
1B
100
AcDbEntity
 67
1
  8
Штамп
100
AcDbText
 10
231.0
 20
17.5
 30
0.0
 40
2.0
  1

  7
ГОСТ тип Б
 41
0.8
 11
231.0
 21
17.5
 31
0.0
100
AcDbText
 73
2
  0
TEXT
  5
25D
330
1B
100
AcDbEntity
 67
1
  8
Штамп
100
AcDbText
 10
251.0
 20
17.5
 30
0.0
 40
2.0
  1

  7
ГОСТ тип Б
 41
0.8
 11
251.0
 21
17.5
 31
0.0
100
AcDbText
 73
2
  0
TEXT
  5
25E
330
1B
100
AcDbEntity
 67
1
  8
Штамп
100
AcDbText
 10
231.0
 20
12.5
 30
0.0
 40
2.0
  1
Н. контр.
  7
ГОСТ тип Б
 41
0.8
 11
231.0
 21
12.5
 31
0.0
100
AcDbText
 73
2
  0
TEXT
  5
25F
330
1B
100
AcDbEntity
 67
1
  8
Штамп
100
AcDbText
 10
251.0
 20
12.5
 30
0.0
 40
2.0
  1

  7
ГОСТ тип Б
 41
0.8
 11
251.0
 21
12.5
 31
0.0
100
AcDbText
 73
2
  0
TEXT
  5
260
330
1B
100
AcDbEntity
 67
1
  8
Штамп
100
AcDbText
 10
231.0
 20
7.5
 30
0.0
 40
2.0
  1
Утв.
  7
ГОСТ тип Б
 41
0.8
 11
231.0
 21
7.5
 31
0.0
100
AcDbText
 73
2
  0
TEXT
  5
261
330
1B
100
AcDbEntity
 67
1
  8
Штамп
100
AcDbText
 10
251.0
 20
7.5
 30
0.0
 40
2.0
  1

  7
ГОСТ тип Б
 41
0.8
 11
251.0
 21
7.5
 31
0.0
100
AcDbText
 73
2
  0
TEXT
  5
262
330
1B
100
AcDbEntity
 67
1
  8
Штамп
100
AcDbText
 10
355.0
 20
55.0
 30
0.0
 40
3.5
  1
НИУ МГСУ 08.05.01 – КР – 2026
  7
ГОСТ тип Б
 72
1
 11
355.0
 21
55.0
 31
0.0
100
AcDbText
 73
2
  0
MTEXT
  5
263
330
1B
100
AcDbEntity
 67
1
  8
Штамп
100
AcDbMText
 10
355.0
 20
42.5
 30
0.0
 40
2.5
 41
115.0
 71
5
  1
Разработка технологической карты на производство\Pземляных работ. Вариант 2, грунт — супесь
  7
ГОСТ тип Б
  0
MTEXT
  5
264
330
1B
100
AcDbEntity
 67
1
  8
Штамп
100
AcDbMText
 10
330.0
 20
27.5
 30
0.0
 40
2.5
 41
66.0
 71
5
  1
Графическая часть\Pкурсовой работы
  7
ГОСТ тип Б
  0
TEXT
  5
265
330
1B
100
AcDbEntity
 67
1
  8
Штамп
100
AcDbText
 10
372.5
 20
32.5
 30
0.0
 40
2.0
  1
Стадия
  7
ГОСТ тип Б
 41
0.8
 72
1
 11
372.5
 21
32.5
 31
0.0
100
AcDbText
 73
2
  0
TEXT
  5
266
330
1B
100
AcDbEntity
 67
1
  8
Штамп
100
AcDbText
 10
387.5
 20
32.5
 30
0.0
 40
2.0
  1
Лист
  7
ГОСТ тип Б
 41
0.8
 72
1
 11
387.5
 21
32.5
 31
0.0
100
AcDbText
 73
2
  0
TEXT
  5
267
330
1B
100
AcDbEntity
 67
1
  8
Штамп
100
AcDbText
 10
405.0
 20
32.5
 30
0.0
 40
2.0
  1
Листов
  7
ГОСТ тип Б
 41
0.8
 72
1
 11
405.0
 21
32.5
 31
0.0
100
AcDbText
 73
2
  0
TEXT
  5
268
330
1B
100
AcDbEntity
 67
1
  8
Штамп
100
AcDbText
 10
372.5
 20
25.0
 30
0.0
 40
3.0
  1
У
  7
ГОСТ тип Б
 72
1
 11
372.5
 21
25.0
 31
0.0
100
AcDbText
 73
2
  0
TEXT
  5
269
330
1B
100
AcDbEntity
 67
1
  8
Штамп
100
AcDbText
 10
387.5
 20
25.0
 30
0.0
 40
3.0
  1
1
  7
ГОСТ тип Б
 72
1
 11
387.5
 21
25.0
 31
0.0
100
AcDbText
 73
2
  0
MTEXT
  5
26A
330
1B
100
AcDbEntity
 67
1
  8
Штамп
100
AcDbMText
 10
330.0
 20
12.5
 30
0.0
 40
2.5
 41
68.0
 71
5
  1
План строительной площадки\Pс рабочими отметками и ЛНР\PМ 1:2000
  7
ГОСТ тип Б
  0
MTEXT
  5
26B
330
1B
100
AcDbEntity
 67
1
  8
Штамп
100
AcDbMText
 10
390.0
 20
12.5
 30
0.0
 40
2.0
 41
48.0
 71
5
  1
Кафедра технологий\Pи организации строительного\Pпроизводства
  7
ГОСТ тип Б
  0
TEXT
  5
26C
330
1B
100
AcDbEntity
 67
1
  8
Надписи
100
AcDbText
 10
217.5
 20
283.0
 30
0.0
 40
5.0
  1
План строительной площадки с рабочими отметками и линией нулевых работ  М 1:2000
  7
ГОСТ тип Б
 41
0.8
 72
1
 11
217.5
 21
283.0
 31
0.0
100
AcDbText
 73
2
  0
VIEWPORT
  5
26D
330
1B
100
AcDbEntity
 67
1
  8
Видовой_экран
100
AcDbViewport
 10
217.5
 20
164.5
 30
0.0
 40
279.0
 41
185.0
 68
2
 69
3
 12
245.0
 22
141.0
 13
0.0
 23
0.0
 14
10.0
 24
10.0
 15
10.0
 25
10.0
 16
0.0
 26
0.0
 36
1.0
 17
0.0
 27
0.0
 37
0.0
 42
50.0
 43
0.0
 44
0.0
 45
370.0
 50
0.0
 51
0.0
 72
100
 90
16384
  1

281
0
 71
0
 74
0
110
0.0
120
0.0
130
0.0
111
1.0
121
0.0
131
0.0
112
0.0
122
1.0
132
0.0
 79
0
146
0.0
282
0
  0
TEXT
  5
26E
330
1B
100
AcDbEntity
 67
1
  8
Надписи
100
AcDbText
 10
26.0
 20
64.0
 30
0.0
 40
3.0
  1
Условные обозначения
  7
ГОСТ тип Б
 41
0.8
 11
26.0
 21
64.0
 31
0.0
100
AcDbText
 73
1
  0
LWPOLYLINE
  5
26F
330
1B
100
AcDbEntity
 67
1
  8
ЛНР
100
AcDbPolyline
 90
2
 70
0
 43
0.6
 10
26.0
 20
57.0
 10
40.0
 20
57.0
  0
TEXT
  5
270
330
1B
100
AcDbEntity
 67
1
  8
Надписи
100
AcDbText
 10
43.0
 20
57.0
 30
0.0
 40
2.5
  1
— линия нулевых работ (ЛНР)
  7
ГОСТ тип Б
 41
0.8
 11
43.0
 21
57.0
 31
0.0
100
AcDbText
 73
2
  0
LWPOLYLINE
  5
271
330
1B
100
AcDbEntity
 67
1
  8
Сетка
100
AcDbPolyline
 90
4
 70
1
 10
26.0
 20
47.0
 10
40.0
 20
47.0
 10
40.0
 20
52.0
 10
26.0
 20
52.0
  0
HATCH
  5
272
330
1B
100
AcDbEntity
 67
1
  8
ПВ_штриховка
 62
8
100
AcDbHatch
 10
0.0
 20
0.0
 30
0.0
210
0.0
220
0.0
230
1.0
  2
ANSI31
 70
0
 71
0
 91
1
 92
3
 72
0
 73
1
 93
4
 10
26.0
 20
47.0
 10
40.0
 20
47.0
 10
40.0
 20
52.0
 10
26.0
 20
52.0
 97
0
 75
1
 76
1
 52
0.0
 41
1.2
 77
0
 78
1
 53
45.0
 43
0.0
 44
0.0
 45
-2.6940768364
 46
2.6940768364
 79
0
 98
0
  0
TEXT
  5
273
330
1B
100
AcDbEntity
 67
1
  8
Надписи
100
AcDbText
 10
43.0
 20
49.5
 30
0.0
 40
2.5
  1
— ПВ — планировочная выемка
  7
ГОСТ тип Б
 41
0.8
 11
43.0
 21
49.5
 31
0.0
100
AcDbText
 73
2
  0
LWPOLYLINE
  5
274
330
1B
100
AcDbEntity
 67
1
  8
Сетка
100
AcDbPolyline
 90
4
 70
1
 10
26.0
 20
39.5
 10
40.0
 20
39.5
 10
40.0
 20
44.5
 10
26.0
 20
44.5
  0
TEXT
  5
275
330
1B
100
AcDbEntity
 67
1
  8
Надписи
100
AcDbText
 10
43.0
 20
42.0
 30
0.0
 40
2.5
  1
— ПН — планировочная насыпь
  7
ГОСТ тип Б
 41
0.8
 11
43.0
 21
42.0
 31
0.0
100
AcDbText
 73
2
  0
CIRCLE
  5
276
330
1B
100
AcDbEntity
 67
1
  8
Отметки
100
AcDbCircle
 10
27.0
 20
33.0
 30
0.0
 40
0.5
  0
TEXT
  5
277
330
1B
100
AcDbEntity
 67
1
  8
Отметки
100
AcDbText
 10
28.0
 20
33.5
 30
0.0
 40
2.5
  1
+0,15
  7
ГОСТ тип Б
 41
0.8
 11
28.0
 21
33.5
 31
0.0
100
AcDbText
 73
1
  0
TEXT
  5
278
330
1B
100
AcDbEntity
 67
1
  8
Надписи
100
AcDbText
 10
43.0
 20
34.5
 30
0.0
 40
2.5
  1
— рабочая отметка, м: «+» насыпь, «−» выемка
  7
ГОСТ тип Б
 41
0.8
 11
43.0
 21
34.5
 31
0.0
100
AcDbText
 73
2
  0
TEXT
  5
279
330
1B
100
AcDbEntity
 67
1
  8
Номера_фигур
100
AcDbText
 10
33.0
 20
27.0
 30
0.0
 40
3.5
  1
7'
  7
ГОСТ тип Б
 72
1
 11
33.0
 21
27.0
 31
0.0
100
AcDbText
 73
2
  0
TEXT
  5
27A
330
1B
100
AcDbEntity
 67
1
  8
Надписи
100
AcDbText
 10
43.0
 20
27.0
 30
0.0
 40
2.5
  1
— номер фигуры; штрих — насыпная часть квадрата
  7
ГОСТ тип Б
 41
0.8
 11
43.0
 21
27.0
 31
0.0
100
AcDbText
 73
2
  0
LINE
  5
27B
330
1B
100
AcDbEntity
 67
1
  8
Размеры
100
AcDbLine
 10
26.0
 20
18.0
 30
0.0
 11
40.0
 21
18.0
 31
0.0
  0
LINE
  5
27C
330
1B
100
AcDbEntity
 67
1
  8
Размеры
100
AcDbLine
 10
25.1
 20
17.1
 30
0.0
 11
26.9
 21
18.9
 31
0.0
  0
LINE
  5
27D
330
1B
100
AcDbEntity
 67
1
  8
Размеры
100
AcDbLine
 10
39.1
 20
17.1
 30
0.0
 11
40.9
 21
18.9
 31
0.0
  0
TEXT
  5
27E
330
1B
100
AcDbEntity
 67
1
  8
Размеры
100
AcDbText
 10
33.0
 20
18.8
 30
0.0
 40
2.5
  1
37,5
  7
ГОСТ тип Б
 41
0.8
 72
1
 11
33.0
 21
18.8
 31
0.0
100
AcDbText
 73
1
  0
TEXT
  5
27F
330
1B
100
AcDbEntity
 67
1
  8
Надписи
100
AcDbText
 10
43.0
 20
19.5
 30
0.0
 40
2.5
  1
— расстояние до точки нулевых работ, м
  7
ГОСТ тип Б
 41
0.8
 11
43.0
 21
19.5
 31
0.0
100
AcDbText
 73
2
  0
TEXT
  5
280
330
1B
100
AcDbEntity
 67
1
  8
Надписи
100
AcDbText
 10
128.0
 20
64.0
 30
0.0
 40
3.0
  1
Объёмы планировочных работ
  7
ГОСТ тип Б
 41
0.8
 11
128.0
 21
64.0
 31
0.0
100
AcDbText
 73
1
  0
LWPOLYLINE
  5
281
330
1B
100
AcDbEntity
 67
1
  8
Штамп
100
AcDbPolyline
 90
4
 70
1
 10
128.0
 20
61.0
 10
162.0
 20
61.0
 10
162.0
 20
54.0
 10
128.0
 20
54.0
  0
TEXT
  5
282
330
1B
100
AcDbEntity
 67
1
  8
Надписи
100
AcDbText
 10
129.5
 20
57.5
 30
0.0
 40
2.5
  1

  7
ГОСТ тип Б
 41
0.8
 11
129.5
 21
57.5
 31
0.0
100
AcDbText
 73
2
  0
LWPOLYLINE
  5
283
330
1B
100
AcDbEntity
 67
1
  8
Штамп
100
AcDbPolyline
 90
4
 70
1
 10
162.0
 20
61.0
 10
194.0
 20
61.0
 10
194.0
 20
54.0
 10
162.0
 20
54.0
  0
TEXT
  5
284
330
1B
100
AcDbEntity
 67
1
  8
Надписи
100
AcDbText
 10
178.0
 20
57.5
 30
0.0
 40
2.5
  1
F, м²
  7
ГОСТ тип Б
 41
0.8
 72
1
 11
178.0
 21
57.5
 31
0.0
100
AcDbText
 73
2
  0
LWPOLYLINE
  5
285
330
1B
100
AcDbEntity
 67
1
  8
Штамп
100
AcDbPolyline
 90
4
 70
1
 10
194.0
 20
61.0
 10
224.0
 20
61.0
 10
224.0
 20
54.0
 10
194.0
 20
54.0
  0
TEXT
  5
286
330
1B
100
AcDbEntity
 67
1
  8
Надписи
100
AcDbText
 10
209.0
 20
57.5
 30
0.0
 40
2.5
  1
V, м³
  7
ГОСТ тип Б
 41
0.8
 72
1
 11
209.0
 21
57.5
 31
0.0
100
AcDbText
 73
2
  0
LWPOLYLINE
  5
287
330
1B
100
AcDbEntity
 67
1
  8
Штамп
100
AcDbPolyline
 90
4
 70
1
 10
128.0
 20
54.0
 10
162.0
 20
54.0
 10
162.0
 20
47.0
 10
128.0
 20
47.0
  0
TEXT
  5
288
330
1B
100
AcDbEntity
 67
1
  8
Надписи
100
AcDbText
 10
129.5
 20
50.5
 30
0.0
 40
2.5
  1
Выемка ПВ
  7
ГОСТ тип Б
 41
0.8
 11
129.5
 21
50.5
 31
0.0
100
AcDbText
 73
2
  0
LWPOLYLINE
  5
289
330
1B
100
AcDbEntity
 67
1
  8
Штамп
100
AcDbPolyline
 90
4
 70
1
 10
162.0
 20
54.0
 10
194.0
 20
54.0
 10
194.0
 20
47.0
 10
162.0
 20
47.0
  0
TEXT
  5
28A
330
1B
100
AcDbEntity
 67
1
  8
Надписи
100
AcDbText
 10
178.0
 20
50.5
 30
0.0
 40
2.5
  1
69 191,63
  7
ГОСТ тип Б
 41
0.8
 72
1
 11
178.0
 21
50.5
 31
0.0
100
AcDbText
 73
2
  0
LWPOLYLINE
  5
28B
330
1B
100
AcDbEntity
 67
1
  8
Штамп
100
AcDbPolyline
 90
4
 70
1
 10
194.0
 20
54.0
 10
224.0
 20
54.0
 10
224.0
 20
47.0
 10
194.0
 20
47.0
  0
TEXT
  5
28C
330
1B
100
AcDbEntity
 67
1
  8
Надписи
100
AcDbText
 10
209.0
 20
50.5
 30
0.0
 40
2.5
  1
20 192,08
  7
ГОСТ тип Б
 41
0.8
 72
1
 11
209.0
 21
50.5
 31
0.0
100
AcDbText
 73
2
  0
LWPOLYLINE
  5
28D
330
1B
100
AcDbEntity
 67
1
  8
Штамп
100
AcDbPolyline
 90
4
 70
1
 10
128.0
 20
47.0
 10
162.0
 20
47.0
 10
162.0
 20
40.0
 10
128.0
 20
40.0
  0
TEXT
  5
28E
330
1B
100
AcDbEntity
 67
1
  8
Надписи
100
AcDbText
 10
129.5
 20
43.5
 30
0.0
 40
2.5
  1
Насыпь ПН
  7
ГОСТ тип Б
 41
0.8
 11
129.5
 21
43.5
 31
0.0
100
AcDbText
 73
2
  0
LWPOLYLINE
  5
28F
330
1B
100
AcDbEntity
 67
1
  8
Штамп
100
AcDbPolyline
 90
4
 70
1
 10
162.0
 20
47.0
 10
194.0
 20
47.0
 10
194.0
 20
40.0
 10
162.0
 20
40.0
  0
TEXT
  5
290
330
1B
100
AcDbEntity
 67
1
  8
Надписи
100
AcDbText
 10
178.0
 20
43.5
 30
0.0
 40
2.5
  1
80 808,37
  7
ГОСТ тип Б
 41
0.8
 72
1
 11
178.0
 21
43.5
 31
0.0
100
AcDbText
 73
2
  0
LWPOLYLINE
  5
291
330
1B
100
AcDbEntity
 67
1
  8
Штамп
100
AcDbPolyline
 90
4
 70
1
 10
194.0
 20
47.0
 10
224.0
 20
47.0
 10
224.0
 20
40.0
 10
194.0
 20
40.0
  0
TEXT
  5
292
330
1B
100
AcDbEntity
 67
1
  8
Надписи
100
AcDbText
 10
209.0
 20
43.5
 30
0.0
 40
2.5
  1
33 522,02
  7
ГОСТ тип Б
 41
0.8
 72
1
 11
209.0
 21
43.5
 31
0.0
100
AcDbText
 73
2
  0
LWPOLYLINE
  5
293
330
1B
100
AcDbEntity
 67
1
  8
Штамп
100
AcDbPolyline
 90
4
 70
1
 10
128.0
 20
40.0
 10
162.0
 20
40.0
 10
162.0
 20
33.0
 10
128.0
 20
33.0
  0
TEXT
  5
294
330
1B
100
AcDbEntity
 67
1
  8
Надписи
100
AcDbText
 10
129.5
 20
36.5
 30
0.0
 40
2.5
  1
ПН / Kор, Kор = 1,04
  7
ГОСТ тип Б
 41
0.8
 11
129.5
 21
36.5
 31
0.0
100
AcDbText
 73
2
  0
LWPOLYLINE
  5
295
330
1B
100
AcDbEntity
 67
1
  8
Штамп
100
AcDbPolyline
 90
4
 70
1
 10
162.0
 20
40.0
 10
194.0
 20
40.0
 10
194.0
 20
33.0
 10
162.0
 20
33.0
  0
TEXT
  5
296
330
1B
100
AcDbEntity
 67
1
  8
Надписи
100
AcDbText
 10
178.0
 20
36.5
 30
0.0
 40
2.5
  1

  7
ГОСТ тип Б
 41
0.8
 72
1
 11
178.0
 21
36.5
 31
0.0
100
AcDbText
 73
2
  0
LWPOLYLINE
  5
297
330
1B
100
AcDbEntity
 67
1
  8
Штамп
100
AcDbPolyline
 90
4
 70
1
 10
194.0
 20
40.0
 10
224.0
 20
40.0
 10
224.0
 20
33.0
 10
194.0
 20
33.0
  0
TEXT
  5
298
330
1B
100
AcDbEntity
 67
1
  8
Надписи
100
AcDbText
 10
209.0
 20
36.5
 30
0.0
 40
2.5
  1
32 232,71
  7
ГОСТ тип Б
 41
0.8
 72
1
 11
209.0
 21
36.5
 31
0.0
100
AcDbText
 73
2
  0
ENDSEC
  0
SECTION
  2
OBJECTS
  0
DICTIONARY
  5
A
330
0
100
AcDbDictionary
281
1
  3
ACAD_COLOR
350
B
  3
ACAD_GROUP
350
C
  3
ACAD_LAYOUT
350
D
  3
ACAD_MATERIAL
350
E
  3
ACAD_MLEADERSTYLE
350
F
  3
ACAD_MLINESTYLE
350
10
  3
ACAD_PLOTSETTINGS
350
11
  3
ACAD_PLOTSTYLENAME
350
12
  3
ACAD_SCALELIST
350
14
  3
ACAD_TABLESTYLE
350
15
  3
ACAD_VISUALSTYLE
350
16
  3
EZDXF_META
350
2D
  0
DICTIONARY
  5
B
330
A
100
AcDbDictionary
281
1
  0
DICTIONARY
  5
C
330
A
100
AcDbDictionary
281
1
  0
DICTIONARY
  5
D
330
A
100
AcDbDictionary
281
1
  3
Model
350
1A
  3
Лист 1
350
1E
  0
DICTIONARY
  5
E
330
A
100
AcDbDictionary
281
1
  3
ByBlock
350
1F
  3
ByLayer
350
20
  3
Global
350
21
  0
DICTIONARY
  5
F
330
A
100
AcDbDictionary
281
1
  3
Standard
350
2C
  0
DICTIONARY
  5
10
330
A
100
AcDbDictionary
281
1
  3
Standard
350
22
  0
DICTIONARY
  5
11
330
A
100
AcDbDictionary
281
1
  0
ACDBDICTIONARYWDFLT
  5
12
330
A
100
AcDbDictionary
281
1
  3
Normal
350
13
100
AcDbDictionaryWithDefault
340
13
  0
ACDBPLACEHOLDER
  5
13
330
12
  0
DICTIONARY
  5
14
330
A
100
AcDbDictionary
281
1
  0
DICTIONARY
  5
15
330
A
100
AcDbDictionary
281
1
  0
DICTIONARY
  5
16
330
A
100
AcDbDictionary
281
1
  0
LAYOUT
  5
1A
330
D
100
AcDbPlotSettings
  1

  4
A3
  6

 40
7.5
 41
20.0
 42
7.5
 43
20.0
 44
420.0
 45
297.0
 46
0.0
 47
0.0
 48
0.0
 49
0.0
140
0.0
141
0.0
142
1.0
143
1.0
 70
1024
 72
1
 73
0
 74
5
  7

 75
16
 76
0
 77
2
 78
300
147
1.0
148
0.0
149
0.0
100
AcDbLayout
  1
Model
 70
1
 71
0
 10
0.0
 20
0.0
 11
420.0
 21
297.0
 12
0.0
 22
0.0
 32
0.0
 14
1e+20
 24
1e+20
 34
1e+20
 15
-1e+20
 25
-1e+20
 35
-1e+20
146
0.0
 13
0.0
 23
0.0
 33
0.0
 16
1.0
 26
0.0
 36
0.0
 17
0.0
 27
1.0
 37
0.0
 76
1
330
17
  0
LAYOUT
  5
1E
330
D
100
AcDbPlotSettings
  1

  2
DWG to PDF.pc3
  4
ezdxf_(420.00_x_297.00_MM)
  6

 40
0.0
 41
0.0
 42
0.0
 43
0.0
 44
420.0
 45
297.0
 46
0.0
 47
0.0
 48
0.0
 49
0.0
140
0.0
141
0.0
142
1.0
143
1.0
 70
672
 72
1
 73
0
 74
5
  7

 75
16
 76
0
 77
2
 78
300
147
1.0
148
0.0
149
0.0
100
AcDbLayout
  1
Лист 1
 70
1
 71
1
 10
-0.0
 20
-0.0
 11
420.0
 21
297.0
 12
0.0
 22
0.0
 32
0.0
 14
1e+20
 24
1e+20
 34
1e+20
 15
-1e+20
 25
-1e+20
 35
-1e+20
146
0.0
 13
0.0
 23
0.0
 33
0.0
 16
1.0
 26
0.0
 36
0.0
 17
0.0
 27
1.0
 37
0.0
 76
1
330
1B
331
235
  0
MATERIAL
  5
1F
102
{ACAD_REACTORS
330
E
102
}
330
E
100
AcDbMaterial
  1
ByBlock
  2

 70
0
 40
1.0
 71
1
 41
1.0
 91
-1023410177
 42
1.0
 72
1
  3

 73
1
 74
1
 75
1
 44
0.5
 73
0
 45
1.0
 46
1.0
 77
1
  4

 78
1
 79
1
170
1
 48
1.0
171
1
  6

172
1
173
1
174
1
140
1.0
141
1.0
175
1
  7

176
1
177
1
178
1
143
1.0
179
1
  8

270
1
271
1
272
1
145
1.0
146
1.0
273
1
  9

274
1
275
1
276
1
 42
1.0
 72
1
  3

 73
1
 74
1
 75
1
 94
63
  0
MATERIAL
  5
20
102
{ACAD_REACTORS
330
E
102
}
330
E
100
AcDbMaterial
  1
ByLayer
  2

 70
0
 40
1.0
 71
1
 41
1.0
 91
-1023410177
 42
1.0
 72
1
  3

 73
1
 74
1
 75
1
 44
0.5
 73
0
 45
1.0
 46
1.0
 77
1
  4

 78
1
 79
1
170
1
 48
1.0
171
1
  6

172
1
173
1
174
1
140
1.0
141
1.0
175
1
  7

176
1
177
1
178
1
143
1.0
179
1
  8

270
1
271
1
272
1
145
1.0
146
1.0
273
1
  9

274
1
275
1
276
1
 42
1.0
 72
1
  3

 73
1
 74
1
 75
1
 94
63
  0
MATERIAL
  5
21
102
{ACAD_REACTORS
330
E
102
}
330
E
100
AcDbMaterial
  1
Global
  2

 70
0
 40
1.0
 71
1
 41
1.0
 91
-1023410177
 42
1.0
 72
1
  3

 73
1
 74
1
 75
1
 44
0.5
 73
0
 45
1.0
 46
1.0
 77
1
  4

 78
1
 79
1
170
1
 48
1.0
171
1
  6

172
1
173
1
174
1
140
1.0
141
1.0
175
1
  7

176
1
177
1
178
1
143
1.0
179
1
  8

270
1
271
1
272
1
145
1.0
146
1.0
273
1
  9

274
1
275
1
276
1
 42
1.0
 72
1
  3

 73
1
 74
1
 75
1
 94
63
  0
MLINESTYLE
  5
22
102
{ACAD_REACTORS
330
10
102
}
330
10
100
AcDbMlineStyle
  2
Standard
 70
0
  3

 62
256
 51
90.0
 52
90.0
 71
2
 49
0.5
 62
256
  6
BYLAYER
 49
-0.5
 62
256
  6
BYLAYER
  0
MLEADERSTYLE
  5
2C
102
{ACAD_REACTORS
330
F
102
}
330
F
100
AcDbMLeaderStyle
179
2
170
2
171
1
172
0
 90
2
 40
0.0
 41
0.0
173
1
 91
-1056964608
 92
-2
290
1
 42
2.0
291
1
 43
8.0
  3
Standard
 44
4.0
300

342
29
174
1
175
1
176
0
178
1
 93
-1056964608
 45
4.0
292
0
297
0
 46
4.0
 94
-1056964608
 47
1.0
 49
1.0
140
1.0
294
1
141
0.0
177
0
142
1.0
295
0
296
0
143
3.75
271
0
272
9
273
9
  0
DICTIONARY
  5
2D
330
A
100
AcDbDictionary
280
1
281
1
  3
CREATED_BY_EZDXF
350
2E
  3
WRITTEN_BY_EZDXF
350
29B
  0
DICTIONARYVAR
  5
2E
330
2D
100
DictionaryVariables
280
0
  1
1.4.4 @ 2026-09-25T20:53:55.748487+00:00
  0
DICTIONARYVAR
  5
29B
330
2D
100
DictionaryVariables
280
0
  1
1.4.4 @ 2026-09-25T20:53:55.770573+00:00
  0
ENDSEC
  0
EOF
