<svg viewBox="24 34 606 454" role="img" aria-label="Напряжения на гранях элементарного параллелепипеда" xmlns="http://www.w3.org/2000/svg">
<defs>
<marker id="m" viewBox="0 0 10 10" refX="9.2" refY="5" markerWidth="6.4" markerHeight="6.4" orient="auto-start-reverse"><path d="M0 0.6 L10 5 L0 9.4 z" fill="context-stroke"/></marker>
<marker id="ms" viewBox="0 0 10 10" refX="9.2" refY="5" markerWidth="5.2" markerHeight="5.2" orient="auto-start-reverse"><path d="M0 0.8 L10 5 L0 9.2 z" fill="context-stroke"/></marker>
</defs>
<line x1="314.4" y1="286.0" x2="221.6" y2="350.0" class="hid"/>
<line x1="221.6" y1="350.0" x2="221.6" y2="190.0" class="hid"/>
<line x1="221.6" y1="190.0" x2="314.4" y2="126.0" class="hid"/>
<line x1="314.4" y1="126.0" x2="314.4" y2="286.0" class="hid"/>
<line x1="314.4" y1="286.0" x2="474.4" y2="286.0" class="hid"/>
<line x1="474.4" y1="286.0" x2="474.4" y2="126.0" class="hid"/>
<line x1="474.4" y1="126.0" x2="314.4" y2="126.0" class="hid"/>
<line x1="314.4" y1="126.0" x2="314.4" y2="286.0" class="hid"/>
<line x1="314.4" y1="286.0" x2="474.4" y2="286.0" class="hid"/>
<line x1="474.4" y1="286.0" x2="381.6" y2="350.0" class="hid"/>
<line x1="381.6" y1="350.0" x2="221.6" y2="350.0" class="hid"/>
<line x1="221.6" y1="350.0" x2="314.4" y2="286.0" class="hid"/>
<polygon points="474.4,286.0 381.6,350.0 381.6,190.0 474.4,126.0" class="elem"/>
<polygon points="221.6,350.0 381.6,350.0 381.6,190.0 221.6,190.0" class="elem"/>
<polygon points="314.4,126.0 474.4,126.0 381.6,190.0 221.6,190.0" class="elem"/>
<line x1="525.6" y1="238.0" x2="437.6" y2="238.0" class="sig" marker-end="url(#m)"/>
<text x="524.0" y="231.0" class="lbl" text-anchor="middle">σ<tspan class='sub'>x</tspan></text>
<text x="524.0" y="250.0" class="val" text-anchor="middle">−80</text>
<line x1="449.3" y1="173.7" x2="406.7" y2="203.1" class="tau" marker-end="url(#ms)"/>
<text x="406.1" y="225.7" class="tau-lbl" text-anchor="middle">τ<tspan class='sub'>xy</tspan></text>
<line x1="456.8" y1="181.4" x2="456.8" y2="255.0" class="tau" marker-end="url(#ms)"/>
<text x="471.8" y="270.0" class="tau-lbl" text-anchor="middle">τ<tspan class='sub'>xz</tspan></text>
<line x1="296.0" y1="273.8" x2="245.0" y2="309.0" class="sig" marker-end="url(#m)"/>
<text x="204.5" y="330.0" class="lbl" text-anchor="middle">σ<tspan class='sub'>y</tspan></text>
<text x="204.5" y="349.0" class="val" text-anchor="middle">60</text>
<line x1="264.8" y1="319.6" x2="338.4" y2="319.6" class="tau" marker-end="url(#ms)"/>
<text x="349.4" y="338.6" class="tau-lbl" text-anchor="middle">τ<tspan class='sub'>yx</tspan></text>
<line x1="252.0" y1="306.8" x2="252.0" y2="233.2" class="tau" marker-end="url(#ms)"/>
<text x="237.0" y="226.2" class="tau-lbl" text-anchor="middle">τ<tspan class='sub'>yz</tspan></text>
<line x1="348.0" y1="60.4" x2="348.0" y2="148.4" class="sig" marker-end="url(#m)"/>
<text x="348.0" y="63.0" class="lbl" text-anchor="middle">σ<tspan class='sub'>z</tspan></text>
<text x="348.0" y="82.0" class="val" text-anchor="middle">−60</text>
<line x1="413.6" y1="138.2" x2="340.0" y2="138.2" class="tau" marker-end="url(#ms)"/>
<text x="329.0" y="127.2" class="tau-lbl" text-anchor="middle">τ<tspan class='sub'>zx</tspan></text>
<line x1="418.9" y1="143.3" x2="376.3" y2="172.7" class="tau" marker-end="url(#ms)"/>
<text x="358.7" y="170.6" class="tau-lbl" text-anchor="middle">τ<tspan class='sub'>zy</tspan></text>
<line x1="74.0" y1="432.0" x2="114.0" y2="432.0" class="ax" marker-end="url(#ms)"/>
<text x="126.0" y="436.0" class="ax-lbl" text-anchor="middle">x</text>
<line x1="74.0" y1="432.0" x2="50.8" y2="448.0" class="ax" marker-end="url(#ms)"/>
<text x="43.8" y="456.8" class="ax-lbl" text-anchor="middle">y</text>
<line x1="74.0" y1="432.0" x2="74.0" y2="392.0" class="ax" marker-end="url(#ms)"/>
<text x="74.0" y="384.0" class="ax-lbl" text-anchor="middle">z</text>
<text x="348.0" y="470.0" class="cap" text-anchor="middle">растяжение — стрелка от грани, сжатие — к грани; касательные лежат в плоскости грани</text>
</svg>
