<svg viewBox="16 16 488 782" role="img" aria-label="Тонкая пластина и выделенный из неё объёмный элемент" xmlns="http://www.w3.org/2000/svg">
<defs>
<marker id="m" viewBox="0 0 10 10" refX="9.2" refY="5" markerWidth="6.4" markerHeight="6.4" orient="auto-start-reverse"><path d="M0 0.6 L10 5 L0 9.4 z" fill="context-stroke"/></marker>
<marker id="ms" viewBox="0 0 10 10" refX="9.2" refY="5" markerWidth="5.2" markerHeight="5.2" orient="auto-start-reverse"><path d="M0 0.8 L10 5 L0 9.2 z" fill="context-stroke"/></marker>
</defs>
<line x1="30.0" y1="412.0" x2="490.0" y2="412.0" class="sep"/>
<text x="240.0" y="42.0" class="cap" text-anchor="middle">а) тонкая пластина, нагруженная по контуру</text>
<line x1="168.2" y1="173.4" x2="77.8" y2="235.8" class="hid"/>
<line x1="77.8" y1="235.8" x2="77.8" y2="218.6" class="hid"/>
<line x1="77.8" y1="218.6" x2="168.2" y2="156.2" class="hid"/>
<line x1="168.2" y1="156.2" x2="168.2" y2="173.4" class="hid"/>
<line x1="168.2" y1="173.4" x2="402.2" y2="173.4" class="hid"/>
<line x1="402.2" y1="173.4" x2="402.2" y2="156.2" class="hid"/>
<line x1="402.2" y1="156.2" x2="168.2" y2="156.2" class="hid"/>
<line x1="168.2" y1="156.2" x2="168.2" y2="173.4" class="hid"/>
<line x1="168.2" y1="173.4" x2="402.2" y2="173.4" class="hid"/>
<line x1="402.2" y1="173.4" x2="311.8" y2="235.8" class="hid"/>
<line x1="311.8" y1="235.8" x2="77.8" y2="235.8" class="hid"/>
<line x1="77.8" y1="235.8" x2="168.2" y2="173.4" class="hid"/>
<polygon points="402.2,173.4 311.8,235.8 311.8,218.6 402.2,156.2" class="elem"/>
<polygon points="77.8,235.8 311.8,235.8 311.8,218.6 77.8,218.6" class="elem"/>
<polygon points="168.2,156.2 402.2,156.2 311.8,218.6 77.8,218.6" class="elem"/>
<line x1="432.5" y1="177.3" x2="391.9" y2="177.3" class="sig" marker-end="url(#m)"/>
<line x1="405.4" y1="196.0" x2="364.8" y2="196.0" class="sig" marker-end="url(#m)"/>
<line x1="378.2" y1="214.7" x2="337.7" y2="214.7" class="sig" marker-end="url(#m)"/>
<line x1="101.8" y1="177.3" x2="142.3" y2="177.3" class="sig" marker-end="url(#m)"/>
<line x1="74.6" y1="196.0" x2="115.2" y2="196.0" class="sig" marker-end="url(#m)"/>
<line x1="47.5" y1="214.7" x2="88.1" y2="214.7" class="sig" marker-end="url(#m)"/>
<line x1="96.5" y1="246.5" x2="120.0" y2="230.3" class="sig" marker-end="url(#m)"/>
<line x1="166.7" y1="246.5" x2="190.2" y2="230.3" class="sig" marker-end="url(#m)"/>
<line x1="236.9" y1="246.5" x2="260.4" y2="230.3" class="sig" marker-end="url(#m)"/>
<line x1="243.1" y1="145.5" x2="219.6" y2="161.7" class="sig" marker-end="url(#m)"/>
<line x1="313.3" y1="145.5" x2="289.8" y2="161.7" class="sig" marker-end="url(#m)"/>
<line x1="383.5" y1="145.5" x2="360.0" y2="161.7" class="sig" marker-end="url(#m)"/>
<text x="441.0" y="201.0" class="lbl" text-anchor="middle">q<tspan class='sub'>x</tspan></text>
<text x="92.7" y="302.6" class="lbl" text-anchor="middle">q<tspan class='sub'>y</tspan></text>
<polygon points="246.2,193.3 216.6,193.3 233.8,181.5 263.4,181.5" class="elem"/>
<line x1="248.0" y1="179.4" x2="316.0" y2="84.0" class="leader"/>
<text x="322.0" y="80.0" class="cap" text-anchor="start">выделенный элемент</text>
<line x1="77.8" y1="235.8" x2="77.8" y2="275.8" class="ext"/>
<line x1="311.8" y1="235.8" x2="311.8" y2="275.8" class="ext"/>
<line x1="77.8" y1="267.8" x2="311.8" y2="267.8" class="dim" marker-start="url(#ms)" marker-end="url(#ms)"/>
<text x="194.8" y="262.8" class="ax-lbl" text-anchor="middle">b</text>
<line x1="168.2" y1="156.2" x2="137.6" y2="111.8" class="ext"/>
<line x1="77.8" y1="218.6" x2="47.1" y2="174.2" class="ext"/>
<line x1="142.1" y1="118.4" x2="51.6" y2="180.8" class="dim" marker-start="url(#ms)" marker-end="url(#ms)"/>
<text x="88.9" y="142.0" class="ax-lbl" text-anchor="middle">a</text>
<line x1="77.8" y1="218.6" x2="43.8" y2="218.6" class="ext"/>
<line x1="77.8" y1="235.8" x2="43.8" y2="235.8" class="ext"/>
<line x1="51.8" y1="218.6" x2="51.8" y2="235.8" class="dim" marker-start="url(#ms)" marker-end="url(#ms)"/>
<text x="43.8" y="232.2" class="ax-lbl" text-anchor="end">h</text>
<text x="240.0" y="388.0" class="cap" text-anchor="middle">h ≪ a, b — напряжения по толщине не меняются</text>
<line x1="70.0" y1="330.0" x2="106.0" y2="330.0" class="ax" marker-end="url(#ms)"/>
<text x="116.8" y="334.0" class="ax-lbl" text-anchor="middle">x</text>
<line x1="70.0" y1="330.0" x2="49.1" y2="344.4" class="ax" marker-end="url(#ms)"/>
<text x="42.9" y="352.7" class="ax-lbl" text-anchor="middle">y</text>
<line x1="70.0" y1="330.0" x2="70.0" y2="294.0" class="ax" marker-end="url(#ms)"/>
<text x="70.0" y="287.2" class="ax-lbl" text-anchor="middle">z</text>
<g transform="translate(-462,432)">
<text x="722.0" y="42.0" class="cap" text-anchor="middle">б) объёмный элемент в окрестности точки</text>
<line x1="692.6" y1="264.0" x2="611.4" y2="320.0" class="hid"/>
<line x1="611.4" y1="320.0" x2="611.4" y2="180.0" class="hid"/>
<line x1="611.4" y1="180.0" x2="692.6" y2="124.0" class="hid"/>
<line x1="692.6" y1="124.0" x2="692.6" y2="264.0" class="hid"/>
<line x1="692.6" y1="264.0" x2="832.6" y2="264.0" class="hid"/>
<line x1="832.6" y1="264.0" x2="832.6" y2="124.0" class="hid"/>
<line x1="832.6" y1="124.0" x2="692.6" y2="124.0" class="hid"/>
<line x1="692.6" y1="124.0" x2="692.6" y2="264.0" class="hid"/>
<line x1="692.6" y1="264.0" x2="832.6" y2="264.0" class="hid"/>
<line x1="832.6" y1="264.0" x2="751.4" y2="320.0" class="hid"/>
<line x1="751.4" y1="320.0" x2="611.4" y2="320.0" class="hid"/>
<line x1="611.4" y1="320.0" x2="692.6" y2="264.0" class="hid"/>
<polygon points="832.6,264.0 751.4,320.0 751.4,180.0 832.6,124.0" class="elem"/>
<polygon points="611.4,320.0 751.4,320.0 751.4,180.0 611.4,180.0" class="elem"/>
<polygon points="692.6,124.0 832.6,124.0 751.4,180.0 611.4,180.0" class="elem"/>
<line x1="877.4" y1="222.0" x2="800.4" y2="222.0" class="sig" marker-end="url(#m)"/>
<text x="888.0" y="215.0" class="lbl" text-anchor="middle">σ<tspan class='sub'>x</tspan></text>
<text x="888.0" y="234.0" class="val" text-anchor="middle">−85 МПа</text>
<line x1="773.3" y1="191.5" x2="810.7" y2="165.7" class="tau" marker-end="url(#ms)"/>
<text x="828.2" y="175.8" class="tau-lbl" text-anchor="middle">τ<tspan class='sub'>xy</tspan></text>
<line x1="631.9" y1="284.2" x2="676.5" y2="253.4" class="sig" marker-end="url(#m)"/>
<text x="571.1" y="319.1" class="lbl" text-anchor="middle">σ<tspan class='sub'>y</tspan></text>
<text x="571.1" y="338.1" class="val" text-anchor="middle">−30 МПа</text>
<line x1="713.6" y1="293.4" x2="649.2" y2="293.4" class="tau" marker-end="url(#ms)"/>
<text x="638.2" y="312.4" class="tau-lbl" text-anchor="middle">τ<tspan class='sub'>yx</tspan></text>
<line x1="755.2" y1="143.6" x2="836.0" y2="104.0" class="leader"/>
<text x="842.0" y="94.0" class="cap" text-anchor="start">грань свободна:</text>
<text x="842.0" y="114.0" class="lbl-s" text-anchor="start">σ<tspan class='sub'>z</tspan> = 0</text>
<text x="842.0" y="134.0" class="lbl-s" text-anchor="start">τ<tspan class='sub'>zx</tspan> = τ<tspan class='sub'>zy</tspan> = 0</text>
<line x1="900.0" y1="326.0" x2="936.0" y2="326.0" class="ax" marker-end="url(#ms)"/>
<text x="946.8" y="330.0" class="ax-lbl" text-anchor="middle">x</text>
<line x1="900.0" y1="326.0" x2="879.1" y2="340.4" class="ax" marker-end="url(#ms)"/>
<text x="872.9" y="348.7" class="ax-lbl" text-anchor="middle">y</text>
<line x1="900.0" y1="326.0" x2="900.0" y2="290.0" class="ax" marker-end="url(#ms)"/>
<text x="900.0" y="283.2" class="ax-lbl" text-anchor="middle">z</text>
</g>
</svg>
