<svg viewBox="58 11 529 438" role="img" aria-label="Напряжения на площадках под углом 15° к осям" xmlns="http://www.w3.org/2000/svg">
<defs>
<marker id="m" viewBox="0 0 10 10" refX="9.2" refY="5" markerWidth="6.4" markerHeight="6.4" orient="auto-start-reverse"><path d="M0 0.6 L10 5 L0 9.4 z" fill="context-stroke"/></marker>
<marker id="ms" viewBox="0 0 10 10" refX="9.2" refY="5" markerWidth="5.2" markerHeight="5.2" orient="auto-start-reverse"><path d="M0 0.8 L10 5 L0 9.2 z" fill="context-stroke"/></marker>
</defs>
<line x1="122.0" y1="236.0" x2="542.0" y2="236.0" class="ax" marker-end="url(#ms)"/>
<text x="552.0" y="241.0" class="ax-lbl" text-anchor="middle">x</text>
<line x1="330.0" y1="236.0" x2="330.0" y2="420.0" class="ax" marker-end="url(#ms)"/>
<text x="314.0" y="432.0" class="ax-lbl" text-anchor="middle">y</text>
<line x1="330.0" y1="236.0" x2="519.3" y2="185.3" class="norm"/>
<text x="532.8" y="186.6" class="ax-lbl" text-anchor="middle">ν</text>
<line x1="330.0" y1="236.0" x2="279.3" y2="46.7" class="norm"/>
<text x="275.6" y="38.2" class="ax-lbl" text-anchor="middle">t</text>
<polygon points="378.1,152.7 413.3,284.1 281.9,319.3 246.7,187.9" class="elem"/>
<line x1="451.7" y1="203.4" x2="405.3" y2="215.8" class="sig" marker-end="url(#m)"/>
<line x1="208.3" y1="268.6" x2="254.7" y2="256.2" class="sig" marker-end="url(#m)"/>
<line x1="297.4" y1="114.3" x2="309.8" y2="160.7" class="sig" marker-end="url(#m)"/>
<line x1="362.6" y1="357.7" x2="350.2" y2="311.3" class="sig" marker-end="url(#m)"/>
<line x1="385.3" y1="179.8" x2="406.0" y2="257.0" class="tau" marker-end="url(#m)"/>
<line x1="274.7" y1="292.2" x2="254.0" y2="215.0" class="tau" marker-end="url(#m)"/>
<line x1="273.8" y1="180.7" x2="351.0" y2="160.0" class="tau" marker-end="url(#m)"/>
<line x1="386.2" y1="291.3" x2="309.0" y2="312.0" class="tau" marker-end="url(#m)"/>
<text x="465.1" y="276.4" class="val" text-anchor="start">σν = −66,32 МПа</text>
<text x="352.6" y="80.9" class="val" text-anchor="start">σₜ = −48,68 МПа</text>
<text x="181.7" y="215.7" class="val" text-anchor="end">τₜν = −39,73 МПа</text>
<path d="M 458 236 A 128 128 0 0 0 453.6 202.9" class="arc"/>
<text x="480.0" y="262.0" class="ang" text-anchor="start">α = 15°</text>
</svg>
